<svg xmlns="http://www.w3.org/2000/svg" viewBox="0 0 1326.06 689.3"><defs><style>.cls-1,.cls-14,.cls-6{fill:none;}.cls-1,.cls-2{stroke:#ccc;stroke-width:4px;}.cls-1,.cls-14,.cls-15,.cls-16,.cls-17,.cls-19,.cls-2,.cls-21,.cls-22,.cls-23,.cls-24,.cls-6{stroke-miterlimit:10;}.cls-15,.cls-2,.cls-3{fill:#ccc;}.cls-17,.cls-4{fill:#f2f2f2;}.cls-5{fill:#fff;}.cls-6{stroke:#e6e6e6;stroke-width:3px;}.cls-7{fill:#e6e6e6;}.cls-8{font-size:48px;font-family:FrederickatheGreatest, Fredericka the Greatest;}.cls-9{letter-spacing:-0.01em;}.cls-10{letter-spacing:0em;}.cls-11{letter-spacing:-0.01em;}.cls-12{letter-spacing:-0.03em;}.cls-13{letter-spacing:-0.01em;}.cls-14,.cls-15,.cls-16,.cls-17,.cls-19,.cls-21,.cls-22,.cls-23,.cls-24{stroke:#000;}.cls-16,.cls-19{fill:#4d4d4d;}.cls-16{stroke-width:1.1px;}.cls-18{fill:#f4ffed;}.cls-20{fill:#daffd8;}.cls-21{fill:#f5e0cd;}.cls-22{fill:#ed1c24;}.cls-23{fill:#1b1464;}.cls-24{fill:#333;stroke-width:0.25px;}.cls-25{fill:#fbae34;}.cls-26{fill:#ffd459;}.cls-27{fill:#ca7e4b;}.cls-28{fill:#5e3616;}</style></defs><title>page_4_2</title><g id="Layer_2" data-name="Layer 2"><g id="Layer_4" data-name="Layer 4"><g id="background"><line class="cls-1" x1="1266.36" y1="28.94" x2="1266.36" y2="383.37"/><rect class="cls-2" x="1259.3" y="179.66" width="25.91" height="69.47"/><path class="cls-1" d="M1222.08,408.1V391.49c0-4.38,4.43-8,9.86-8h74.73c5.42,0,9.86,3.59,9.86,8V408.1"/><path class="cls-1" d="M1245.89,408.1V391.49c0-4.38,2.2-8,4.89-8h37c2.69,0,4.89,3.59,4.89,8V408.1"/><circle class="cls-1" cx="1221.61" cy="415.16" r="7.07"/><circle class="cls-1" cx="1246.34" cy="415.16" r="7.07"/><circle class="cls-1" cx="1292.27" cy="415.16" r="7.07"/><circle class="cls-1" cx="1316.99" cy="415.16" r="7.07"/><path class="cls-1" d="M1222.2,52.49V43.07a14.17,14.17,0,0,1,14.13-14.13h60.06a14.17,14.17,0,0,1,14.13,14.13v9.42"/><rect class="cls-1" x="1298.15" y="52.49" width="23.55" height="60.05" rx="11.78"/><rect class="cls-3" x="1298.15" y="84.28" width="23.55" height="28.26" rx="6.59"/><rect class="cls-1" x="1211.02" y="52.49" width="23.55" height="60.05" rx="11.78"/><rect class="cls-3" x="1211.02" y="84.28" width="23.55" height="28.26" rx="6.59"/><rect class="cls-4" x="445.41" y="49.58" width="375" height="225"/><rect class="cls-5" x="470.19" y="61.84" width="149.75" height="88.38"/><rect class="cls-5" x="644.19" y="61.84" width="149.75" height="88.38"/><rect class="cls-5" x="470.19" y="168.21" width="149.75" height="88.38"/><rect class="cls-5" x="644.19" y="168.21" width="149.75" height="88.38"/><path class="cls-6" d="M218.07,167.24c24,24.06,32.94,65.17,35,114"/><path class="cls-6" d="M285.57,205.74c-24,24-31.47,39.08-28.5,70.5"/><path class="cls-6" d="M266.07,152.24c-12.76,34.84-14,75.45-14,119"/><circle class="cls-3" cx="203.07" cy="161.24" r="5.5"/><ellipse class="cls-7" cx="203.07" cy="145.24" rx="4" ry="9"/><ellipse class="cls-7" cx="203.07" cy="177.24" rx="4" ry="9"/><ellipse class="cls-7" cx="219.07" cy="161.24" rx="9" ry="4"/><ellipse class="cls-7" cx="187.07" cy="161.24" rx="9" ry="4"/><ellipse class="cls-7" cx="214.38" cy="149.92" rx="9" ry="4" transform="translate(-43.22 195.5) rotate(-45)"/><ellipse class="cls-7" cx="191.75" cy="172.55" rx="9" ry="4" transform="translate(-65.85 186.13) rotate(-45)"/><ellipse class="cls-7" cx="214.38" cy="172.55" rx="4" ry="9" transform="translate(-59.22 202.13) rotate(-45)"/><ellipse class="cls-7" cx="191.75" cy="149.92" rx="4" ry="9" transform="translate(-49.85 179.5) rotate(-45)"/><circle class="cls-3" cx="302.07" cy="199.24" r="5.5"/><ellipse class="cls-7" cx="302.07" cy="183.24" rx="4" ry="9"/><ellipse class="cls-7" cx="302.07" cy="215.24" rx="4" ry="9"/><ellipse class="cls-7" cx="318.07" cy="199.24" rx="9" ry="4"/><ellipse class="cls-7" cx="286.07" cy="199.24" rx="9" ry="4"/><ellipse class="cls-7" cx="313.38" cy="187.92" rx="9" ry="4" transform="translate(-41.1 276.63) rotate(-45)"/><ellipse class="cls-7" cx="290.75" cy="210.55" rx="9" ry="4" transform="translate(-63.72 267.26) rotate(-45)"/><ellipse class="cls-7" cx="313.38" cy="210.55" rx="4" ry="9" transform="translate(-57.1 283.26) rotate(-45)"/><ellipse class="cls-7" cx="290.75" cy="187.92" rx="4" ry="9" transform="translate(-47.72 260.63) rotate(-45)"/><circle class="cls-3" cx="273.07" cy="136.24" r="5.5"/><ellipse class="cls-7" cx="273.07" cy="120.24" rx="4" ry="9"/><ellipse class="cls-7" cx="273.07" cy="152.24" rx="4" ry="9"/><ellipse class="cls-7" cx="289.07" cy="136.24" rx="9" ry="4"/><ellipse class="cls-7" cx="257.07" cy="136.24" rx="9" ry="4"/><ellipse class="cls-7" cx="284.38" cy="124.92" rx="9" ry="4" transform="translate(-5.04 237.68) rotate(-45)"/><ellipse class="cls-7" cx="261.75" cy="147.55" rx="9" ry="4" transform="translate(-27.67 228.3) rotate(-45)"/><ellipse class="cls-7" cx="284.38" cy="147.55" rx="4" ry="9" transform="translate(-21.04 244.3) rotate(-45)"/><ellipse class="cls-7" cx="261.75" cy="124.92" rx="4" ry="9" transform="translate(-11.67 221.68) rotate(-45)"/><path class="cls-7" d="M306.07,318.41c0,29.55-13.78,27.83-53,27.83s-53,1.72-53-27.83,10-79.17,53-79.17C294.38,239.24,306.07,288.86,306.07,318.41Z"/><rect class="cls-7" x="218.07" y="237.24" width="70" height="9" rx="3.88"/><rect class="cls-7" x="161.07" y="341.24" width="184" height="29"/><rect class="cls-7" x="171.07" y="370.24" width="163" height="119"/><rect class="cls-7" x="171.07" y="489.24" width="10" height="30"/><rect class="cls-7" x="324.07" y="489.24" width="10" height="30"/><rect class="cls-7" x="298.07" y="489.24" width="10" height="24"/><rect class="cls-7" x="197.07" y="489.24" width="10" height="24"/><rect class="cls-3" x="187.07" y="383.24" width="131" height="37.12"/><rect class="cls-3" x="187.07" y="433.12" width="131" height="37.12"/><circle class="cls-7" cx="252.57" cy="401.8" r="5"/><circle class="cls-7" cx="253.07" cy="452.24" r="5"/></g><text class="cls-8" transform="translate(0.72 41.99)"><tspan xml:space="preserve">Myth  #3 - I w</tspan><tspan class="cls-9" x="313.1" y="0">o</tspan><tspan class="cls-10" x="338.83" y="0">n’t recei</tspan><tspan class="cls-11" x="519.92" y="0">v</tspan><tspan class="cls-10" x="539.13" y="0">e the same le</tspan><tspan class="cls-11" x="836.33" y="0">v</tspan><tspan x="855.53" y="0">el </tspan><tspan class="cls-11" x="0" y="57.6">o</tspan><tspan x="25.73" y="57.6">f care that I currently h</tspan><tspan class="cls-12" x="557.6" y="57.6">a</tspan><tspan class="cls-13" x="583.09" y="57.6">v</tspan><tspan x="602.29" y="57.6">e</tspan></text><line class="cls-14" x1="105.22" y1="667.37" x2="109.72" y2="670.87"/><line class="cls-14" x1="218.34" y1="666.9" x2="213.34" y2="670.9"/><line class="cls-14" x1="219.84" y1="669.4" x2="215.34" y2="672.9"/><g id="bed"><polygon class="cls-15" points="1189.08 139.03 1239.08 137.03 1240.08 288.03 797.08 501.03 787.08 426.03 1189.08 139.03"/><ellipse class="cls-16" cx="634.58" cy="522.53" rx="8.5" ry="21.5"/><polygon class="cls-17" points="627.08 390.03 627.08 504.03 641.08 505.03 640.08 458.03 652.08 454.03 651.68 434.78 713.08 425.03 627.08 390.03"/><polygon id="base" class="cls-17" points="1189.08 330.03 1189.56 415.03 1178.56 418.03 1177.08 342.03 910.08 473.03 910.56 560.03 896.56 568.03 895.56 549.03 874.56 536.03 874.56 518.03 841.56 501.03 1189.08 330.03"/><g id="matress"><path class="cls-18" d="M795.08,348.19,598.69,274.07l323.65-86.64,69.41-79a80.37,80.37,0,0,1,74.07-23.69l106.44,21a31.21,31.21,0,0,1,24.7,25.75l4.67,30.08a15.76,15.76,0,0,1-2.29,10.87l-74,115.85A82.88,82.88,0,0,1,1085.48,321L796.07,433.81Z"/><path d="M1050.23,83.67a79.93,79.93,0,0,1,15.5,1.52l106.43,21a30.7,30.7,0,0,1,24.3,25.33l4.67,30.08a15.24,15.24,0,0,1-2.21,10.53L1124.9,288a82.35,82.35,0,0,1-39.6,32.55L796.56,433.08l-1-84.56v-.68l-.64-.24L600.32,274.15l322-86.2.29-.08.2-.23,69.3-78.9a80.22,80.22,0,0,1,58.12-25.07m0-1a80.89,80.89,0,0,0-58.85,25.39L922.06,187l-325,87,197.52,74.55,1,86,290.08-113a84,84,0,0,0,40.09-32.95l74-115.85a16.18,16.18,0,0,0,2.36-11.22l-4.67-30.08a31.59,31.59,0,0,0-25.1-26.16l-106.43-21a81.07,81.07,0,0,0-15.69-1.53Z"/></g><polygon id="upperFrame" class="cls-17" points="596.56 241.03 595.56 250.03 779.56 320.03 782.56 313.03 791.56 310.03 797.56 314.03 796.56 492.03 1237.08 283.03 1236.56 143.03 1199.08 141.03 1195.08 125.03 1231.08 129.03 1246.56 128.03 1246.56 303.03 792.56 525.03 783.56 522.03 783.56 483.03 592.56 388.03 595.56 417.03 589.56 421.03 583.56 419.03 582.56 240.03 596.56 241.03"/><g id="wheels"><ellipse class="cls-19" cx="1186.56" cy="433.03" rx="7" ry="18"/><ellipse class="cls-19" cx="905.56" cy="584.53" rx="7" ry="21.5"/></g><path class="cls-20" d="M797.08,370.89l277-97.29a12.15,12.15,0,0,0,5.44-3.84l115.76-143.09c.91,4.28,1.76,8.13,2.52,11.6,5,22.44,6.45,29.21-1.41,38.33l-57.26,89.67c-21.2,39-37.6,52.33-79.8,65L797.2,433.3Z"/><path d="M1195,127.79c.83,3.89,1.61,7.42,2.3,10.59,5,22.83,6.4,29-1.3,37.9l0,.05,0,.06L1138.74,266l0,0,0,0c-21.1,38.8-37.44,52.11-79.48,64.73h-.08L797.7,432.57l-.12-61.33,276.69-97.17a12.53,12.53,0,0,0,5.67-4L1195,127.79m.54-2.26L1079.16,269.44a11.59,11.59,0,0,1-5.22,3.69l-277.36,97.4.12,63.5,262.81-102.29c41.6-12.48,58.51-25.57,80.07-65.21l57.21-89.6c9.35-10.84,5.8-18.18-1.21-51.4Z"/><polygon class="cls-5" points="613.08 371.2 612.09 288.27 747.07 340.87 745.1 428.78 613.08 371.2"/><path d="M612.6,289l134,52.21L744.61,428l-131-57.14-1-81.88m-1-1.47,1,84,133,58,2-89-136-53Z"/></g><path id="leftShoe" class="cls-19" d="M114.85,655.24l25,9v4.9a1.53,1.53,0,0,1-1,1.45c-9.25,3.18-19.41,8.87-30,15.65-9.3,4.5-15.68,2.79-20.19-2.91a2.69,2.69,0,0,1-.5-2.36c1-3.65,3-7.08,8.69-9.73C105.55,667.71,112.05,662.71,114.85,655.24Z"/><path id="rightShoe" class="cls-19" d="M188.35,663.74c1,1.8-1.14,4.65.5,6.5,1.84,2.08,5.34,2.1,9,4s7.48,5.66,11.42,7.9c.67.37,1.73,1.05,2.37,1.46,10.62,6.92,16.56,4.88,20.74-.5a1.72,1.72,0,0,0-.29-2.38c-10.73-8.73-19.15-17.89-22.74-28Z"/><path id="neck" class="cls-21" d="M126.72,244.87,125,260.74a2.48,2.48,0,0,1-2.78,2.2c-1.72-.23-3.79-.67-4.51-.83a.93.93,0,0,0-1.13.8c-2.93,21,45.79,25.21,44.32-.55a.62.62,0,0,0-1-.5c-1.23.82-6.78,1.35-7.19,0l-3-17Z"/><path id="shirt" class="cls-22" d="M160.71,261.31c-1,24.81-42.1,23.81-43.33,1.06a.63.63,0,0,0-.66-.6c-23.59,1.33-40.62,14.71-53.37,36,0,0-4.35,24-1.26,37.23a6.11,6.11,0,0,0,10,3.11c4-3.38,7.55-1.62,10.79,3.16,9.43,10.46,13.83,22.65,12,37l-4,57c27.85,9.61,62.63,10.27,102,5l-5-83c2.39-17.55,6.4-28.82,13.21-29.29,2.27-.16,7.79-42.71,7.79-42.71a25.64,25.64,0,0,0-3.16-5.54c-7.43-9.94-22.37-15.95-44.52-18.78A.41.41,0,0,0,160.71,261.31Z"/><path id="rightHand" class="cls-21" d="M77.94,410.86l23.92,4c2.72.37,2.83,4.54-1,4l-8-2c-2.32.09-1.73,2.78-1,3l11,7c3,2,4.2,5.45,0,4l-13-8c-1.24-.1-2.45.3-2.08,1.58l14,11.27a.34.34,0,0,1,.08.09c1,1.75.49,2.5-.78,2.77a1.22,1.22,0,0,1-.89-.17l-13.57-10a1.17,1.17,0,0,0-1.46.05h0a.93.93,0,0,0,0,1.4l10.35,9.33c.54,2.21-.72,2.56-3.11,1.74a.19.19,0,0,1-.09-.05l-12.83-10a1.29,1.29,0,0,0-.61-.27l-10.42-1.82a3.07,3.07,0,0,1-1.82-1.06l-2.21-2.64a2,2,0,0,1-.23-1.94c2.2-4.49,7.12-7.85,13.62-12.28A.33.33,0,0,1,77.94,410.86Z"/><path id="leftSleave" class="cls-22" d="M87.85,271.24C77.5,293,76.1,313.08,76.72,335.87c-28,16-18.56,33.4-9.87,59.37l12,15-11.36,17a.77.77,0,0,1-1.25.05c-2.43-3.23-9.23-9.09-18.65-16.51a5.28,5.28,0,0,1-1.23-1.39c-19.69-32.78-19.4-58.85-3.51-80.19C59.2,299.73,74.62,277.14,87.85,271.24Z"/><path id="pants" class="cls-23" d="M90.85,436.24c-3.48,20.51,1.25,51.25,10,87,4.18,14,4.3,29.55,1.8,46a57.49,57.49,0,0,0,.7,21c5.27,24,8.41,47.6,10.5,65l27,11-2-79-1-58,4.8-41.58a2.41,2.41,0,0,1,4.66-.52l25.94,74.36a12.3,12.3,0,0,0,1.28,2.72c5,7.69,4.8,18.46,3.32,30-1.81,21.39.16,44.3,9,70l25-9,2-46-5-73a378.63,378.63,0,0,0-15-96C155.65,445.64,120.13,446.38,90.85,436.24Z"/><path id="rightHand-2" data-name="rightHand" class="cls-21" d="M200.64,406.86l-23.92,4c-2.72.37-2.83,4.54,1,4l8-2c2.32.09,1.73,2.78,1,3l-11,7c-3,2-4.2,5.45,0,4l13-8c1.24-.1,2.45.3,2.08,1.58l-14,11.27a.34.34,0,0,0-.08.09c-1,1.75-.49,2.5.78,2.77a1.22,1.22,0,0,0,.89-.17l13.57-10a1.17,1.17,0,0,1,1.46.05h0a.93.93,0,0,1,0,1.4L183.1,435.2c-.54,2.21.72,2.56,3.12,1.74l.08-.05,12.83-10a1.29,1.29,0,0,1,.61-.27l10.42-1.82a3.07,3.07,0,0,0,1.82-1.06l2.21-2.64a2,2,0,0,0,.23-1.94c-2.2-4.49-7.12-7.85-13.62-12.28A.33.33,0,0,0,200.64,406.86Z"/><path id="head" class="cls-21" d="M163.85,219.74c-3.54,18.72-11.64,34.5-26,34.5s-26-15.45-26-34.5,11.88-36.25,26.23-36.71C155.44,182.48,167.58,200,163.85,219.74Z"/><path class="cls-14" d="M177.13,567.87c3.16-2.37,6.43-4.08,10.28-3.23"/><line class="cls-14" x1="177.85" y1="572.24" x2="184.85" y2="569.24"/><path id="rightsleave" class="cls-22" d="M191.85,269.24c10,3.32,16.73,8.94,20,17l30,43h0c13.64,15.4,7.84,41.68-3.2,70.9a10.44,10.44,0,0,1-2.39,3.69l-18.41,18.41-19-17,13-10,8.91-26.72c.06-.18.21-.34.27-.52,2-5.89,1.89-11.79.16-18.44-.07-.3-.39-.48-.5-.76-6.08-16.67-13.62-23.66-22.84-19.56C201.73,311.62,199.89,291.69,191.85,269.24Z"/><path class="cls-24" d="M94.22,687.37c6.22-.77,27.35-12.43,44.93-21.49a.67.67,0,0,1,1,.58c.07,1.37.29,3.57-.9,3.91-7,2-21.22,9.72-31,16C102,689.14,97.32,689.53,94.22,687.37Z"/><line class="cls-14" x1="110.22" y1="662.37" x2="115.22" y2="666.37"/><line class="cls-14" x1="112.22" y1="660.37" x2="117.22" y2="664.37"/><line class="cls-14" x1="107.72" y1="664.87" x2="112.72" y2="668.87"/><line class="cls-14" x1="215.84" y1="664.4" x2="210.84" y2="668.4"/><line class="cls-14" x1="213.84" y1="662.4" x2="208.84" y2="666.4"/><path class="cls-24" d="M188.56,665.52c15.92,9.17,32.45,18.82,39.66,21.07-6.47,2.44-14.36.53-24.5-8.3-2.22-2.22-5.93-4-10.21-5.67C188.77,671.72,187.29,669.27,188.56,665.52Z"/><path class="cls-25" d="M163.3,172.14c-1.8-.07-3.12,1.58-4.4,2.84-4.45,4.4-11.22,5.4-17.47,5.29s-12.6-1.1-18.69.26a25.36,25.36,0,0,0-18.79,19c-2,9.22,4.21,25.38,9.48,25,3.62-.59.52-15,5-20.76,2-2.58,5.4-3.69,8.65-3.78s6.47.7,9.68,1.2a57.91,57.91,0,0,0,24-1.33c.52,6.47,1,12.93,1.54,19.4a4.06,4.06,0,0,0,.81,2.56,2.73,2.73,0,0,0,3.7-.24,6.64,6.64,0,0,0,1.61-3.76c1.21-7-.22-14.29,1.93-21s7.92-12.75,7.48-19.91c-.13-2.13-1.23-4.56-3.34-4.86-4.31-.59-5.07,7.53-9.39,8.07a8.24,8.24,0,0,0,1.28-4.66A3.54,3.54,0,0,0,163.3,172.14Z"/><path class="cls-26" d="M154.84,180.53a52.62,52.62,0,0,1-20.13,4.19,47.26,47.26,0,0,0-10.35.8c-2.8.65-5.83,1.93-7.55,4.34-.32.46.31,1,.76.76a20.37,20.37,0,0,1,8.07-3.32c3.58-.56,7.31-.19,10.91-.19,6.55,0,13.5-1.11,19-4.77C156.47,181.75,155.93,180.08,154.84,180.53Z"/><path class="cls-26" d="M166.9,184.66a75.49,75.49,0,0,1-10.63,5.7,32.21,32.21,0,0,1-11.8,2.28c-4.4,0-8.72-1-13.12-1-3.58,0-7.66.95-10.15,3.69-.44.45.15,1.34.71.91,7.29-5.51,16.1-.8,24.19-.76,7.94,0,16.88-2.89,22.45-8.68A1.36,1.36,0,0,0,166.9,184.66Z"/><path class="cls-26" d="M117.77,198c-4-.87-6.75,4.62-6.55,7.87a.9.9,0,0,0,1.65.46c.8-1.37,1.17-2.93,1.93-4.34a6.93,6.93,0,0,1,3.14-2.62A.75.75,0,0,0,117.77,198Z"/><path class="cls-26" d="M114.23,194.7c-2.12-.52-3.73,1.13-5.12,2.52s-2.62,3.1-2.3,5.18c.11.69,1.09.56,1.28,0a10.74,10.74,0,0,1,2.09-3.58c1-1.15,2.23-2.78,3.86-2.73A.71.71,0,0,0,114.23,194.7Z"/><path class="cls-27" d="M139.66,233.36c1-.19,4-1,3-2.59-.83-1.33-1.93-2.47-2.82-3.74-.29-.43.31-1.05.73-.72a16.26,16.26,0,0,1,2.61,2.57,4.32,4.32,0,0,1,1.47,2.84c-.1,2.26-3.17,3.32-5,3A.73.73,0,0,1,139.66,233.36Z"/><path class="cls-25" d="M145.69,207.71c2.16-.56,5.33.14,6,2.59A1.37,1.37,0,0,1,150,212c-1.22-.37-2-.93-3.31-.44C144.38,212.4,143.2,208.37,145.69,207.71Z"/><path class="cls-25" d="M123.69,210.51a5.08,5.08,0,0,1,2.76-2.2c1.18-.48,3-.48,3.87.6a2.07,2.07,0,0,1-.41,3.17,4.26,4.26,0,0,1-2.63.46,9.24,9.24,0,0,0-1.79.33A1.62,1.62,0,0,1,123.69,210.51Z"/><path class="cls-28" d="M146.91,215.63a2.6,2.6,0,0,1,1.41-.08c3.65.72,3.24,7,.06,8.13-1.59.56-2.34-.77-2.65-2a5.49,5.49,0,0,1-.41-1.64C145.11,218.6,145.38,216.23,146.91,215.63Z"/><path class="cls-5" d="M147.89,217.5a.8.8,0,0,1,.56-.42l.27,0a1,1,0,0,1,.51.15,1.4,1.4,0,0,1,.34.26,1.08,1.08,0,0,1,.25,1.17.92.92,0,0,1-.83.64h-.13a1,1,0,0,1-.72-.31.93.93,0,0,1-.21-.29,1.2,1.2,0,0,1-.17-.67A1,1,0,0,1,147.89,217.5Z"/><path class="cls-28" d="M127.38,217.31a2.5,2.5,0,0,1,1.41-.08c3.65.72,3.23,7,.06,8.13-1.59.55-2.34-.77-2.65-2a5.82,5.82,0,0,1-.42-1.64C125.58,220.27,125.85,217.91,127.38,217.31Z"/><path class="cls-5" d="M128.35,219.18a.85.85,0,0,1,.56-.42l.27,0a1.09,1.09,0,0,1,.52.14,1.44,1.44,0,0,1,.33.27,1,1,0,0,1,.25,1.17.9.9,0,0,1-.83.64h-.12a1.1,1.1,0,0,1-.73-.31,1.08,1.08,0,0,1-.2-.29,1.2,1.2,0,0,1-.17-.67A.89.89,0,0,1,128.35,219.18Z"/><path class="cls-27" d="M135.9,240c2.66.56,5.68,1.64,8-.33a.46.46,0,0,1,.64.65c-2.24,2.69-6.12,2.28-9,1A.71.71,0,0,1,135.9,240Z"/><path class="cls-27" d="M139.2,243.17a6.66,6.66,0,0,0,1.33-.09c.6-.1.85.77.24.92a2.8,2.8,0,0,1-1.67,0A.41.41,0,0,1,139.2,243.17Z"/></g></g></svg>