<svg xmlns="http://www.w3.org/2000/svg" viewBox="0 0 1217.31 679.81"><defs><style>.cls-1{fill:#e6e6e6;}.cls-2,.cls-9{fill:#ccc;}.cls-13,.cls-17,.cls-29,.cls-3,.cls-4{fill:none;}.cls-3,.cls-4{stroke:#ccc;}.cls-10,.cls-11,.cls-12,.cls-13,.cls-14,.cls-15,.cls-16,.cls-17,.cls-18,.cls-19,.cls-20,.cls-21,.cls-22,.cls-24,.cls-26,.cls-28,.cls-29,.cls-3,.cls-4,.cls-9{stroke-miterlimit:10;}.cls-3{stroke-width:4px;}.cls-4{stroke-width:5px;}.cls-10,.cls-5{fill:#fff;}.cls-6{font-size:48px;font-family:FrederickatheGreatest, Fredericka the Greatest;}.cls-7{letter-spacing:-0.01em;}.cls-8{letter-spacing:0em;}.cls-10,.cls-11,.cls-12,.cls-13,.cls-14,.cls-15,.cls-16,.cls-17,.cls-18,.cls-19,.cls-20,.cls-21,.cls-22,.cls-26,.cls-28,.cls-9{stroke:#000;}.cls-11{fill:#b08874;}.cls-12{fill:#4983ff;}.cls-14{fill:#aeb4ff;stroke-width:0.5px;}.cls-15{fill:#999;}.cls-16{fill:#666;}.cls-16,.cls-17,.cls-24{stroke-width:0.75px;}.cls-18{fill:#4d4d4d;}.cls-19{fill:#6a330d;}.cls-20{fill:#9e005d;}.cls-21{fill:#e7fffd;}.cls-22,.cls-25{fill:#333;}.cls-22,.cls-28{stroke-width:0.25px;}.cls-23{fill:#572000;}.cls-24{stroke:#fff;}.cls-26,.cls-28{fill:#4a3222;}.cls-27{fill:#926d5a;}.cls-29{stroke:#572000;}</style></defs><title>page_3_2</title><g id="Layer_2" data-name="Layer 2"><g id="Layer_3" data-name="Layer 3"><g id="background"><rect class="cls-1" x="653.31" y="358.47" width="564" height="36"/><rect class="cls-1" x="690.31" y="397.22" width="490" height="225.5"/><rect class="cls-2" x="690.31" y="348.47" width="49" height="9"/><line class="cls-3" x1="715.31" y1="332.47" x2="715.31" y2="350.47"/><line class="cls-3" x1="742.31" y1="252.47" x2="689.31" y2="334.47"/><circle class="cls-1" cx="714.81" cy="294.97" r="33.5"/><path class="cls-3" d="M736.27,261.8a39.51,39.51,0,0,1-42.89,66.36"/><ellipse class="cls-1" cx="748.31" cy="176.47" rx="93" ry="40"/><g id="chair"><polygon class="cls-2" points="406.31 495.47 316.31 499.47 316.31 394.47 405.31 391.47 406.31 495.47"/><polygon class="cls-2" points="461.31 519.47 367.6 524.47 316.29 504.47 409.99 499.47 461.31 519.47"/><line class="cls-4" x1="319.81" y1="507.47" x2="319.81" y2="579.47"/><line class="cls-4" x1="363.81" y1="527.47" x2="363.81" y2="599.47"/><line class="cls-4" x1="454.81" y1="524.47" x2="454.81" y2="596.47"/><line class="cls-4" x1="408.81" y1="503.47" x2="408.81" y2="575.47"/></g><ellipse class="cls-1" cx="400.31" cy="348.72" rx="22.5" ry="30.75" transform="matrix(0.99, -0.15, 0.15, 0.99, -46.47, 61.94)"/><path class="cls-1" d="M416.23,489.47c-13.13,3.56-29.72,3.48-50.48-1-6.46-39.62-13.13-79.47-1.8-99.11a13,13,0,0,1,9.84-6.52,233.65,233.65,0,0,1,41.61-.49c7.08.51,12.71,6.68,12.87,14.27C429.06,434,416.23,458.91,416.23,489.47Z"/><path class="cls-1" d="M446.31,521.47a444.26,444.26,0,0,0-52-30l-28-4c-5.21,7.77-5.46,15.13,0,22l51.39,23.36c5.56,19.46,4.61,37.41,4.61,70.64l12-4C437.68,585.91,446.85,560.15,446.31,521.47Z"/><path class="cls-1" d="M475.31,516.47c-7-7-30-22-43-27-5.12-1.06-10.39-2.34-14-2-7.54,2.33-14.59,4.19-23,4,16.56,11.36,29.58,20.9,58,33,6.09,28.11,6,45,5,68l12-4C478.49,555.89,476.41,534.44,475.31,516.47Z"/><ellipse class="cls-1" cx="437.97" cy="603.75" rx="5.5" ry="16" transform="matrix(0.07, -1, 1, 0.07, -194.41, 999.27)"/><ellipse class="cls-1" cx="473.64" cy="592.18" rx="5.5" ry="16" transform="translate(-149.64 1024.07) rotate(-86.07)"/><path class="cls-1" d="M504.81,241.47c-42.25,0-76.5,17.46-76.5,39,0,7.54,4.21,14.58,11.48,20.54l-7.48,19.46,26.5-8.84c12.81,4.92,28.73,7.84,46,7.84,42.25,0,76.5-17.46,76.5-39S547.06,241.47,504.81,241.47Z"/><rect class="cls-1" x="341.91" y="319.2" width="16.1" height="97.05" rx="6.19" transform="translate(-124.31 186.74) rotate(-25.53)"/><rect class="cls-1" x="439.75" y="313.21" width="16.99" height="90" rx="6.03" transform="translate(295.25 -194.81) rotate(35.91)"/><path class="cls-5" d="M405.31,370.47c-5,.22-9.18-3.12-10-10,6.27,2.54,13,2,20,0C413.71,367.12,411.43,370.49,405.31,370.47Z"/></g><text class="cls-6" transform="translate(0.72 41.99)"><tspan xml:space="preserve">Myth  #2 - If there is a Clinical Trial that </tspan><tspan x="0" y="57.6">could help, </tspan><tspan class="cls-7" x="255.69" y="57.6">m</tspan><tspan class="cls-8" x="295.58" y="57.6">y doctor would tell me </tspan><tspan x="0" y="115.2">about it</tspan></text><path id="leftShoe" class="cls-9" d="M966.64,601.54c-4.38,5.1-12.87,9.54-23.86,13.58a4.31,4.31,0,0,0,.23,8.17c13.61,4.24,31.23-.94,50.63-4.75,9.34-1.84,16.57-.1,26.68-3l-1.68-18Z"/><path class="cls-10" d="M977.32,130.54l11-8v3a48.24,48.24,0,0,0,25.75-.19,5.75,5.75,0,0,0,4.16-5.32l.09-2.49,11-1-36,84-36-20Z"/><path class="cls-11" d="M988.32,119.54v6c5.84,2.83,14.23,3.26,27.37-.8a3.32,3.32,0,0,0,2.35-3.26l-.2-7.7Z"/><path id="rightShoe" class="cls-9" d="M1070.64,607.54v18l-17.9,8.47a11.66,11.66,0,0,1-2.3.82c-22.46,5.47-31.19,4-32.77-1.18a5.89,5.89,0,0,1,1.42-5.67c7.53-8.15,13.09-15.43,14.32-20.78a3.19,3.19,0,0,1,3.38-2.41Z"/><path id="legs" class="cls-12" d="M952.64,281.54l106,1,2.95,139a21.75,21.75,0,0,0,.45,3.86c9.56,45.42,10.24,83.56,6.68,118.24a15.82,15.82,0,0,1-.25,1.68c-3.63,19.06-1.38,42.71,3.17,68.17-11-4.2-24.71-6.14-42-5l.94-39.46a5.68,5.68,0,0,1,1.63-3.94c7.3-7.24,6.12-18-1.57-31.6l-15.37-66.27a.28.28,0,0,0-.56.07l4.61,139.2c-16.34-6.52-34.87-5.2-54-5,11.76-8.9,12.7-24.89,1-38.17a20.86,20.86,0,0,1-5.21-12.32l-8.48-123.51Z"/><ellipse id="head" class="cls-11" cx="1000.64" cy="80.04" rx="27.5" ry="44"/><path id="rightSideCoat" class="cls-10" d="M1024.32,115.54l-29.68,52c-6,11.56-7.95,21.42-7,30l-4,222c41.12,2.53,77.66,3.75,83-4l-1-154-6-72C1089.94,154.86,1072,122.46,1024.32,115.54Z"/><path id="leftSideJacket" class="cls-10" d="M976.64,130.54c9.49,10.74-9,46-12,79l2,50c1.38,67.7,4.61,124.84,11,164-9.14,4.13-18.48,4-28,0v-146l-4-109C950.5,154.06,960.61,141.11,976.64,130.54Z"/><g id="stethosp"><path class="cls-13" d="M1034.32,117.54c7.19,4,3.59,12.79-5.68,23"/><path class="cls-13" d="M1031.64,184.54c-5.57,3.5-7.6-1.6-7.19-12.62a11.85,11.85,0,0,1,1.86-5.86c16.32-25.85-7.3-43.27-11.67,1.48-1.73,13.72-4,19.91-7,17"/><circle cx="1033.14" cy="185.04" r="2.5"/><circle cx="1005.64" cy="184.54" r="2.5"/></g><path class="cls-13" d="M972.32,133.54c.62-1.18-18.83,36.46-21.18,55.5"/><path id="tie" class="cls-14" d="M990.67,131.54h10.83a1.35,1.35,0,0,1,1,2.2l-6,7.53a1.5,1.5,0,0,0-.28.6c-5.9,32.44-8.79,76.43-10.84,123.57a5.49,5.49,0,0,1-1.82,3.82c-4.74,4.29-9.18,4.52-13.33,1.14a5.35,5.35,0,0,1-1.92-4.23c.58-49.86,1.44-99.34,20.7-124.27a1.35,1.35,0,0,0,.28-.82v-8.19A1.35,1.35,0,0,1,990.67,131.54Z"/><polygon id="clipboard" class="cls-15" points="909.64 186.54 980.64 182.54 1008.64 260.54 940.64 265.54 909.64 186.54"/><path id="rightHand" class="cls-11" d="M1028.64,235.54c5,6.24,5.22,12.71,3.49,19.27a2.39,2.39,0,0,1-2.24,1.78l-30.25,1c-8.4-.52-14.21-1.51-12-4l17-1c.59-1.13.66-2.19-1-3l-18.44,1a2.52,2.52,0,0,1-1.09-.17c-2.09-.83-3.11-1.78-2.91-2.87a1.24,1.24,0,0,1,1.18-1l20.26-1c.9-1.24.45-1.86-1-2H977.32a3.21,3.21,0,0,1-1.45-.36c-1.72-.89-2.62-1.92-2.65-3.11a1.5,1.5,0,0,1,1.58-1.49l24.84,1c.94-.88,1.45-1.82,0-3l-24.86-1a2.29,2.29,0,0,1-1.91-1.13,2.65,2.65,0,0,1-.08-3,2.21,2.21,0,0,1,1.8-1l28-1c-.93-.11.49-.95-.32-1-16-1-11-8,.47-5.78C1012.52,224.64,1021.56,228,1028.64,235.54Z"/><path id="leftHand" class="cls-11" d="M921.32,262.54c.37-5.58,3.6-8.38,11-11l11.62-4.84a1.33,1.33,0,0,1,.79-.09c4.18.76,3.26,1.72,2.1,3.61a1.13,1.13,0,0,1-.54.45l-15,5.87c-.26,1.49,0,1,1.32,1l18-7a5.24,5.24,0,0,1,3.22-.11.81.81,0,0,1-.08,1.47l-18.14,7.64c-.65.89-.17,1.53,1,2l20-7c2.12-.43,2.38.55,2,2l-20,8c-.6,1.08,0,1.63,1,2l18-7c2-.75,2,.19,1,1.54a8.31,8.31,0,0,1-2.37,2.13l-11.9,7.33c-4.36,2.6-8.31,4.67-14.16,3.14a3,3,0,0,1-1-.48C924.44,269.73,921.62,269,921.32,262.54Z"/><path id="rightArm" class="cls-10" d="M1025.64,229.54c6.09,17.76,8,33.31,4.34,45.89a.6.6,0,0,0,.76.75l54.9-17.64c13.5-3,20.38-13.37,19-33l-12.52-60.81a29.82,29.82,0,0,0-6.49-13.3c-12.87-15.1-23.27-22.58-32-24.89l1,52,16,36c2.28,6.37-1,7.89-7,7Z"/><path class="cls-13" d="M963.32,604.54c1.18,1.71,4.16,2.56,8,3"/><path class="cls-13" d="M959.32,607.54c1.95,1.63,5,2.59,9,3"/><path class="cls-13" d="M955.82,610c.42,1.72,3.82,2.61,9,3"/><path class="cls-16" d="M1019.32,611.54c0-.55.52.05,0,.1l-19,1.9c-22.65,6.75-42.92,10.3-59,8.22a.23.23,0,0,0-.06.44c9.83,4,23.75,3.21,40.95-1.41,8.69-2,16.68-3.47,22.39-3.07,5.82.08,11.24-.41,15.76-2.18Z"/><path class="cls-16" d="M1018.7,635.17c7.29,1.62,18.67-.48,31.07-3.5a5.12,5.12,0,0,0,1-.39l19.53-10,0,4.26-18.61,8.81a4.55,4.55,0,0,1-.83.3C1034,638.91,1021.66,640.12,1018.7,635.17Z"/><path class="cls-17" d="M1030.32,613.54a34.25,34.25,0,0,0,17,3"/><path class="cls-17" d="M1028.32,617.54c4.7,2.54,10.46,3.39,17,3"/><path class="cls-17" d="M1025.82,621a30.09,30.09,0,0,0,17,3"/><path id="leftShoe-2" data-name="leftShoe" class="cls-18" d="M104.38,645.74l25,9v4.91a1.52,1.52,0,0,1-1,1.44c-9.25,3.18-19.41,8.87-30,15.65-9.3,4.5-15.68,2.79-20.19-2.91a2.67,2.67,0,0,1-.5-2.36c1-3.64,3-7.08,8.69-9.73C95.08,658.21,101.58,653.21,104.38,645.74Z"/><path id="rightShoe-2" data-name="rightShoe" class="cls-18" d="M177.88,654.24c1,1.81-1.14,4.65.5,6.5,1.84,2.08,5.34,2.11,9,4s7.48,5.66,11.43,7.9c.66.38,1.72,1.05,2.36,1.47,10.62,6.91,16.56,4.88,20.74-.51a1.72,1.72,0,0,0-.29-2.38c-10.73-8.72-19.15-17.89-22.74-28Z"/><path id="neck" class="cls-19" d="M116.25,235.37l-1.76,15.87a2.49,2.49,0,0,1-2.78,2.21c-1.72-.23-3.79-.68-4.51-.84a.93.93,0,0,0-1.13.81c-2.93,21,45.79,25.2,44.32-.56a.62.62,0,0,0-.95-.5c-1.23.83-6.78,1.35-7.19,0l-3-17Z"/><path id="shirt" class="cls-20" d="M150.24,251.82c-1,24.81-42.1,23.8-43.33,1.06a.63.63,0,0,0-.66-.6c-23.59,1.33-40.62,14.71-53.37,36,0,0-4.35,24-1.26,37.23a6.12,6.12,0,0,0,10,3.11c4-3.38,7.54-1.62,10.78,3.16,9.43,10.46,13.83,22.66,12,37l-4,57c27.85,9.61,62.63,10.28,102,5l-5-83c2.39-17.54,6.4-28.82,13.21-29.29,2.27-.16,7.79-42.71,7.79-42.71a25.23,25.23,0,0,0-3.16-5.54c-7.43-9.93-22.36-15.95-44.52-18.77A.4.4,0,0,0,150.24,251.82Z"/><path id="rightHand-2" data-name="rightHand" class="cls-19" d="M67.47,401.37l23.92,4c2.72.37,2.83,4.54-1,4l-8-2c-2.32.1-1.73,2.79-1,3l11,7c3,2,4.2,5.46,0,4l-13-8c-1.24-.09-2.45.31-2.08,1.58l14,11.27.08.09c1,1.75.49,2.51-.78,2.77a1.22,1.22,0,0,1-.89-.16l-13.57-10a1.19,1.19,0,0,0-1.46.05h0a.94.94,0,0,0,0,1.41L85,429.71c.54,2.2-.72,2.55-3.11,1.74l-.09-.05L69,421.42a1.4,1.4,0,0,0-.61-.27L58,419.33a3.1,3.1,0,0,1-1.82-1.05l-2.21-2.65a2,2,0,0,1-.23-1.94c2.2-4.49,7.12-7.85,13.63-12.27A.27.27,0,0,1,67.47,401.37Z"/><path id="leftSleave" class="cls-20" d="M77.38,261.74C67,283.46,65.63,303.59,66.25,326.37c-28,16-18.56,33.41-9.87,59.37l12,15L57,417.78a.77.77,0,0,1-1.25.05c-2.43-3.23-9.23-9.08-18.65-16.5a5.44,5.44,0,0,1-1.23-1.39c-19.69-32.79-19.4-58.85-3.51-80.2C48.73,290.23,64.16,267.65,77.38,261.74Z"/><path id="pants" class="cls-21" d="M80.38,426.74c-3.48,20.52,1.25,51.26,10,87,4.18,14,4.3,29.55,1.8,46a57.72,57.72,0,0,0,.7,21c5.27,24,8.41,47.6,10.5,65l27,11-2-79-1-58,4.8-41.58a2.41,2.41,0,0,1,4.66-.51L162.78,552a12.51,12.51,0,0,0,1.28,2.72c5,7.68,4.8,18.46,3.32,30-1.81,21.39.16,44.31,9,70l25-9,2-46-5-73a378.7,378.7,0,0,0-15-96C145.18,436.15,109.66,436.88,80.38,426.74Z"/><path id="rightHand-3" data-name="rightHand" class="cls-19" d="M190.17,397.37l-23.92,4c-2.72.37-2.83,4.54,1,4l8-2c2.32.1,1.74,2.79,1,3l-11,7c-3,2-4.2,5.46,0,4l13-8c1.24-.09,2.45.31,2.09,1.58l-14,11.27-.08.09c-1,1.75-.48,2.51.78,2.77a1.21,1.21,0,0,0,.89-.16l13.57-10A1.19,1.19,0,0,1,183,415h0a.94.94,0,0,1,0,1.41l-10.35,9.33c-.54,2.2.73,2.55,3.12,1.74l.08-.05,12.83-10a1.4,1.4,0,0,1,.61-.27l10.42-1.82a3.1,3.1,0,0,0,1.82-1.05l2.21-2.65a2,2,0,0,0,.23-1.94c-2.2-4.49-7.12-7.85-13.62-12.27A.33.33,0,0,0,190.17,397.37Z"/><ellipse id="head-2" data-name="head" class="cls-19" cx="127.38" cy="210.24" rx="26" ry="34.5"/><path class="cls-13" d="M166.66,558.38c3.17-2.38,6.43-4.09,10.28-3.24"/><line class="cls-13" x1="167.38" y1="562.74" x2="174.38" y2="559.74"/><path id="rightsleave" class="cls-20" d="M181.38,259.74c10,3.32,16.73,8.95,20,17l30,43h0c13.64,15.4,7.84,41.69-3.2,70.9a10.35,10.35,0,0,1-2.39,3.69l-18.41,18.41-19-17,13-10L210.29,359c.06-.19.21-.34.27-.53,2-5.89,1.89-11.79.17-18.44-.08-.29-.4-.47-.51-.76-6.08-16.67-13.62-23.65-22.84-19.56C191.26,302.13,189.42,282.19,181.38,259.74Z"/><path class="cls-22" d="M83.75,677.87c6.22-.76,27.35-12.42,44.93-21.49a.68.68,0,0,1,1,.58c.07,1.37.29,3.57-.9,3.91-7,2-21.22,9.72-31,16C91.55,679.65,86.85,680,83.75,677.87Z"/><line class="cls-13" x1="99.75" y1="652.87" x2="104.75" y2="656.87"/><line class="cls-13" x1="101.75" y1="650.87" x2="106.75" y2="654.87"/><line class="cls-13" x1="97.25" y1="655.37" x2="102.25" y2="659.37"/><line class="cls-13" x1="94.75" y1="657.87" x2="99.25" y2="661.37"/><line class="cls-13" x1="205.38" y1="654.91" x2="200.38" y2="658.91"/><line class="cls-13" x1="203.38" y1="652.91" x2="198.38" y2="656.91"/><line class="cls-13" x1="207.88" y1="657.41" x2="202.88" y2="661.41"/><line class="cls-13" x1="209.38" y1="659.91" x2="204.88" y2="663.41"/><path class="cls-22" d="M178.09,656c15.92,9.17,32.45,18.82,39.67,21.07-6.48,2.44-14.37.53-24.5-8.3-2.23-2.21-5.94-4-10.22-5.66C178.3,662.22,176.82,659.78,178.09,656Z"/><path class="cls-23" d="M128,220.05c1-.19,4-1,3-2.6-.83-1.32-1.93-2.46-2.82-3.73-.29-.43.31-1.06.72-.72a15.11,15.11,0,0,1,2.61,2.57,4.33,4.33,0,0,1,1.48,2.84c-.11,2.26-3.18,3.32-5,3A.72.72,0,0,1,128,220.05Z"/><path d="M134.07,194.4c2.16-.56,7.33,1.14,8,3.59.27.95-5.69-.28-7,.22C132.77,199.08,131.58,195.06,134.07,194.4Z"/><path d="M118.67,199.21c-1.28-.5-7.24.73-7-.22.68-2.45,5.85-4.15,8-3.59C122.2,196.06,121,200.08,118.67,199.21Z"/><path class="cls-24" d="M135.3,202.32a2.59,2.59,0,0,1,1.41-.09c3.65.73,3.23,7,.06,8.13-1.6.56-2.34-.77-2.66-2a5.81,5.81,0,0,1-.41-1.64C133.49,205.28,133.76,202.92,135.3,202.32Z"/><path class="cls-5" d="M135.92,203.9a.79.79,0,0,1,.56-.41,2.16,2.16,0,0,1,.27-.05,1.09,1.09,0,0,1,.51.15,1.23,1.23,0,0,1,.34.27,1,1,0,0,1,.24,1.16C137.82,204,135.76,204,135.92,203.9Z"/><path class="cls-24" d="M115.76,204a2.6,2.6,0,0,1,1.41-.09c3.65.73,3.24,7,.07,8.13-1.6.56-2.35-.77-2.66-2a5.49,5.49,0,0,1-.41-1.64C114,207,114.23,204.6,115.76,204Z"/><path class="cls-23" d="M124.29,226.7c2.65.56,5.68,1.64,8-.33a.45.45,0,0,1,.64.64c-2.24,2.7-6.11,2.28-9,1.06A.71.71,0,0,1,124.29,226.7Z"/><path class="cls-23" d="M127.58,229.85a7.43,7.43,0,0,0,1.33-.08c.6-.1.85.77.25.91a2.68,2.68,0,0,1-1.68,0A.41.41,0,0,1,127.58,229.85Z"/><path class="cls-5" d="M116.33,205.67a.83.83,0,0,1,.56-.41,2.16,2.16,0,0,0,.27,0,1.13,1.13,0,0,1,.52.15,1.22,1.22,0,0,1,.33.27,1,1,0,0,1,.25,1.16C118.23,205.81,116.18,205.81,116.33,205.67Z"/><path class="cls-25" d="M129.82,182s-15.16-1.94-20.35,3.51a134.86,134.86,0,0,0-3.72,57.15s-8.16,3.71-16.57-7.67L87.83,196.3A30.85,30.85,0,0,1,102,169.14c6.34-4,14.42-5.83,23.54-.35C126.85,169.58,129.82,182,129.82,182Z"/><path d="M124.82,182s-27.06.88-15.18,55.56a29.4,29.4,0,0,1-6.43-12.37l-1.49,2.23s-7.42-12.37-8.41-24.25S107.77,155.65,124.82,182Z"/><path d="M125.1,181.87s10.46-.38,15.65,5.06c0,0,11.08,22.9,6.13,53.58,0,0,8.16,3.71,16.57-7.67l1.35-38.73A30.83,30.83,0,0,0,150.65,167c-6.34-4-15.3-4.07-24.43,1.4C124.9,169.15,125.1,181.87,125.1,181.87Z"/><path class="cls-26" d="M1006.8,36.24c17.87-3.89,32.67,5.39,38.36,30.55a8.43,8.43,0,0,1,.19,1.51c.82,17.42,5.69,31.6,16.91,40.68a1,1,0,0,1-.54,1.74c-12.1,7.52-26.36,7.68-42.06,2.93a1,1,0,0,1-.94-1.47c17.68-32.76,7.92-51.81-12.67-74.73C1005.55,36.9,1006.07,36.4,1006.8,36.24Z"/><path class="cls-26" d="M1005,35.47c-16.87-4.92-30.23,2.61-39.84,22.75-4.47,9.37-8.39,19-9,29.36-.84,15-4.74,27.36-11.62,37.26a.88.88,0,0,0,.87,1.37c15,2,28.72.74,40.16-6.25a1.76,1.76,0,0,0,1.23-2.69c-19.68-30.83-17.76-66.76,18.49-80C1006.27,36.92,1006,35.77,1005,35.47Z"/><path class="cls-27" d="M1000.17,97.75c-2.41.64-6.66-.37-7.11-3.38-.21-1.56.76-2.8,1.6-4a21.65,21.65,0,0,1,3.15-3.79c.51-.5,1.4.25,1.07.87-1,1.82-2.34,3.49-3.28,5.38-1.12,2.25,3,3,4.38,3.07A1,1,0,0,1,1000.17,97.75Z"/><path class="cls-28" d="M987.61,67.6c-1.79-.49-2.8.37-4.39,1a1.83,1.83,0,0,1-2.44-2c.59-3.37,4.74-4.74,7.71-4.28C991.91,62.88,990.87,68.46,987.61,67.6Z"/><path class="cls-28" d="M1016.24,66.54a12,12,0,0,0-2.43-.21c-1.2.12-2.49.39-3.59-.26a2.78,2.78,0,0,1-1-4.19c1-1.56,3.46-1.81,5.11-1.33a6.83,6.83,0,0,1,4,2.58A2.18,2.18,0,0,1,1016.24,66.54Z"/><path d="M990.61,78.84a7.48,7.48,0,0,1-.33,2.25c-.26,1.65-1.08,3.53-3.3,3-4.4-1.07-5.79-9.43-1-10.9a3.46,3.46,0,0,1,1.9-.07C990,73.7,990.69,76.84,990.61,78.84Z"/><path class="cls-5" d="M987.09,76.41a1.57,1.57,0,0,1-.14.91,1.15,1.15,0,0,1-.23.42,1.38,1.38,0,0,1-.94.51l-.16,0a1.23,1.23,0,0,1-1.2-.75,1.43,1.43,0,0,1,.18-1.59,1.73,1.73,0,0,1,.41-.4,1.42,1.42,0,0,1,.67-.27c.12,0,.25,0,.37,0a1.11,1.11,0,0,1,.8.48A1.28,1.28,0,0,1,987.09,76.41Z"/><path d="M1017,78.47a7.76,7.76,0,0,1-.33,2.25c-.26,1.66-1.08,3.53-3.3,3-4.4-1.08-5.79-9.44-1-10.9a3.47,3.47,0,0,1,1.9-.08C1016.44,73.34,1017.09,76.47,1017,78.47Z"/><path class="cls-5" d="M1013.49,76.05a1.57,1.57,0,0,1-.14.91,1.08,1.08,0,0,1-.24.41,1.41,1.41,0,0,1-.93.52l-.16,0a1.24,1.24,0,0,1-1.2-.75,1.41,1.41,0,0,1,.18-1.59,1.6,1.6,0,0,1,.41-.41,1.41,1.41,0,0,1,.67-.26c.12,0,.25,0,.37,0a1,1,0,0,1,.8.48A1.28,1.28,0,0,1,1013.49,76.05Z"/><path class="cls-29" d="M995.82,109c5.92.58,11.53-.4,16-7"/></g></g></svg>