<svg xmlns="http://www.w3.org/2000/svg" viewBox="0 0 1361 673.21">
	<defs>
		<style>
			.cls-1,.cls-3{fill:#e6e6e6;}.cls-18,.cls-19,.cls-2,.cls-25,.cls-34{fill:none;}.cls-2,.cls-3{stroke:#e6e6e6;stroke-width:3px;}.cls-11,.cls-12,.cls-13,.cls-14,.cls-15,.cls-16,.cls-18,.cls-19,.cls-2,.cls-20,.cls-21,.cls-22,.cls-23,.cls-24,.cls-25,.cls-26,.cls-27,.cls-28,.cls-3,.cls-30,.cls-31,.cls-32,.cls-33,.cls-34,.cls-35{stroke-miterlimit:10;}.cls-4{fill:#f2f2f2;}.cls-5{fill:#ccc;}.cls-6{font-size:48px;font-family:FrederickatheGreatest, Fredericka the Greatest;}.cls-7{letter-spacing:-0.02em;}.cls-8{letter-spacing:0em;}.cls-9{letter-spacing:-0.01em;}.cls-10{letter-spacing:-0.02em;}.cls-11,.cls-12{fill:#666;}.cls-11,.cls-12,.cls-13,.cls-14,.cls-15,.cls-16,.cls-20,.cls-21,.cls-22,.cls-23,.cls-24,.cls-26,.cls-27,.cls-28,.cls-30,.cls-31,.cls-32,.cls-33,.cls-34,.cls-35{stroke:#000;}.cls-11,.cls-14,.cls-15{stroke-width:0.99px;}.cls-12{stroke-width:0.89px;}.cls-13,.cls-14{fill:#999;}.cls-13{stroke-width:1px;}.cls-15{fill:#b3b3b3;}.cls-16,.cls-29{fill:#fff;}.cls-16{stroke-width:1.27px;}.cls-17,.cls-33,.cls-35{fill:#333;}.cls-18,.cls-19{stroke:#333;stroke-width:0.75px;}.cls-19{fill-rule:evenodd;}.cls-20{fill:#cc813d;}.cls-20,.cls-21,.cls-23,.cls-24,.cls-26,.cls-27,.cls-28{stroke-width:0.09px;}.cls-21{fill:#e3ded7;}.cls-22{fill:#ac5500;stroke-width:0.19px;}.cls-23{fill:#6e2800;}.cls-24{fill:#a35c43;}.cls-25{stroke:#763b25;stroke-width:0.37px;}.cls-26{fill:#7c361f;}.cls-27{fill:#70220b;}.cls-28{fill:#74251b;}.cls-30{fill:#4d4d4d;}.cls-31{fill:#ecc19c;}.cls-32{fill:#7ac943;}.cls-35{stroke-width:0.25px;}.cls-36{fill:#3d342e;}.cls-37{fill:#d39271;}.cls-38{fill:#72594b;}.cls-39{fill:#8c715d;}
		</style>
	</defs>
	<title>
		page_2
	</title>
	<g id="Layer_2" data-name="Layer 2">
		<g id="Layer_2-2" data-name="Layer 2">
			<g id="background">
				<rect class="cls-1" x="525" y="251.65" width="836" height="24" />
				<path class="cls-1" d="M1207,249.65h-40.49c-1.43,0-2.39-1.92-1.8-3.61,8.16-23.2,16.51-45.12,12.68-65.26-.3-1.59.64-3.13,1.92-3.13h14.49c1.23,0,2.14,1.42,1.94,3-2.72,21.05,4.79,42.93,13,65.37C1209.43,247.69,1208.47,249.65,1207,249.65Z" />
				<path class="cls-1" d="M689,249.65H648.53a1.8,1.8,0,0,1-1.8-2.51c8.16-16.11,16.51-31.33,12.68-45.31a1.82,1.82,0,0,1,1.92-2.18h14.49a1.84,1.84,0,0,1,1.94,2.07c-2.72,14.62,4.79,29.81,13,45.39A1.8,1.8,0,0,1,689,249.65Z" />
				<circle class="cls-1" cx="668.5" cy="153.15" r="22.5" />
				<path class="cls-2" d="M640,152.65c0-38.71,58-38.71,58,0" />
				<path class="cls-1" d="M662,162.65h12c-1.43,9.3-4.88,17.95-3,25h-6C667,181.65,664.16,172.33,662,162.65Z" />
				<line class="cls-2" x1="740" y1="152.65" x2="669" y2="152.65" />
				<line class="cls-2" x1="738.5" y1="151.65" x2="738.5" y2="234.65" />
				<rect class="cls-3" x="725.5" y="234.15" width="26" height="15" />
				<path class="cls-1" d="M1034,187.65H1042a1,1,0,0,1,1,1v50a5,5,0,0,1-5,5h0a5,5,0,0,1-5-5v-50A1,1,0,0,1,1034,187.65Z" />
				<path class="cls-1" d="M1048,187.65H1056a1,1,0,0,1,1,1v50a5,5,0,0,1-5,5h0a5,5,0,0,1-5-5v-50a1,1,0,0,1,1-1Z" />
				<path class="cls-1" d="M1062,187.65H1070a1,1,0,0,1,1,1v50a5,5,0,0,1-5,5h0a5,5,0,0,1-5-5v-50a1,1,0,0,1,1-1Z" />
				<path class="cls-1" d="M1076,187.65H1084a1,1,0,0,1,1,1v50a5,5,0,0,1-5,5h0a5,5,0,0,1-5-5v-50A1,1,0,0,1,1076,187.65Z" />
				<path class="cls-1" d="M1090,187.65H1098a1,1,0,0,1,1,1v50a5,5,0,0,1-5,5h0a5,5,0,0,1-5-5v-50A1,1,0,0,1,1090,187.65Z" />
				<line class="cls-2" x1="1014" y1="197.65" x2="1119" y2="197.65" />
				<line class="cls-2" x1="1020.5" y1="197.15" x2="1020.5" y2="247.15" />
				<line class="cls-2" x1="1111.5" y1="197.65" x2="1111.5" y2="247.65" />
				<rect class="cls-1" x="1014.5" y="245.15" width="103" height="5" />
				<rect class="cls-1" y="2.65" width="397" height="607" />
				<rect class="cls-4" x="14" y="17.21" width="84" height="576.65" />
				<rect class="cls-4" x="110" y="17.21" width="84" height="576.65" />
				<rect class="cls-4" x="206" y="17.21" width="84" height="576.65" />
				<rect class="cls-4" x="301" y="17.21" width="84" height="576.65" />
				<rect class="cls-1" x="65.18" y="299.02" width="25" height="35" />
				<rect class="cls-5" x="68.68" y="313.02" width="5.14" height="5.14" />
				<rect class="cls-5" x="75.11" y="313.02" width="5.14" height="5.14" />
				<rect class="cls-5" x="81.53" y="313.02" width="5.14" height="5.14" />
				<rect class="cls-5" x="81.53" y="319.45" width="5.14" height="5.14" />
				<rect class="cls-5" x="75.11" y="319.45" width="5.14" height="5.14" />
				<rect class="cls-5" x="68.68" y="319.45" width="5.14" height="5.14" />
				<rect class="cls-5" x="68.68" y="325.88" width="5.14" height="5.14" />
				<rect class="cls-5" x="75.11" y="325.88" width="5.14" height="5.14" />
				<rect class="cls-5" x="81.53" y="325.88" width="5.14" height="5.14" />
				<rect class="cls-5" x="68.18" y="302.02" width="19" height="9" />
			</g>
			<text class="cls-6" transform="translate(34.99 41.99)">
				<tspan xml:space="preserve">
					Myth #1 -  Clinical Trial particip
				</tspan>
				<tspan class="cls-7" x="734.33" y="0">
					a
				</tspan>
				<tspan class="cls-8" x="760.3" y="0">
					nts
				</tspan>
				<tspan x="0" y="57.6">
					are
				</tspan>
				<tspan class="cls-9" x="88.89" y="57.6">
					h
				</tspan>
				<tspan class="cls-8" x="116.16" y="57.6">
					um
				</tspan>
				<tspan class="cls-10" x="182.92" y="57.6">
					a
				</tspan>
				<tspan x="208.89" y="57.6">
					n guinea pigs
				</tspan>
			</text>
			<g id="table">
				<path id="frontRight" class="cls-11" d="M1215.21,530.72c-3.53,1.66-7.17,2.89-11.89-.15l2.5-197.28,11.91-.84Z" />
				<path id="backRight" class="cls-11" d="M1131.22,439.1c-2.49,3.53-6.86,2.43-11.89-.28l2.14-95.25,12.06-1.57Z" />
				<path id="backLeft" class="cls-12" d="M685.7,563.69c-2.44,3.34-5.58,5.29-11.91.84l-.2-211.2,11.79,8.09Z" />
				<g id="topTable">
					<polygon class="cls-1" points="646.24 322.52 1121.03 277.3 1248.46 316.84 726.75 373.5 646.24 322.52" />
					<path d="M1121,277.8l125,38.81L726.87,373l-79.14-50.11L1121,277.8m.1-1L644.75,322.16,726.63,374l524.26-56.94L1121.08,276.8Z" />
				</g>
				<g id="bottomTable">
					<path class="cls-5" d="M749,557.3a17.34,17.34,0,0,0-10.38-3.81,16.64,16.64,0,0,0-7.58,1.94l-52-49.24c1-.45,1.89-.78,2.73-1.09,2.42-.87,4.53-1.63,4.23-4.26l433-62a15,15,0,0,0,6.78,1.86,10.49,10.49,0,0,0,6.39-2.2L1206,474.28a8,8,0,0,0,3,7.51Z" />
					<path d="M1132.24,439.1l73.18,35.47a8.16,8.16,0,0,0,2.48,6.89L749.1,556.78A17.71,17.71,0,0,0,738.6,553a17,17,0,0,0-7.49,1.84l-51.2-48.49c.71-.3,1.39-.54,2-.77,2.28-.82,4.63-1.67,4.59-4.3l432.42-61.89a15.3,15.3,0,0,0,6.86,1.83,11,11,0,0,0,6.44-2.11m-.11-1.16a10,10,0,0,1-6.33,2.28,14.57,14.57,0,0,1-6.69-1.87l-433.7,62.07c.8,3.68-3,3.47-7.25,5.63l52.77,50a16.35,16.35,0,0,1,7.67-2,16.89,16.89,0,0,1,10.25,3.84l461.3-75.73c-3.18-2.35-4.23-5.07-3.64-8.1l-74.38-36.06Z" />
				</g>
				<polygon id="frontBottomEdge" class="cls-13" points="1210.23 491.53 745.8 570.1 745.55 557.27 1210.63 482.62 1210.23 491.53" />
				<polygon id="sideBottom" class="cls-14" points="679.63 506.61 678.11 518.46 732.78 566.77 732.78 556.77 679.63 506.61" />
				<path id="frontLeft" class="cls-11" d="M747,622.78c-3.94,3.41-8.29,3.7-12.89,2l-3.59-237,13.89-2Z" />
				<polygon id="topEdge" class="cls-15" points="644.24 322.65 643.89 335.53 729.68 389.47 1249.09 328.43 1250.38 317.56 726.12 374.5 644.24 322.65" />
			</g>
			<g id="cageRight">
				<path class="cls-16" d="M941.78,304.77,1076.57,292a.25.25,0,0,1,.12,0l57.87,23.9a.25.25,0,0,1-.06.48L994,333.36a.2.2,0,0,1-.15,0l-51.44-27.8C942.05,305.31,941.33,304.82,941.78,304.77Z" />
				<path class="cls-17" d="M940.16,216.53l.17.09L994,244.75l.2.1.22,0,139.82-14,1.26,85.45L994.1,332.6,941.42,305l-1.26-88.46m-.43-.89c-.19,0-.33.08-.33.31l1.28,89.5L994,333.37,1136.29,317,1135,230,994.37,244.08,940.68,216a2.46,2.46,0,0,0-.95-.31Z" />
				<line class="cls-18" x1="995.01" y1="332.94" x2="993.74" y2="244.08" />
				<path class="cls-19" d="M1134,230.81,993.74,244.72,940,216.59c-.33-.17-.37-1.24,0-1.28l129.13-12.78L1134.09,230A.42.42,0,0,1,1134,230.81Z" />
				<g id="guineaPig">
					<ellipse class="cls-20" cx="1048.18" cy="311.1" rx="2.42" ry="4.84" transform="translate(518.11 1267.39) rotate(-77.53)" />
					<ellipse class="cls-20" cx="1030.31" cy="305.14" rx="2.42" ry="4.84" transform="translate(509.92 1245.27) rotate(-77.53)" />
					<ellipse class="cls-20" cx="1067.91" cy="311.1" rx="2.42" ry="4.84" transform="translate(533.58 1286.65) rotate(-77.53)" />
					<path id="body" class="cls-20" d="M1048.92,270.71l-21.31,2a5.66,5.66,0,0,1-.92,0c-9.42-.7-10.48,7-8.92,17.46a3.69,3.69,0,0,0,.25.86,37.53,37.53,0,0,0,7.57,11.06,1.65,1.65,0,0,0,1,.47c4.3.4,14.55,4.56,24.6,9.09C1029.81,302.59,1032.08,282.69,1048.92,270.71Z" />
					<path id="head" class="cls-21" d="M1065.3,274.57c-11-8.1-19.36-5.42-25.87,5.26-6.51,12.15-7,22.31,4.1,28.66,9.74,5.41,19.53,6.53,29.4-2.23,5.56-5.22-.67-18.32-6.76-30.64A2.86,2.86,0,0,0,1065.3,274.57Z" />
					<path id="leftPatch" class="cls-22" d="M1059.05,278.06l.8.65a5.65,5.65,0,0,0,.51.34,2.59,2.59,0,0,1,1.25,3.42,3.48,3.48,0,0,1-.86,1.29c-1,1.06-1.21,2.59-.75,4.47a2.83,2.83,0,0,1,.1.71c0,2.29-.68,4-2,5.08a2.15,2.15,0,0,0-.35.32,4.45,4.45,0,0,0-1.11,4.67.58.58,0,0,1-.16.63c-1.44,1.26-2.54,2.73-2,5.18a2.12,2.12,0,0,1-.3,1.63c-.76,1.08-2.38,1.19-4.44.81a1.66,1.66,0,0,0-.7,0c-3.06.73-4.78-1.74-6.35-4.57-2.86-5.3-3.52-9.39.15-11.07a1.41,1.41,0,0,1,.46-.11c1-.11,1.54-.53,1.08-1.48a1.27,1.27,0,0,1-.06-.88l.27-1a.6.6,0,0,1,.68-.44c5.07.89,5.4-2.27,5.58-5.74a1.73,1.73,0,0,0-.21-.92c-2.8-5,.19-5.77,6.64-4A5.3,5.3,0,0,1,1059.05,278.06Z" />
					<path id="leftEye" d="M1055,288.67c-1,2.82.21,3.67,2.53,3.46a.22.22,0,0,0,.2-.19c.79-4.54,0-5.9-2.42-3.74A1.08,1.08,0,0,0,1055,288.67Z" />
					<path id="rightEar" class="cls-23" d="M1066.44,276.09c-1,1.73-.4,3.61,1.28,5.6a13.63,13.63,0,0,1,1.87,6.63,1.47,1.47,0,0,0,.23.82l2.53,4.12a1.42,1.42,0,0,0,.57.52l.56.28a.25.25,0,0,0,.36-.31l-2.39-6.85a3.68,3.68,0,0,1,.37-3.35,5.76,5.76,0,0,0,1.11-4.46c2.16-3.62,2.28-5.71-2.6-4.1l-2.58.29A1.75,1.75,0,0,0,1066.44,276.09Z" />
					<path id="rightEye" d="M1070,287.28a3,3,0,0,1,1.49,3.72C1070,289.79,1069.58,288.54,1070,287.28Z" />
					<path id="leftEar" class="cls-24" d="M1049.67,278.9c-2.18-4-4.67-3.34-6.52-.93-4.41,2.43-3.84,6,.94,9.49C1049.67,290.81,1053.39,283.74,1049.67,278.9Z" />
					<path class="cls-25" d="M1067,305.14l-.7,2.66a.73.73,0,0,1-.35.53c-.94.56-2.14.61-3.79-.21" />
					<path class="cls-26" d="M1064.34,300.47a20.8,20.8,0,0,0,5.46,0,.93.93,0,0,1,1,1.16,5.2,5.2,0,0,1-3.55,3.76.71.71,0,0,1-.57-.05,5.91,5.91,0,0,1-3.2-3.92A.78.78,0,0,1,1064.34,300.47Z" />
					<path class="cls-27" d="M1069.73,301.84a1.14,1.14,0,0,0-.87,1.16.21.21,0,0,0,.27.23A1.1,1.1,0,0,0,1070,302,.18.18,0,0,0,1069.73,301.84Z" />
					<path class="cls-28" d="M1064.35,301.78a1.38,1.38,0,0,0,1.34,1.46.39.39,0,0,0,.45-.47c-.2-.86-.66-1.33-1.4-1.36A.37.37,0,0,0,1064.35,301.78Z" />
					<path class="cls-29" d="M1055.07,289.51l.37.37a1.26,1.26,0,0,1,.59-.67.18.18,0,0,0,.08-.23h0a.48.48,0,0,0-.83-.05,1.68,1.68,0,0,0-.21.58" />
				</g>
				<path class="cls-18" d="M1125.1,317.59" />
				<path class="cls-18" d="M1125.14,305.36" />
				<path class="cls-18" d="M1125.19,293.12" />
				<path class="cls-18" d="M1125.24,280.88" />
				<path class="cls-18" d="M1125.28,268.65" />
				<path class="cls-18" d="M1125.33,256.41" />
				<path class="cls-18" d="M1125.37,244.17" />
				<path class="cls-18" d="M1125.42,231.94" />
				<path class="cls-18" d="M1108.07,246.18" />
				<path class="cls-18" d="M1090.72,260.43" />
				<path class="cls-18" d="M1073.37,274.67" />
				<path class="cls-18" d="M1056,288.92" />
				<path class="cls-18" d="M1038.66,303.16" />
				<path class="cls-18" d="M1021.31,317.41" />
				<path class="cls-18" d="M1004,331.66" />
				<path class="cls-18" d="M1004,319" />
				<path class="cls-18" d="M1004,306.27" />
				<path class="cls-18" d="M1004,293.58" />
				<path class="cls-18" d="M1004,280.88" />
				<path class="cls-18" d="M1004,268.19" />
				<path class="cls-18" d="M1004,255.5" />
				<path class="cls-18" d="M1004,242.8" />
				<line class="cls-18" x1="979.67" y1="237.69" x2="980.78" y2="326.27" />
				<line class="cls-18" x1="965.61" y1="230.02" x2="966.8" y2="318.42" />
				<line class="cls-18" x1="951.55" y1="222.35" x2="952.82" y2="310.56" />
				<line class="cls-18" x1="979.67" y1="237.05" x2="1117.75" y2="222.99" />
				<line class="cls-18" x1="965.93" y1="229.7" x2="1101.13" y2="215.95" />
				<line class="cls-18" x1="952.18" y1="222.35" x2="1084.51" y2="208.92" />
				<line class="cls-18" x1="1052.55" y1="203.81" x2="1114.3" y2="232.4" />
				<line class="cls-18" x1="1034.21" y1="205.64" x2="1094.86" y2="234.39" />
				<line class="cls-18" x1="1015.88" y1="207.47" x2="1075.43" y2="236.38" />
				<line class="cls-18" x1="997.55" y1="209.3" x2="1056" y2="238.38" />
				<line class="cls-18" x1="979.22" y1="211.12" x2="1036.57" y2="240.37" />
				<line class="cls-18" x1="960.89" y1="212.95" x2="1017.14" y2="242.36" />
				<line class="cls-18" x1="940.04" y1="238.33" x2="993.74" y2="265.18" />
				<line class="cls-18" x1="940.41" y1="263.05" x2="994.37" y2="290.11" />
				<line class="cls-18" x1="940.78" y1="287.77" x2="995.01" y2="315.04" />
				<line class="cls-18" x1="993.32" y1="264.9" x2="1134.78" y2="250.77" />
				<line class="cls-18" x1="993.86" y1="290.03" x2="1135.28" y2="275.77" />
				<line class="cls-18" x1="994.39" y1="315.16" x2="1135.78" y2="300.77" />
				<line class="cls-18" x1="1017.4" y1="242.15" x2="1018.78" y2="330.27" />
				<line class="cls-18" x1="1036.84" y1="240.1" x2="1038.19" y2="328" />
				<line class="cls-18" x1="1056.27" y1="238.06" x2="1057.59" y2="325.72" />
				<line class="cls-18" x1="1075.7" y1="236.01" x2="1077" y2="323.44" />
				<line class="cls-18" x1="1095.14" y1="233.97" x2="1096.41" y2="321.16" />
				<line class="cls-18" x1="1114.57" y1="231.92" x2="1115.81" y2="318.89" />
			</g>
			<g id="cageRight-2" data-name="cageRight">
				<path class="cls-16" d="M729.78,328.77,864.57,316a.25.25,0,0,1,.12,0L922.56,340a.25.25,0,0,1-.06.48L782,357.36a.2.2,0,0,1-.15,0l-51.44-27.8C730.05,329.31,729.33,328.82,729.78,328.77Z" />
				<path class="cls-17" d="M728.16,240.53l.17.09L782,268.75l.2.1.22,0,139.82-14,1.26,85.45L782.1,356.6,729.42,329l-1.26-88.46m-.43-.89c-.19,0-.33.08-.33.31l1.28,89.5L782,357.37,924.29,341,923,254,782.37,268.08,728.68,240a2.46,2.46,0,0,0-.95-.31Z" />
				<line class="cls-18" x1="783.01" y1="356.94" x2="781.74" y2="268.08" />
				<path class="cls-19" d="M922,254.81,781.74,268.72,728,240.59c-.33-.17-.37-1.24,0-1.28l129.13-12.78L922.09,254A.42.42,0,0,1,922,254.81Z" />
				<g id="guineaPig-2" data-name="guineaPig">
					<ellipse class="cls-20" cx="836.18" cy="335.1" rx="2.42" ry="4.84" transform="translate(328.45 1079.21) rotate(-77.53)" />
					<ellipse class="cls-20" cx="818.31" cy="329.14" rx="2.42" ry="4.84" transform="translate(320.25 1057.09) rotate(-77.53)" />
					<ellipse class="cls-20" cx="855.91" cy="335.1" rx="2.42" ry="4.84" transform="translate(343.92 1098.47) rotate(-77.53)" />
					<path id="body-2" data-name="body" class="cls-20" d="M836.92,294.71l-21.31,2a5.66,5.66,0,0,1-.92,0c-9.42-.7-10.48,7-8.92,17.46a3.69,3.69,0,0,0,.25.86,37.53,37.53,0,0,0,7.57,11.06,1.65,1.65,0,0,0,1,.47c4.3.4,14.55,4.56,24.6,9.09C817.81,326.59,820.08,306.69,836.92,294.71Z" />
					<path id="head-2" data-name="head" class="cls-21" d="M853.3,298.57c-11-8.1-19.36-5.42-25.87,5.26-6.51,12.15-7,22.31,4.1,28.66,9.74,5.41,19.53,6.53,29.4-2.23,5.56-5.22-.67-18.32-6.76-30.64A2.86,2.86,0,0,0,853.3,298.57Z" />
					<path id="leftPatch-2" data-name="leftPatch" class="cls-22" d="M847.05,302.06l.8.65a5.65,5.65,0,0,0,.51.34,2.59,2.59,0,0,1,1.25,3.42,3.48,3.48,0,0,1-.86,1.29c-1,1.06-1.21,2.59-.75,4.47a2.83,2.83,0,0,1,.1.71c0,2.29-.68,4-2.05,5.08a2.15,2.15,0,0,0-.35.32,4.45,4.45,0,0,0-1.11,4.67.58.58,0,0,1-.16.63c-1.44,1.26-2.54,2.73-2,5.18a2.12,2.12,0,0,1-.3,1.63c-.76,1.08-2.38,1.19-4.44.81a1.66,1.66,0,0,0-.7,0c-3.06.73-4.78-1.74-6.35-4.57-2.86-5.3-3.52-9.39.15-11.07a1.41,1.41,0,0,1,.46-.11c1-.11,1.54-.53,1.08-1.48a1.27,1.27,0,0,1-.06-.88l.27-1a.6.6,0,0,1,.68-.44c5.07.89,5.4-2.27,5.58-5.74a1.73,1.73,0,0,0-.21-.92c-2.8-5,.19-5.77,6.64-4A5.3,5.3,0,0,1,847.05,302.06Z" />
					<path id="leftEye-2" data-name="leftEye" d="M843,312.67c-1,2.82.21,3.67,2.53,3.46a.22.22,0,0,0,.2-.19c.79-4.54,0-5.9-2.42-3.74A1.08,1.08,0,0,0,843,312.67Z" />
					<path id="rightEar-2" data-name="rightEar" class="cls-23" d="M854.44,300.09c-1,1.73-.4,3.61,1.28,5.6a13.63,13.63,0,0,1,1.87,6.63,1.47,1.47,0,0,0,.23.82l2.53,4.12a1.42,1.42,0,0,0,.57.52l.56.28a.25.25,0,0,0,.36-.31l-2.39-6.85a3.68,3.68,0,0,1,.37-3.35,5.76,5.76,0,0,0,1.11-4.46c2.16-3.62,2.28-5.71-2.6-4.1l-2.58.29A1.75,1.75,0,0,0,854.44,300.09Z" />
					<path id="rightEye-2" data-name="rightEye" d="M858,311.28a3,3,0,0,1,1.49,3.72C858,313.79,857.58,312.54,858,311.28Z" />
					<path id="leftEar-2" data-name="leftEar" class="cls-24" d="M837.67,302.9c-2.18-4-4.67-3.34-6.52-.93-4.41,2.43-3.84,6,.94,9.49C837.67,314.81,841.39,307.74,837.67,302.9Z" />
					<path class="cls-25" d="M855,329.14l-.7,2.66a.73.73,0,0,1-.35.53c-.94.56-2.14.61-3.79-.21" />
					<path class="cls-26" d="M852.34,324.47a20.8,20.8,0,0,0,5.46,0,.93.93,0,0,1,1,1.16,5.2,5.2,0,0,1-3.55,3.76.71.71,0,0,1-.57-.05,5.91,5.91,0,0,1-3.2-3.92A.78.78,0,0,1,852.34,324.47Z" />
					<path class="cls-27" d="M857.73,325.84a1.14,1.14,0,0,0-.87,1.16.21.21,0,0,0,.27.23A1.1,1.1,0,0,0,858,326,.18.18,0,0,0,857.73,325.84Z" />
					<path class="cls-28" d="M852.35,325.78a1.38,1.38,0,0,0,1.34,1.46.39.39,0,0,0,.45-.47c-.2-.86-.66-1.33-1.4-1.36A.37.37,0,0,0,852.35,325.78Z" />
					<path class="cls-29" d="M843.07,313.51l.37.37a1.26,1.26,0,0,1,.59-.67.18.18,0,0,0,.08-.23h0a.48.48,0,0,0-.83-.05,1.68,1.68,0,0,0-.21.58" />
				</g>
				<path class="cls-18" d="M913.1,341.59" />
				<path class="cls-18" d="M913.14,329.36" />
				<path class="cls-18" d="M913.19,317.12" />
				<path class="cls-18" d="M913.24,304.88" />
				<path class="cls-18" d="M913.28,292.65" />
				<path class="cls-18" d="M913.33,280.41" />
				<path class="cls-18" d="M913.37,268.17" />
				<path class="cls-18" d="M913.42,255.94" />
				<path class="cls-18" d="M896.07,270.18" />
				<path class="cls-18" d="M878.72,284.43" />
				<path class="cls-18" d="M861.37,298.67" />
				<path class="cls-18" d="M844,312.92" />
				<path class="cls-18" d="M826.66,327.16" />
				<path class="cls-18" d="M809.31,341.41" />
				<path class="cls-18" d="M792,355.66" />
				<path class="cls-18" d="M792,343" />
				<path class="cls-18" d="M792,330.27" />
				<path class="cls-18" d="M792,317.58" />
				<path class="cls-18" d="M792,304.88" />
				<path class="cls-18" d="M792,292.19" />
				<path class="cls-18" d="M792,279.5" />
				<path class="cls-18" d="M792,266.8" />
				<line class="cls-18" x1="767.67" y1="261.69" x2="768.78" y2="350.27" />
				<line class="cls-18" x1="753.61" y1="254.02" x2="754.8" y2="342.42" />
				<line class="cls-18" x1="739.55" y1="246.35" x2="740.82" y2="334.56" />
				<line class="cls-18" x1="767.67" y1="261.05" x2="905.75" y2="246.99" />
				<line class="cls-18" x1="753.93" y1="253.7" x2="889.13" y2="239.95" />
				<line class="cls-18" x1="740.18" y1="246.35" x2="872.51" y2="232.92" />
				<line class="cls-18" x1="840.55" y1="227.81" x2="902.3" y2="256.4" />
				<line class="cls-18" x1="822.21" y1="229.64" x2="882.86" y2="258.39" />
				<line class="cls-18" x1="803.88" y1="231.47" x2="863.43" y2="260.38" />
				<line class="cls-18" x1="785.55" y1="233.3" x2="844" y2="262.38" />
				<line class="cls-18" x1="767.22" y1="235.12" x2="824.57" y2="264.37" />
				<line class="cls-18" x1="748.89" y1="236.95" x2="805.14" y2="266.36" />
				<line class="cls-18" x1="728.04" y1="262.33" x2="781.74" y2="289.18" />
				<line class="cls-18" x1="728.41" y1="287.05" x2="782.37" y2="314.11" />
				<line class="cls-18" x1="728.78" y1="311.77" x2="783.01" y2="339.04" />
				<line class="cls-18" x1="781.32" y1="288.9" x2="922.78" y2="274.77" />
				<line class="cls-18" x1="781.86" y1="314.03" x2="923.28" y2="299.77" />
				<line class="cls-18" x1="782.39" y1="339.16" x2="923.78" y2="324.77" />
				<line class="cls-18" x1="805.4" y1="266.15" x2="806.78" y2="354.27" />
				<line class="cls-18" x1="824.84" y1="264.1" x2="826.19" y2="352" />
				<line class="cls-18" x1="844.27" y1="262.06" x2="845.59" y2="349.72" />
				<line class="cls-18" x1="863.7" y1="260.01" x2="865" y2="347.44" />
				<line class="cls-18" x1="883.14" y1="257.97" x2="884.41" y2="345.16" />
				<line class="cls-18" x1="902.57" y1="255.92" x2="903.81" y2="342.89" />
			</g>
			<path id="leftShoe" class="cls-30" d="M113.91,639.15l25,9v4.9a1.54,1.54,0,0,1-1,1.45c-9.25,3.18-19.41,8.87-30,15.65-9.3,4.5-15.68,2.79-20.2-2.91a2.71,2.71,0,0,1-.49-2.36c1-3.65,3-7.08,8.69-9.73C104.61,651.62,111.11,646.62,113.91,639.15Z" />
			<path id="rightShoe" class="cls-30" d="M187.41,647.65c1,1.8-1.14,4.65.5,6.5,1.84,2.08,5.33,2.1,9,4s7.48,5.66,11.42,7.9c.67.37,1.72,1.05,2.36,1.46,10.63,6.92,16.57,4.88,20.75-.5a1.72,1.72,0,0,0-.3-2.38c-10.72-8.73-19.14-17.89-22.73-28Z" />
			<path id="neck" class="cls-31" d="M125.78,228.77,124,244.65a2.49,2.49,0,0,1-2.79,2.2c-1.71-.23-3.78-.67-4.5-.84a1,1,0,0,0-1.14.81c-2.93,21,45.79,25.21,44.33-.55a.62.62,0,0,0-.95-.5c-1.23.82-6.78,1.35-7.19,0l-3-17Z" />
			<path id="shirt" class="cls-32" d="M159.77,245.22c-1,24.81-42.1,23.81-43.34,1.06a.63.63,0,0,0-.65-.6c-23.59,1.33-40.62,14.71-53.37,36,0,0-4.35,24-1.26,37.23a6.11,6.11,0,0,0,10,3.11c4-3.38,7.55-1.62,10.79,3.16,9.42,10.46,13.83,22.65,12,37l-4,57c27.85,9.61,62.62,10.27,102,5l-5-83c2.39-17.55,6.4-28.82,13.21-29.29,2.27-.16,7.79-42.71,7.79-42.71a25.4,25.4,0,0,0-3.16-5.54c-7.43-9.94-22.37-16-44.52-18.78A.41.41,0,0,0,159.77,245.22Z" />
			<path id="rightHand" class="cls-31" d="M77,394.77l23.91,4c2.73.38,2.83,4.54-1,4l-8-2c-2.31.1-1.73,2.79-1,3l11,7c3,2,4.21,5.46,0,4l-13-8c-1.24-.09-2.44.31-2.08,1.59l14,11.27a.34.34,0,0,1,.08.09c1,1.75.48,2.5-.78,2.77a1.21,1.21,0,0,1-.89-.17l-13.58-10a1.16,1.16,0,0,0-1.45.05h0a.93.93,0,0,0,0,1.4l10.35,9.33c.54,2.21-.73,2.56-3.12,1.74l-.09-.05-12.82-10a1.38,1.38,0,0,0-.61-.26l-10.42-1.83a3,3,0,0,1-1.82-1.05L63.45,409a2,2,0,0,1-.23-1.94c2.2-4.5,7.12-7.85,13.62-12.28A.3.3,0,0,1,77,394.77Z" />
			<path id="leftSleave" class="cls-32" d="M86.91,255.15C76.56,276.87,75.16,297,75.78,319.77c-28,16-18.56,33.41-9.87,59.38l12,15-11.36,17a.76.76,0,0,1-1.25,0c-2.43-3.22-9.24-9.08-18.65-16.5a5.11,5.11,0,0,1-1.23-1.39c-19.7-32.78-19.41-58.85-3.51-80.19C58.25,283.64,73.68,261.05,86.91,255.15Z" />
			<path id="pants" class="cls-33" d="M89.91,420.15c-3.48,20.51,1.25,51.25,10,87,4.18,14,4.29,29.54,1.8,46a57.49,57.49,0,0,0,.7,21c5.27,24,8.4,47.6,10.5,65l27,11-2-79-1-58,4.8-41.58a2.4,2.4,0,0,1,4.65-.52l25.94,74.36a12.33,12.33,0,0,0,1.29,2.72c5,7.69,4.79,18.46,3.32,30-1.82,21.39.16,44.3,9,70l25-9,2-46-5-73a379.08,379.08,0,0,0-15-96C154.71,429.55,119.19,430.29,89.91,420.15Z" />
			<path id="rightHand-2" data-name="rightHand" class="cls-31" d="M199.69,390.77l-23.91,4c-2.72.38-2.83,4.54,1,4l8-2c2.32.1,1.73,2.79,1,3l-11,7c-3,2-4.2,5.46,0,4l13-8c1.24-.09,2.44.31,2.08,1.59l-14,11.27-.07.09c-1,1.75-.49,2.5.78,2.77a1.19,1.19,0,0,0,.88-.17l13.58-10a1.17,1.17,0,0,1,1.46.05h0a.93.93,0,0,1,0,1.4l-10.36,9.33c-.53,2.21.73,2.56,3.12,1.74l.09-.05,12.83-10a1.33,1.33,0,0,1,.61-.26l10.42-1.83a3,3,0,0,0,1.82-1.05l2.21-2.64a2,2,0,0,0,.23-1.94c-2.2-4.5-7.12-7.85-13.63-12.28A.28.28,0,0,0,199.69,390.77Z" />
			<ellipse id="head-3" data-name="head" class="cls-31" cx="136.91" cy="203.65" rx="26" ry="34.5" />
			<path class="cls-34" d="M176.19,551.78c3.16-2.37,6.43-4.08,10.27-3.24" />
			<line class="cls-34" x1="176.91" y1="556.15" x2="183.91" y2="553.15" />
			<path id="rightsleave" class="cls-32" d="M190.91,253.15c10,3.32,16.73,8.94,20,17l30,43h0c13.64,15.4,7.83,41.68-3.2,70.89a10.39,10.39,0,0,1-2.39,3.7l-18.41,18.41-19-17,13-10,8.9-26.72c.07-.19.21-.34.28-.52,2-5.89,1.88-11.79.16-18.44-.07-.3-.4-.48-.5-.76-6.08-16.67-13.62-23.66-22.84-19.56C200.79,295.53,198.94,275.6,190.91,253.15Z" />
			<path class="cls-35" d="M93.28,671.27c6.22-.76,27.35-12.42,44.92-21.48a.68.68,0,0,1,1,.58c.07,1.37.29,3.57-.9,3.9-7,2-21.22,9.73-31,16C101.08,673.05,96.38,673.44,93.28,671.27Z" />
			<line class="cls-34" x1="109.28" y1="646.27" x2="114.28" y2="650.27" />
			<line class="cls-34" x1="111.28" y1="644.27" x2="116.28" y2="648.27" />
			<line class="cls-34" x1="106.78" y1="648.77" x2="111.78" y2="652.77" />
			<line class="cls-34" x1="104.28" y1="651.27" x2="108.78" y2="654.77" />
			<line class="cls-34" x1="214.9" y1="648.31" x2="209.9" y2="652.31" />
			<line class="cls-34" x1="212.9" y1="646.31" x2="207.9" y2="650.31" />
			<line class="cls-34" x1="217.4" y1="650.81" x2="212.4" y2="654.81" />
			<line class="cls-34" x1="218.9" y1="653.31" x2="214.4" y2="656.81" />
			<path class="cls-35" d="M187.62,649.43c15.92,9.17,32.45,18.82,39.66,21.07-6.47,2.44-14.36.53-24.5-8.3-2.22-2.22-5.93-4-10.21-5.67C187.83,655.63,186.35,653.18,187.62,649.43Z" />
			<path class="cls-29" d="M140.82,207.92c.13-.41,5-6.22,13.11-2.44l-.79,1.05a8.54,8.54,0,0,1-12.32,1.39Z" />
			<path class="cls-36" d="M140,204a12.28,12.28,0,0,1,14.71.09l.6-3.16S145,195.71,140,204Z" />
			<circle class="cls-36" cx="147.45" cy="207.37" r="2.76" transform="translate(-88.25 303.23) rotate(-76.72)" />
			<path class="cls-29" d="M150.69,206.7a.9.9,0,1,1-.9-.9A.9.9,0,0,1,150.69,206.7Z" />
			<path class="cls-29" d="M132,207.69c-.13-.4-5-6.22-13.11-2.43l.79,1A8.53,8.53,0,0,0,132,207.69Z" />
			<path class="cls-36" d="M132.85,203.76a12.28,12.28,0,0,0-14.71.09l-.6-3.16S127.78,195.48,132.85,203.76Z" />
			<circle class="cls-36" cx="125.38" cy="207.14" r="2.76" transform="translate(-44.24 34.35) rotate(-13.28)" />
			<path class="cls-29" d="M126.94,206.48a.9.9,0,1,0,.9-.9A.9.9,0,0,0,126.94,206.48Z" />
			<path class="cls-37" d="M130.94,215.62s5.82,3.25,9.74-.54C140.68,215.08,137.3,222.92,130.94,215.62Z" />
			<path class="cls-37" d="M133.8,223.35c2.32.93,4,1.31,6.38.38a11.52,11.52,0,0,0,4.68-3.38.56.56,0,0,0-.68-.88c-3.41,1.76-6,4.53-10.15,3-.53-.19-.74.64-.23.85Z" />
			<path class="cls-38" d="M110.54,160.09a8.11,8.11,0,0,0,1.25,4.58c-4.23-.53-5-8.49-9.21-7.92-2.06.3-3.15,2.68-3.28,4.77-.42,7,5.22,12.83,7.34,19.53s.71,13.81,1.9,20.64a6.43,6.43,0,0,0,1.57,3.68,2.67,2.67,0,0,0,3.64.24,3.9,3.9,0,0,0,.79-2.51c.51-6.34,1-12.68,1.51-19a56.55,56.55,0,0,0,23.55,1.3c3.15-.49,6.3-1.25,9.49-1.17s6.54,1.17,8.49,3.7c4.39,5.66,1.35,19.79,4.9,20.37,5.17.38,11.21-15.47,9.3-24.52a24.86,24.86,0,0,0-18.43-18.63c-6-1.35-12.21-.39-18.34-.26s-12.77-.87-17.13-5.19c-1.26-1.24-2.55-2.85-4.32-2.79A3.47,3.47,0,0,0,110.54,160.09Z" />
			<path class="cls-39" d="M121.11,166.88c5.45,3.6,12.26,4.7,18.69,4.68,3.53,0,7.19-.36,10.7.19a19.87,19.87,0,0,1,7.91,3.26c.45.28,1.07-.3.75-.75-1.68-2.36-4.66-3.61-7.41-4.25a46,46,0,0,0-10.15-.79,51.75,51.75,0,0,1-19.74-4.1C120.79,164.67,120.26,166.31,121.11,166.88Z" />
			<path class="cls-39" d="M108.41,171.24c5.47,5.68,14.24,8.56,22,8.51,7.94,0,16.58-4.66,23.73.75.55.42,1.13-.45.7-.89-2.45-2.69-6.45-3.6-10-3.62-4.32,0-8.55,1-12.87,1a31.72,31.72,0,0,1-11.58-2.24A72.55,72.55,0,0,1,110,169.16,1.34,1.34,0,0,0,108.41,171.24Z" />
			<path class="cls-39" d="M158.05,183.61c1.22.7,2.39,1.25,3.09,2.57s1.1,2.92,1.89,4.26a.88.88,0,0,0,1.62-.45c.19-3.19-2.51-8.58-6.43-7.72A.74.74,0,0,0,158.05,183.61Z" />
			<path class="cls-39" d="M161.88,180.37c1.6,0,2.83,1.56,3.79,2.68a10.57,10.57,0,0,1,2,3.51c.19.56,1.15.68,1.26,0,.32-2-.85-3.7-2.26-5.08s-2.93-3-5-2.47A.7.7,0,0,0,161.88,180.37Z" />
		</g>
	</g>
</svg>
