<svg xmlns="http://www.w3.org/2000/svg" xmlns:xlink="http://www.w3.org/1999/xlink" viewBox="0 0 1261.8 708.36"><defs><style>.cls-1{fill:#e6e6e6;}.cls-134,.cls-141,.cls-142,.cls-147,.cls-2,.cls-21,.cls-23,.cls-3,.cls-5,.cls-90{fill:none;}.cls-142,.cls-2,.cls-5{stroke:#e6e6e6;}.cls-13,.cls-132,.cls-134,.cls-14,.cls-140,.cls-141,.cls-142,.cls-143,.cls-144,.cls-145,.cls-146,.cls-147,.cls-148,.cls-15,.cls-150,.cls-16,.cls-17,.cls-19,.cls-2,.cls-21,.cls-23,.cls-3,.cls-5,.cls-90{stroke-miterlimit:10;}.cls-2,.cls-5{stroke-width:5px;}.cls-140,.cls-3{stroke:#ccc;}.cls-3{stroke-width:3px;}.cls-4{fill:#ccc;}.cls-5{stroke-linecap:square;}.cls-6{fill:#f2f2f2;}.cls-7{font-size:39px;font-family:FrederickatheGreatest, Fredericka the Greatest;}.cls-8{letter-spacing:-0.02em;}.cls-9{letter-spacing:-0.01em;}.cls-10{letter-spacing:-0.02em;}.cls-11{letter-spacing:0em;}.cls-12{letter-spacing:-0.03em;}.cls-13,.cls-14{fill:#666;}.cls-13,.cls-132,.cls-134,.cls-14,.cls-143,.cls-144,.cls-145,.cls-146,.cls-147,.cls-148,.cls-15,.cls-16,.cls-17,.cls-19,.cls-21,.cls-23,.cls-90{stroke:#000;}.cls-13,.cls-16,.cls-17{stroke-width:0.99px;}.cls-14{stroke-width:0.89px;}.cls-138,.cls-15,.cls-16{fill:#999;}.cls-15{stroke-width:1px;}.cls-17{fill:#b3b3b3;}.cls-18{opacity:0.73;}.cls-132,.cls-140,.cls-150,.cls-152,.cls-19{fill:#fff;}.cls-19,.cls-21{stroke-width:0.39px;}.cls-20{fill:url(#linear-gradient);}.cls-22{fill:url(#linear-gradient-2);}.cls-23{stroke-width:0.56px;}.cls-100,.cls-101,.cls-102,.cls-103,.cls-104,.cls-105,.cls-106,.cls-107,.cls-108,.cls-109,.cls-110,.cls-112,.cls-113,.cls-114,.cls-115,.cls-116,.cls-117,.cls-118,.cls-119,.cls-120,.cls-121,.cls-122,.cls-123,.cls-124,.cls-125,.cls-126,.cls-127,.cls-128,.cls-129,.cls-130,.cls-131,.cls-24,.cls-25,.cls-26,.cls-27,.cls-28,.cls-29,.cls-30,.cls-31,.cls-32,.cls-33,.cls-34,.cls-35,.cls-36,.cls-37,.cls-38,.cls-39,.cls-40,.cls-41,.cls-42,.cls-43,.cls-44,.cls-46,.cls-47,.cls-48,.cls-49,.cls-50,.cls-51,.cls-52,.cls-53,.cls-54,.cls-55,.cls-56,.cls-57,.cls-58,.cls-59,.cls-60,.cls-61,.cls-62,.cls-63,.cls-64,.cls-65,.cls-66,.cls-68,.cls-69,.cls-70,.cls-71,.cls-72,.cls-73,.cls-74,.cls-75,.cls-76,.cls-77,.cls-78,.cls-79,.cls-80,.cls-81,.cls-82,.cls-83,.cls-84,.cls-85,.cls-86,.cls-87,.cls-88,.cls-91,.cls-92,.cls-93,.cls-94,.cls-95,.cls-96,.cls-97,.cls-98,.cls-99{opacity:0.28;}.cls-24{fill:url(#linear-gradient-3);}.cls-25{fill:url(#linear-gradient-4);}.cls-26{fill:url(#linear-gradient-5);}.cls-27{fill:url(#linear-gradient-6);}.cls-28{fill:url(#linear-gradient-7);}.cls-29{fill:url(#linear-gradient-8);}.cls-30{fill:url(#linear-gradient-9);}.cls-31{fill:url(#linear-gradient-10);}.cls-32{fill:url(#linear-gradient-11);}.cls-33{fill:url(#linear-gradient-12);}.cls-34{fill:url(#linear-gradient-13);}.cls-35{fill:url(#linear-gradient-14);}.cls-36{fill:url(#linear-gradient-15);}.cls-37{fill:url(#linear-gradient-16);}.cls-38{fill:url(#linear-gradient-17);}.cls-39{fill:url(#linear-gradient-18);}.cls-40{fill:url(#linear-gradient-19);}.cls-41{fill:url(#linear-gradient-20);}.cls-42{fill:url(#linear-gradient-21);}.cls-43{fill:url(#linear-gradient-22);}.cls-44{fill:url(#linear-gradient-23);}.cls-45{fill:url(#linear-gradient-24);}.cls-46{fill:url(#linear-gradient-25);}.cls-47{fill:url(#linear-gradient-26);}.cls-48{fill:url(#linear-gradient-27);}.cls-49{fill:url(#linear-gradient-28);}.cls-50{fill:url(#linear-gradient-29);}.cls-51{fill:url(#linear-gradient-30);}.cls-52{fill:url(#linear-gradient-31);}.cls-53{fill:url(#linear-gradient-32);}.cls-54{fill:url(#linear-gradient-33);}.cls-55{fill:url(#linear-gradient-34);}.cls-56{fill:url(#linear-gradient-35);}.cls-57{fill:url(#linear-gradient-36);}.cls-58{fill:url(#linear-gradient-37);}.cls-59{fill:url(#linear-gradient-38);}.cls-60{fill:url(#linear-gradient-39);}.cls-61{fill:url(#linear-gradient-40);}.cls-62{fill:url(#linear-gradient-41);}.cls-63{fill:url(#linear-gradient-42);}.cls-64{fill:url(#linear-gradient-43);}.cls-65{fill:url(#linear-gradient-44);}.cls-66{fill:url(#linear-gradient-45);}.cls-67{fill:url(#linear-gradient-46);}.cls-68{fill:url(#linear-gradient-47);}.cls-69{fill:url(#linear-gradient-48);}.cls-70{fill:url(#linear-gradient-49);}.cls-71{fill:url(#linear-gradient-50);}.cls-72{fill:url(#linear-gradient-51);}.cls-73{fill:url(#linear-gradient-52);}.cls-74{fill:url(#linear-gradient-53);}.cls-75{fill:url(#linear-gradient-54);}.cls-76{fill:url(#linear-gradient-55);}.cls-77{fill:url(#linear-gradient-56);}.cls-78{fill:url(#linear-gradient-57);}.cls-79{fill:url(#linear-gradient-58);}.cls-80{fill:url(#linear-gradient-59);}.cls-81{fill:url(#linear-gradient-60);}.cls-82{fill:url(#linear-gradient-61);}.cls-83{fill:url(#linear-gradient-62);}.cls-84{fill:url(#linear-gradient-63);}.cls-85{fill:url(#linear-gradient-64);}.cls-86{fill:url(#linear-gradient-65);}.cls-87{fill:url(#linear-gradient-66);}.cls-88{fill:url(#linear-gradient-67);}.cls-89{fill:url(#linear-gradient-68);}.cls-90{stroke-width:0.66px;}.cls-91{fill:url(#linear-gradient-69);}.cls-92{fill:url(#linear-gradient-70);}.cls-93{fill:url(#linear-gradient-71);}.cls-94{fill:url(#linear-gradient-72);}.cls-95{fill:url(#linear-gradient-73);}.cls-96{fill:url(#linear-gradient-74);}.cls-97{fill:url(#linear-gradient-75);}.cls-98{fill:url(#linear-gradient-76);}.cls-99{fill:url(#linear-gradient-77);}.cls-100{fill:url(#linear-gradient-78);}.cls-101{fill:url(#linear-gradient-79);}.cls-102{fill:url(#linear-gradient-80);}.cls-103{fill:url(#linear-gradient-81);}.cls-104{fill:url(#linear-gradient-82);}.cls-105{fill:url(#linear-gradient-83);}.cls-106{fill:url(#linear-gradient-84);}.cls-107{fill:url(#linear-gradient-85);}.cls-108{fill:url(#linear-gradient-86);}.cls-109{fill:url(#linear-gradient-87);}.cls-110{fill:url(#linear-gradient-88);}.cls-111{fill:url(#linear-gradient-89);}.cls-112{fill:url(#linear-gradient-90);}.cls-113{fill:url(#linear-gradient-91);}.cls-114{fill:url(#linear-gradient-92);}.cls-115{fill:url(#linear-gradient-93);}.cls-116{fill:url(#linear-gradient-94);}.cls-117{fill:url(#linear-gradient-95);}.cls-118{fill:url(#linear-gradient-96);}.cls-119{fill:url(#linear-gradient-97);}.cls-120{fill:url(#linear-gradient-98);}.cls-121{fill:url(#linear-gradient-99);}.cls-122{fill:url(#linear-gradient-100);}.cls-123{fill:url(#linear-gradient-101);}.cls-124{fill:url(#linear-gradient-102);}.cls-125{fill:url(#linear-gradient-103);}.cls-126{fill:url(#linear-gradient-104);}.cls-127{fill:url(#linear-gradient-105);}.cls-128{fill:url(#linear-gradient-106);}.cls-129{fill:url(#linear-gradient-107);}.cls-130{fill:url(#linear-gradient-108);}.cls-131{fill:url(#linear-gradient-109);}.cls-132,.cls-134{stroke-width:0.37px;}.cls-133{fill:url(#linear-gradient-110);}.cls-135{fill:url(#linear-gradient-111);}.cls-136{fill:url(#linear-gradient-112);}.cls-137{fill:url(#linear-gradient-113);}.cls-139{fill:#fffc96;}.cls-140,.cls-141,.cls-142{stroke-width:0.16px;}.cls-141{stroke:#333;}.cls-143{fill:#4d4d4d;}.cls-144{fill:#c69c6d;}.cls-145{fill:#ff846f;}.cls-146{fill:#1f7cff;}.cls-148{fill:#333;}.cls-148,.cls-150{stroke-width:0.25px;}.cls-149{fill:#a67c52;}.cls-150{stroke:#666;}.cls-151{fill:#3d342e;}.cls-153{fill:#f15a24;}.cls-154{fill:#4c4139;}</style><linearGradient id="linear-gradient" x1="792.14" y1="344.97" x2="809.97" y2="368.93" gradientUnits="userSpaceOnUse"><stop offset="0" stop-color="#ffdbbf"/><stop offset="0.09" stop-color="#f5d3c2"/><stop offset="0.24" stop-color="#dabdc9"/><stop offset="0.43" stop-color="#ad99d5"/><stop offset="0.66" stop-color="#7067e6"/><stop offset="0.92" stop-color="#2328fb"/><stop offset="0.96" stop-color="#151dff"/><stop offset="1" stop-color="#e99600"/></linearGradient><linearGradient id="linear-gradient-2" x1="813.86" y1="340.28" x2="837.32" y2="376.87" gradientUnits="userSpaceOnUse"><stop offset="0" stop-color="#d1ffaa"/><stop offset="0.11" stop-color="#c7f9a9"/><stop offset="0.29" stop-color="#ace9a5"/><stop offset="0.53" stop-color="#80ce9e"/><stop offset="0.81" stop-color="#43aa96"/><stop offset="1" stop-color="#158f8f"/></linearGradient><linearGradient id="linear-gradient-3" x1="959.81" y1="638.9" x2="964.77" y2="638.9" gradientTransform="translate(510.76 -741.73) rotate(40.52)" gradientUnits="userSpaceOnUse"><stop offset="0" stop-color="#fff"/><stop offset="0.07" stop-color="#def3e1"/><stop offset="0.18" stop-color="#b3e2b9"/><stop offset="0.3" stop-color="#8dd497"/><stop offset="0.42" stop-color="#6fc97b"/><stop offset="0.54" stop-color="#57c065"/><stop offset="0.67" stop-color="#46ba56"/><stop offset="0.82" stop-color="#3cb64d"/><stop offset="1" stop-color="#39b54a"/></linearGradient><linearGradient id="linear-gradient-4" x1="953" y1="633.66" x2="956.87" y2="633.66" xlink:href="#linear-gradient-3"/><linearGradient id="linear-gradient-5" x1="955.47" y1="647.77" x2="959.34" y2="647.77" xlink:href="#linear-gradient-3"/><linearGradient id="linear-gradient-6" x1="949.6" y1="611.11" x2="953.47" y2="611.11" xlink:href="#linear-gradient-3"/><linearGradient id="linear-gradient-7" x1="929.11" y1="601" x2="932.98" y2="601" xlink:href="#linear-gradient-3"/><linearGradient id="linear-gradient-8" x1="903.01" y1="572" x2="906.88" y2="572" xlink:href="#linear-gradient-3"/><linearGradient id="linear-gradient-9" x1="925.63" y1="609.23" x2="929.5" y2="609.23" xlink:href="#linear-gradient-3"/><linearGradient id="linear-gradient-10" x1="933.79" y1="625.72" x2="938.75" y2="625.72" xlink:href="#linear-gradient-3"/><linearGradient id="linear-gradient-11" x1="919.84" y1="595.55" x2="924.81" y2="595.55" xlink:href="#linear-gradient-3"/><linearGradient id="linear-gradient-12" x1="910.98" y1="572.87" x2="915.94" y2="572.87" xlink:href="#linear-gradient-3"/><linearGradient id="linear-gradient-13" x1="949.97" y1="627.39" x2="954.93" y2="627.39" xlink:href="#linear-gradient-3"/><linearGradient id="linear-gradient-14" x1="942.54" y1="630.78" x2="947.5" y2="630.78" xlink:href="#linear-gradient-3"/><linearGradient id="linear-gradient-15" x1="916.89" y1="586.13" x2="921.85" y2="586.13" xlink:href="#linear-gradient-3"/><linearGradient id="linear-gradient-16" x1="967.91" y1="631.98" x2="972.87" y2="631.98" xlink:href="#linear-gradient-3"/><linearGradient id="linear-gradient-17" x1="955.16" y1="617.06" x2="960.12" y2="617.06" xlink:href="#linear-gradient-3"/><linearGradient id="linear-gradient-18" x1="946.59" y1="650.19" x2="951.55" y2="650.19" xlink:href="#linear-gradient-3"/><linearGradient id="linear-gradient-19" x1="959.77" y1="625.8" x2="968.43" y2="625.8" xlink:href="#linear-gradient-3"/><linearGradient id="linear-gradient-20" x1="941.1" y1="620.36" x2="949.77" y2="620.36" xlink:href="#linear-gradient-3"/><linearGradient id="linear-gradient-21" x1="934.94" y1="608.53" x2="943.6" y2="608.53" xlink:href="#linear-gradient-3"/><linearGradient id="linear-gradient-22" x1="905.22" y1="581.87" x2="912.29" y2="581.87" xlink:href="#linear-gradient-3"/><linearGradient id="linear-gradient-23" x1="943.14" y1="640.01" x2="951.81" y2="640.01" xlink:href="#linear-gradient-3"/><linearGradient id="linear-gradient-24" x1="1034.88" y1="316.85" x2="1058.34" y2="353.44" xlink:href="#linear-gradient-2"/><linearGradient id="linear-gradient-25" x1="1112.6" y1="477.5" x2="1117.57" y2="477.5" xlink:href="#linear-gradient-3"/><linearGradient id="linear-gradient-26" x1="1105.8" y1="472.26" x2="1109.67" y2="472.26" xlink:href="#linear-gradient-3"/><linearGradient id="linear-gradient-27" x1="1108.27" y1="486.37" x2="1112.14" y2="486.37" xlink:href="#linear-gradient-3"/><linearGradient id="linear-gradient-28" x1="1102.4" y1="449.71" x2="1106.26" y2="449.71" xlink:href="#linear-gradient-3"/><linearGradient id="linear-gradient-29" x1="1081.91" y1="439.6" x2="1085.78" y2="439.6" xlink:href="#linear-gradient-3"/><linearGradient id="linear-gradient-30" x1="1055.81" y1="410.6" x2="1059.68" y2="410.6" xlink:href="#linear-gradient-3"/><linearGradient id="linear-gradient-31" x1="1078.43" y1="447.83" x2="1082.3" y2="447.83" xlink:href="#linear-gradient-3"/><linearGradient id="linear-gradient-32" x1="1086.59" y1="464.32" x2="1091.55" y2="464.32" xlink:href="#linear-gradient-3"/><linearGradient id="linear-gradient-33" x1="1072.64" y1="434.15" x2="1077.6" y2="434.15" xlink:href="#linear-gradient-3"/><linearGradient id="linear-gradient-34" x1="1063.78" y1="411.47" x2="1068.74" y2="411.47" xlink:href="#linear-gradient-3"/><linearGradient id="linear-gradient-35" x1="1102.77" y1="465.99" x2="1107.73" y2="465.99" xlink:href="#linear-gradient-3"/><linearGradient id="linear-gradient-36" x1="1095.34" y1="469.38" x2="1100.3" y2="469.38" xlink:href="#linear-gradient-3"/><linearGradient id="linear-gradient-37" x1="1069.69" y1="424.73" x2="1074.65" y2="424.73" xlink:href="#linear-gradient-3"/><linearGradient id="linear-gradient-38" x1="1120.71" y1="470.58" x2="1125.67" y2="470.58" xlink:href="#linear-gradient-3"/><linearGradient id="linear-gradient-39" x1="1107.95" y1="455.66" x2="1112.91" y2="455.66" xlink:href="#linear-gradient-3"/><linearGradient id="linear-gradient-40" x1="1099.39" y1="488.79" x2="1104.35" y2="488.79" xlink:href="#linear-gradient-3"/><linearGradient id="linear-gradient-41" x1="1112.57" y1="464.4" x2="1121.23" y2="464.4" xlink:href="#linear-gradient-3"/><linearGradient id="linear-gradient-42" x1="1093.9" y1="458.96" x2="1102.57" y2="458.96" xlink:href="#linear-gradient-3"/><linearGradient id="linear-gradient-43" x1="1087.73" y1="447.13" x2="1096.4" y2="447.13" xlink:href="#linear-gradient-3"/><linearGradient id="linear-gradient-44" x1="1058.02" y1="420.47" x2="1065.09" y2="420.47" xlink:href="#linear-gradient-3"/><linearGradient id="linear-gradient-45" x1="1095.94" y1="478.61" x2="1104.61" y2="478.61" xlink:href="#linear-gradient-3"/><linearGradient id="linear-gradient-46" x1="1060.38" y1="333.35" x2="1083.84" y2="369.94" xlink:href="#linear-gradient-2"/><linearGradient id="linear-gradient-47" x1="1142.71" y1="473.48" x2="1147.67" y2="473.48" xlink:href="#linear-gradient-3"/><linearGradient id="linear-gradient-48" x1="1135.9" y1="468.23" x2="1139.77" y2="468.23" xlink:href="#linear-gradient-3"/><linearGradient id="linear-gradient-49" x1="1138.38" y1="482.35" x2="1142.25" y2="482.35" xlink:href="#linear-gradient-3"/><linearGradient id="linear-gradient-50" x1="1132.5" y1="445.69" x2="1136.37" y2="445.69" xlink:href="#linear-gradient-3"/><linearGradient id="linear-gradient-51" x1="1112.02" y1="435.57" x2="1115.88" y2="435.57" xlink:href="#linear-gradient-3"/><linearGradient id="linear-gradient-52" x1="1085.92" y1="406.57" x2="1089.79" y2="406.57" xlink:href="#linear-gradient-3"/><linearGradient id="linear-gradient-53" x1="1108.53" y1="443.81" x2="1112.4" y2="443.81" xlink:href="#linear-gradient-3"/><linearGradient id="linear-gradient-54" x1="1116.69" y1="460.3" x2="1121.66" y2="460.3" xlink:href="#linear-gradient-3"/><linearGradient id="linear-gradient-55" x1="1102.75" y1="430.13" x2="1107.71" y2="430.13" xlink:href="#linear-gradient-3"/><linearGradient id="linear-gradient-56" x1="1093.89" y1="407.44" x2="1098.85" y2="407.44" xlink:href="#linear-gradient-3"/><linearGradient id="linear-gradient-57" x1="1132.87" y1="461.97" x2="1137.83" y2="461.97" xlink:href="#linear-gradient-3"/><linearGradient id="linear-gradient-58" x1="1125.45" y1="465.36" x2="1130.41" y2="465.36" xlink:href="#linear-gradient-3"/><linearGradient id="linear-gradient-59" x1="1099.79" y1="420.71" x2="1104.75" y2="420.71" xlink:href="#linear-gradient-3"/><linearGradient id="linear-gradient-60" x1="1150.81" y1="466.55" x2="1155.77" y2="466.55" xlink:href="#linear-gradient-3"/><linearGradient id="linear-gradient-61" x1="1138.06" y1="451.63" x2="1143.02" y2="451.63" xlink:href="#linear-gradient-3"/><linearGradient id="linear-gradient-62" x1="1129.49" y1="484.77" x2="1134.45" y2="484.77" xlink:href="#linear-gradient-3"/><linearGradient id="linear-gradient-63" x1="1142.67" y1="460.38" x2="1151.34" y2="460.38" xlink:href="#linear-gradient-3"/><linearGradient id="linear-gradient-64" x1="1124" y1="454.93" x2="1132.67" y2="454.93" xlink:href="#linear-gradient-3"/><linearGradient id="linear-gradient-65" x1="1117.84" y1="443.1" x2="1126.51" y2="443.1" xlink:href="#linear-gradient-3"/><linearGradient id="linear-gradient-66" x1="1088.12" y1="416.45" x2="1095.2" y2="416.45" xlink:href="#linear-gradient-3"/><linearGradient id="linear-gradient-67" x1="1126.04" y1="474.59" x2="1134.71" y2="474.59" xlink:href="#linear-gradient-3"/><linearGradient id="linear-gradient-68" x1="914.82" y1="324.16" x2="945.54" y2="365.44" gradientUnits="userSpaceOnUse"><stop offset="0" stop-color="#c2bbed"/><stop offset="0.11" stop-color="#c0b1e5"/><stop offset="0.29" stop-color="#bb96d0"/><stop offset="0.53" stop-color="#b26aae"/><stop offset="0.81" stop-color="#a72d80"/><stop offset="1" stop-color="#9e005d"/></linearGradient><linearGradient id="linear-gradient-69" x1="1004.17" y1="539.12" x2="1014.43" y2="539.12" gradientTransform="translate(510.76 -741.73) rotate(40.52)" gradientUnits="userSpaceOnUse"><stop offset="0" stop-color="#fff"/><stop offset="0.06" stop-color="#f0d9e7"/><stop offset="0.16" stop-color="#dda6c7"/><stop offset="0.26" stop-color="#cc7aaa"/><stop offset="0.37" stop-color="#be5493"/><stop offset="0.47" stop-color="#b2367f"/><stop offset="0.59" stop-color="#a91e70"/><stop offset="0.71" stop-color="#a30d65"/><stop offset="0.84" stop-color="#9f035f"/><stop offset="1" stop-color="#9e005d"/></linearGradient><linearGradient id="linear-gradient-70" x1="987.38" y1="527.16" x2="997.64" y2="527.16" xlink:href="#linear-gradient-69"/><linearGradient id="linear-gradient-71" x1="957.18" y1="487.2" x2="967.44" y2="487.2" xlink:href="#linear-gradient-69"/><linearGradient id="linear-gradient-72" x1="1035.88" y1="549.14" x2="1046.14" y2="549.14" xlink:href="#linear-gradient-69"/><linearGradient id="linear-gradient-73" x1="1024.9" y1="549.57" x2="1032.1" y2="549.57" xlink:href="#linear-gradient-69"/><linearGradient id="linear-gradient-74" x1="1006.37" y1="563.66" x2="1013.57" y2="563.66" xlink:href="#linear-gradient-69"/><linearGradient id="linear-gradient-75" x1="1016.28" y1="532.77" x2="1022.62" y2="532.77" xlink:href="#linear-gradient-69"/><linearGradient id="linear-gradient-76" x1="998.03" y1="548.37" x2="1004.38" y2="548.37" xlink:href="#linear-gradient-69"/><linearGradient id="linear-gradient-77" x1="963.61" y1="498.85" x2="969.96" y2="498.85" xlink:href="#linear-gradient-69"/><linearGradient id="linear-gradient-78" x1="987.35" y1="512.77" x2="993.69" y2="512.77" xlink:href="#linear-gradient-69"/><linearGradient id="linear-gradient-79" x1="1005.39" y1="526.95" x2="1011.73" y2="526.95" xlink:href="#linear-gradient-69"/><linearGradient id="linear-gradient-80" x1="946.89" y1="476.97" x2="953.23" y2="476.97" xlink:href="#linear-gradient-69"/><linearGradient id="linear-gradient-81" x1="978.96" y1="502.19" x2="985.3" y2="502.19" xlink:href="#linear-gradient-69"/><linearGradient id="linear-gradient-82" x1="959.91" y1="473.74" x2="966.25" y2="473.74" xlink:href="#linear-gradient-69"/><linearGradient id="linear-gradient-83" x1="1015.69" y1="539.03" x2="1019.57" y2="539.03" xlink:href="#linear-gradient-69"/><linearGradient id="linear-gradient-84" x1="972.15" y1="497.32" x2="976.03" y2="497.32" xlink:href="#linear-gradient-69"/><linearGradient id="linear-gradient-85" x1="975.92" y1="512.51" x2="979.81" y2="512.51" xlink:href="#linear-gradient-69"/><linearGradient id="linear-gradient-86" x1="1031.94" y1="553.96" x2="1035.83" y2="553.96" xlink:href="#linear-gradient-69"/><linearGradient id="linear-gradient-87" x1="1012.23" y1="568.48" x2="1022.49" y2="568.48" xlink:href="#linear-gradient-69"/><linearGradient id="linear-gradient-88" x1="1012.8" y1="552.21" x2="1023.06" y2="552.21" xlink:href="#linear-gradient-69"/><linearGradient id="linear-gradient-89" x1="949.41" y1="339.37" x2="980.13" y2="380.65" xlink:href="#linear-gradient-68"/><linearGradient id="linear-gradient-90" x1="1040.35" y1="528.21" x2="1050.61" y2="528.21" xlink:href="#linear-gradient-69"/><linearGradient id="linear-gradient-91" x1="1023.55" y1="516.25" x2="1033.81" y2="516.25" xlink:href="#linear-gradient-69"/><linearGradient id="linear-gradient-92" x1="993.35" y1="476.29" x2="1003.61" y2="476.29" xlink:href="#linear-gradient-69"/><linearGradient id="linear-gradient-93" x1="1072.05" y1="538.23" x2="1082.31" y2="538.23" xlink:href="#linear-gradient-69"/><linearGradient id="linear-gradient-94" x1="1061.07" y1="538.66" x2="1068.27" y2="538.66" xlink:href="#linear-gradient-69"/><linearGradient id="linear-gradient-95" x1="1042.54" y1="552.74" x2="1049.74" y2="552.74" xlink:href="#linear-gradient-69"/><linearGradient id="linear-gradient-96" x1="1052.45" y1="521.86" x2="1058.79" y2="521.86" xlink:href="#linear-gradient-69"/><linearGradient id="linear-gradient-97" x1="1034.21" y1="537.45" x2="1040.55" y2="537.45" xlink:href="#linear-gradient-69"/><linearGradient id="linear-gradient-98" x1="999.79" y1="487.94" x2="1006.13" y2="487.94" xlink:href="#linear-gradient-69"/><linearGradient id="linear-gradient-99" x1="1023.52" y1="501.86" x2="1029.86" y2="501.86" xlink:href="#linear-gradient-69"/><linearGradient id="linear-gradient-100" x1="1041.56" y1="516.04" x2="1047.9" y2="516.04" xlink:href="#linear-gradient-69"/><linearGradient id="linear-gradient-101" x1="983.06" y1="466.06" x2="989.4" y2="466.06" xlink:href="#linear-gradient-69"/><linearGradient id="linear-gradient-102" x1="1015.13" y1="491.27" x2="1021.47" y2="491.27" xlink:href="#linear-gradient-69"/><linearGradient id="linear-gradient-103" x1="996.08" y1="462.83" x2="1002.42" y2="462.83" xlink:href="#linear-gradient-69"/><linearGradient id="linear-gradient-104" x1="1051.86" y1="528.12" x2="1055.75" y2="528.12" xlink:href="#linear-gradient-69"/><linearGradient id="linear-gradient-105" x1="1008.32" y1="486.4" x2="1012.2" y2="486.4" xlink:href="#linear-gradient-69"/><linearGradient id="linear-gradient-106" x1="1012.1" y1="501.6" x2="1015.98" y2="501.6" xlink:href="#linear-gradient-69"/><linearGradient id="linear-gradient-107" x1="1068.12" y1="543.05" x2="1072" y2="543.05" xlink:href="#linear-gradient-69"/><linearGradient id="linear-gradient-108" x1="1048.4" y1="557.57" x2="1058.67" y2="557.57" xlink:href="#linear-gradient-69"/><linearGradient id="linear-gradient-109" x1="1048.97" y1="541.3" x2="1059.23" y2="541.3" xlink:href="#linear-gradient-69"/><linearGradient id="linear-gradient-110" x1="996" y1="340.13" x2="1013" y2="362.97" gradientUnits="userSpaceOnUse"><stop offset="0" stop-color="#ffdbbf"/><stop offset="0.11" stop-color="#fed7b5"/><stop offset="0.29" stop-color="#fbce9a"/><stop offset="0.52" stop-color="#f6be6e"/><stop offset="0.8" stop-color="#efa831"/><stop offset="1" stop-color="#e99600"/></linearGradient><linearGradient id="linear-gradient-111" x1="1011.56" y1="355.69" x2="1028.56" y2="378.53" xlink:href="#linear-gradient-110"/><linearGradient id="linear-gradient-112" x1="865.14" y1="338.97" x2="882.97" y2="362.93" xlink:href="#linear-gradient"/><linearGradient id="linear-gradient-113" x1="890.14" y1="365.97" x2="907.97" y2="389.93" xlink:href="#linear-gradient"/></defs><title>page_5_2</title><g id="Layer_2" data-name="Layer 2"><g id="Layer_5" data-name="Layer 5"><g id="background"><rect class="cls-1" x="280.3" y="224" width="94" height="273" rx="12.57"/><rect class="cls-1" x="412.3" y="280" width="94" height="144" rx="9.13"/><line class="cls-2" x1="361.3" y1="257" x2="459.3" y2="257"/><line class="cls-2" x1="459.3" y1="200" x2="459.3" y2="326"/><path class="cls-1" d="M437.3,444c2.88,13.61,23.84,40.44,33,55.14H429.89C433.3,482.6,425.93,455.13,437.3,444Z"/><path class="cls-1" d="M467.3,447c9.54,8.74,29.13,34.05,34,52H460.89C471.73,485.79,466,462.66,467.3,447Z"/><path class="cls-1" d="M508.3,439c10.72,14.12,22.4,38.7,26,60H493.89C503.64,481.24,505.43,457.62,508.3,439Z"/><path class="cls-1" d="M417.3,435c-6.44,17.24,3.5,45.2,20,64H396.89C396.74,478.18,403.19,450.26,417.3,435Z"/><path class="cls-1" d="M442.56,493.14c2.87-20.66,0-46.23,9.59-60.14"/><path class="cls-1" d="M452.15,433c2.42,17,16.67,41.77,24.37,60.14"/><path class="cls-1" d="M468.61,493c9.11-16.54,6.83-39.45,7.91-59"/><path class="cls-1" d="M476.52,434c8,10.92,22,36.56,26.05,59"/><path class="cls-1" d="M486.34,493c8.2-13.61,9.7-31.7,12.11-46"/><path class="cls-1" d="M498.45,447.06c9,10.82,18.82,29.65,21.85,46"/><path class="cls-1" d="M425,445.9c-8.4,11.55-5.37,34.34,4.68,51.62"/><circle class="cls-3" cx="327.3" cy="360.5" r="34"/><line class="cls-3" x1="302.8" y1="336.5" x2="352.8" y2="385.5"/><line class="cls-3" x1="303.3" y1="386" x2="352.3" y2="336"/><rect class="cls-4" x="317.3" y="337.33" width="5" height="24.42" rx="2.41"/><rect class="cls-4" x="324.3" y="334" width="5" height="26.75" rx="2.41"/><rect class="cls-4" x="331.3" y="338.25" width="5" height="27.5" rx="2.5"/><rect class="cls-4" x="338.3" y="344.5" width="5" height="27.5" rx="2.5"/><rect class="cls-4" x="311.3" y="352" width="5" height="22" rx="2.5" transform="translate(-67.95 72.3) rotate(-11.87)"/><path class="cls-4" d="M325.19,357h6.22c6.54,0,11.89,5,11.89,11.13v3.74C343.3,378,338,383,331.41,383h-6.22c-6.54,0-11.89-5.2-11.89-10.4v-5.2C313.3,361.28,318.65,357,325.19,357Z"/><line class="cls-5" x1="459.3" y1="200" x2="576.3" y2="200"/><line class="cls-2" x1="576.3" x2="576.3" y2="200"/><rect class="cls-1" x="948.8" y="20" width="313" height="479.5" rx="11.61"/><rect class="cls-6" x="974.3" y="50" width="195" height="422" rx="12"/><rect class="cls-4" x="1186.49" y="215" width="49.89" height="69.85" rx="1.62"/><rect class="cls-1" x="1193.48" y="242.94" width="10.26" height="10.26" rx="1.62"/><rect class="cls-1" x="1206.3" y="242.94" width="10.26" height="10.26" rx="1.62"/><rect class="cls-1" x="1219.13" y="242.94" width="10.26" height="10.26" rx="1.62"/><rect class="cls-1" x="1219.13" y="255.77" width="10.26" height="10.26" rx="1.62"/><rect class="cls-1" x="1206.3" y="255.77" width="10.26" height="10.26" rx="1.62"/><rect class="cls-1" x="1193.48" y="255.77" width="10.26" height="10.26" rx="1.62"/><rect class="cls-1" x="1193.48" y="268.6" width="10.26" height="10.26" rx="1.62"/><rect class="cls-1" x="1206.3" y="268.6" width="10.26" height="10.26" rx="1.62"/><rect class="cls-1" x="1219.13" y="268.6" width="10.26" height="10.26" rx="1.62"/><rect class="cls-1" x="1192.48" y="220.99" width="37.92" height="17.96" rx="1.62"/></g><text class="cls-7" transform="translate(0.58 51.83)">Myth #4 - Clinical Trials are d<tspan class="cls-8" x="554.84" y="0">a</tspan><tspan x="575.94" y="0">n</tspan><tspan class="cls-9" x="598.83" y="0">g</tspan><tspan x="618.1" y="0">erous bec</tspan><tspan class="cls-10" x="787.78" y="0">a</tspan><tspan class="cls-11" x="808.88" y="0">use they</tspan><tspan x="0" y="46.8">use new practices </tspan><tspan class="cls-8" x="330.75" y="46.8">a</tspan><tspan x="351.85" y="46.8">nd medicines/</tspan><tspan x="0" y="93.6">they m</tspan><tspan class="cls-12" x="119.57" y="93.6">a</tspan><tspan x="140.28" y="93.6">y include painful or </tspan><tspan x="0" y="140.4">unpleas</tspan><tspan class="cls-8" x="136.15" y="140.4">a</tspan><tspan x="157.25" y="140.4">nt parts</tspan></text><g id="table"><path id="frontRight" class="cls-13" d="M1208,572.53c-3.53,1.66-7.17,2.89-11.89-.15l2.5-197.28,11.91-.84Z"/><path id="backRight" class="cls-13" d="M1124,480.91c-2.49,3.53-6.86,2.43-11.89-.28l2.14-95.25,12.06-1.57Z"/><path id="backLeft" class="cls-14" d="M678.52,605.5c-2.44,3.34-5.58,5.29-11.91.84l-.2-211.2,11.79,8.09Z"/><g id="topTable"><polygon class="cls-1" points="639.06 364.33 1113.85 319.11 1241.28 358.65 719.57 415.31 639.06 364.33"/><path d="M1113.8,319.61l125,38.81L719.69,414.8l-79.14-50.11,473.25-45.08m.1-1L637.57,364l81.88,51.85,524.26-56.94L1113.9,318.61Z"/></g><g id="bottomTable"><path class="cls-4" d="M741.8,599.11a17.34,17.34,0,0,0-10.38-3.81,16.84,16.84,0,0,0-7.59,1.94l-52-49.24c1-.45,1.89-.78,2.73-1.09,2.42-.87,4.54-1.63,4.23-4.26l433-62a15.14,15.14,0,0,0,6.78,1.85,10.49,10.49,0,0,0,6.39-2.2l73.77,35.76a8,8,0,0,0,3,7.51Z"/><path d="M1125.06,480.91l73.18,35.47a8.16,8.16,0,0,0,2.48,6.89l-458.8,75.32a17.69,17.69,0,0,0-10.5-3.78,17,17,0,0,0-7.49,1.83l-51.2-48.49c.71-.3,1.39-.54,2-.77,2.28-.82,4.63-1.67,4.59-4.3l432.42-61.89a15.3,15.3,0,0,0,6.86,1.83,11,11,0,0,0,6.44-2.11m-.11-1.16a10,10,0,0,1-6.33,2.28,14.57,14.57,0,0,1-6.69-1.87l-433.7,62.07c.8,3.68-3,3.47-7.25,5.63l52.77,50a16.35,16.35,0,0,1,7.67-2.05,16.89,16.89,0,0,1,10.25,3.84L1203,523.91c-3.18-2.34-4.23-5.07-3.64-8.1L1125,479.75Z"/></g><polygon id="frontBottomEdge" class="cls-15" points="1203.05 533.34 738.62 611.91 738.37 599.08 1203.45 524.43 1203.05 533.34"/><polygon id="sideBottom" class="cls-16" points="672.45 548.42 670.93 560.27 725.6 608.59 725.6 598.59 672.45 548.42"/><path id="frontLeft" class="cls-13" d="M739.86,664.59c-3.94,3.42-8.29,3.7-12.89,2l-3.59-237,13.89-2Z"/><polygon id="topEdge" class="cls-17" points="637.06 364.46 636.71 377.34 722.5 431.28 1241.91 370.24 1243.2 359.37 718.94 416.31 637.06 364.46"/></g><g id="blueBeaker"><g class="cls-18"><path class="cls-19" d="M794.48,306.07h10a1,1,0,0,1,0,1.54l-.24,17.86,10.27,34.13a3.16,3.16,0,0,1,.14,1c0,2.88-1.82,4.51-4.58,5.43a59.37,59.37,0,0,1-20.43,0,4.82,4.82,0,0,1-4.39-3.21,7.31,7.31,0,0,1-.15-4.6l9.27-32.76-.1-18.05A.75.75,0,0,1,794.48,306.07Z"/></g><path class="cls-20" d="M790.43,339.44a10.18,10.18,0,0,1,8.91.08,12.25,12.25,0,0,0,9.06-.19l6.31,20.15c.06,4-2.48,6.52-5.2,6.75-7.37,1.26-15.42,1.15-21.58-.77-2.86-1.23-3.46-3.34-2.89-6.75Z"/><path class="cls-21" d="M794.48,306.07h10a1,1,0,0,1,0,1.54l-.24,17.86,10.27,34.13a3.16,3.16,0,0,1,.14,1c0,2.88-1.82,4.51-4.58,5.43a59.37,59.37,0,0,1-20.43,0,4.82,4.82,0,0,1-4.39-3.21,7.31,7.31,0,0,1-.15-4.6l9.27-32.76-.1-18.05A.75.75,0,0,1,794.48,306.07Z"/></g><g id="greenBeaker"><path class="cls-22" d="M813,336.33a14.84,14.84,0,0,1,13,.11c4.92,1.6,9.48,1.46,13.18-.28l9.18,29.34c.09,5.83-3.6,9.48-7.57,9.81-10.73,1.84-22.43,1.68-31.4-1.12-4.17-1.78-5-4.85-4.21-9.81Z"/><path class="cls-23" d="M818.91,301.28h14.58a1.51,1.51,0,0,1,0,2.25v12.9l14.6,49.24a5.22,5.22,0,0,1,.21,1.47c-.07,4.19-2.65,6.56-6.68,7.89-9.45,1.83-19.41,1.63-29.72,0a7,7,0,0,1-6.39-4.67,10.53,10.53,0,0,1-.22-6.68l13.34-47V303.25A1.1,1.1,0,0,1,818.91,301.28Z"/><circle class="cls-24" cx="827.23" cy="369.14" r="2.48"/><circle class="cls-25" cx="825.05" cy="360.38" r="1.93"/><circle class="cls-26" cx="817.76" cy="372.71" r="1.93"/><circle class="cls-27" cx="837.11" cy="341.03" r="1.93"/><circle class="cls-28" cx="828.11" cy="320.03" r="1.93"/><circle class="cls-29" cx="827.11" cy="281.03" r="1.93"/><circle class="cls-30" cx="820.11" cy="324.03" r="1.93"/><circle class="cls-31" cx="816.02" cy="342.22" r="2.48"/><circle class="cls-32" cx="825.02" cy="310.22" r="2.48"/><circle class="cls-33" cx="833.02" cy="287.22" r="2.48"/><circle class="cls-34" cx="827.23" cy="354" r="2.48"/><circle class="cls-35" cx="819.38" cy="351.75" r="2.48"/><circle class="cls-36" cx="828.89" cy="301.14" r="2.48"/><circle class="cls-37" cx="837.89" cy="369.14" r="2.48"/><circle class="cls-38" cx="837.89" cy="349.51" r="2.48"/><circle class="cls-39" cx="809.85" cy="369.14" r="2.48"/><circle class="cls-40" cx="837.12" cy="360.36" r="4.33"/><circle class="cls-41" cx="826.47" cy="344.09" r="4.33"/><circle class="cls-42" cx="829.47" cy="331.09" r="4.33"/><circle class="cls-43" cx="823.59" cy="291.01" r="3.54"/><circle class="cls-44" cx="815.25" cy="360.36" r="4.33"/></g><g id="greenBeaker-2" data-name="greenBeaker"><path class="cls-45" d="M1034,312.9a14.84,14.84,0,0,1,13,.11c4.92,1.6,9.47,1.45,13.18-.28l9.18,29.34c.08,5.83-3.61,9.48-7.57,9.81-10.73,1.84-22.43,1.68-31.41-1.12-4.16-1.78-5-4.85-4.2-9.82Z"/><path class="cls-23" d="M1039.93,277.85h14.58a1.52,1.52,0,0,1,0,2.25V293l14.6,49.25a4.88,4.88,0,0,1,.2,1.47c-.06,4.18-2.65,6.56-6.67,7.89-9.45,1.83-19.41,1.62-29.72,0a7,7,0,0,1-6.39-4.67,10.53,10.53,0,0,1-.23-6.68l13.35-47V279.82A1.1,1.1,0,0,1,1039.93,277.85Z"/><circle class="cls-46" cx="1048.25" cy="345.71" r="2.48"/><circle class="cls-47" cx="1046.07" cy="336.94" r="1.93"/><circle class="cls-48" cx="1038.78" cy="349.28" r="1.93"/><circle class="cls-49" cx="1058.13" cy="317.6" r="1.93"/><circle class="cls-50" cx="1049.13" cy="296.6" r="1.93"/><circle class="cls-51" cx="1048.13" cy="257.6" r="1.93"/><circle class="cls-52" cx="1041.13" cy="300.6" r="1.93"/><circle class="cls-53" cx="1037.03" cy="318.79" r="2.48"/><circle class="cls-54" cx="1046.03" cy="286.79" r="2.48"/><circle class="cls-55" cx="1054.03" cy="263.79" r="2.48"/><circle class="cls-56" cx="1048.25" cy="330.56" r="2.48"/><circle class="cls-57" cx="1040.4" cy="328.32" r="2.48"/><circle class="cls-58" cx="1049.91" cy="277.71" r="2.48"/><circle class="cls-59" cx="1058.91" cy="345.71" r="2.48"/><circle class="cls-60" cx="1058.91" cy="326.08" r="2.48"/><circle class="cls-61" cx="1030.87" cy="345.71" r="2.48"/><circle class="cls-62" cx="1058.14" cy="336.93" r="4.33"/><circle class="cls-63" cx="1047.48" cy="320.66" r="4.33"/><circle class="cls-64" cx="1050.48" cy="307.66" r="4.33"/><circle class="cls-65" cx="1044.61" cy="267.57" r="3.54"/><circle class="cls-66" cx="1036.27" cy="336.93" r="4.33"/></g><g id="greenBeaker-3" data-name="greenBeaker"><path class="cls-67" d="M1059.54,329.4a14.84,14.84,0,0,1,13,.11c4.92,1.6,9.47,1.45,13.18-.28l9.18,29.34c.08,5.83-3.61,9.48-7.57,9.81-10.73,1.84-22.43,1.68-31.41-1.12-4.16-1.78-5-4.85-4.2-9.82Z"/><path class="cls-23" d="M1065.43,294.35H1080a1.52,1.52,0,0,1,0,2.25v12.89l14.6,49.25a4.88,4.88,0,0,1,.2,1.47c-.06,4.18-2.65,6.56-6.67,7.89-9.45,1.83-19.41,1.62-29.72,0a7,7,0,0,1-6.39-4.67,10.53,10.53,0,0,1-.23-6.68l13.35-47V296.32A1.1,1.1,0,0,1,1065.43,294.35Z"/><circle class="cls-68" cx="1073.75" cy="362.21" r="2.48"/><circle class="cls-69" cx="1071.57" cy="353.44" r="1.93"/><circle class="cls-70" cx="1064.28" cy="365.78" r="1.93"/><circle class="cls-71" cx="1083.63" cy="334.1" r="1.93"/><circle class="cls-72" cx="1074.63" cy="313.1" r="1.93"/><circle class="cls-73" cx="1073.63" cy="274.1" r="1.93"/><circle class="cls-74" cx="1066.63" cy="317.1" r="1.93"/><circle class="cls-75" cx="1062.53" cy="335.29" r="2.48"/><circle class="cls-76" cx="1071.53" cy="303.29" r="2.48"/><circle class="cls-77" cx="1079.53" cy="280.29" r="2.48"/><circle class="cls-78" cx="1073.75" cy="347.06" r="2.48"/><circle class="cls-79" cx="1065.9" cy="344.82" r="2.48"/><circle class="cls-80" cx="1075.41" cy="294.21" r="2.48"/><circle class="cls-81" cx="1084.41" cy="362.21" r="2.48"/><circle class="cls-82" cx="1084.41" cy="342.58" r="2.48"/><circle class="cls-83" cx="1056.37" cy="362.21" r="2.48"/><circle class="cls-84" cx="1083.64" cy="353.43" r="4.33"/><circle class="cls-85" cx="1072.98" cy="337.16" r="4.33"/><circle class="cls-86" cx="1075.98" cy="324.16" r="4.33"/><circle class="cls-87" cx="1070.11" cy="284.07" r="3.54"/><circle class="cls-88" cx="1061.77" cy="353.43" r="4.33"/></g><g id="purplebeaker"><path class="cls-89" d="M911.88,314.64a17.59,17.59,0,0,1,15.36.13c5.82,1.9,11.21,1.72,15.6-.33l10.87,34.73c.1,6.9-4.27,11.23-9,11.62-12.71,2.17-26.56,2-37.18-1.33-4.93-2.11-6-5.74-5-11.62Z"/><path class="cls-90" d="M918.85,257.15h17.27a1.78,1.78,0,0,1,0,2.65l-.41,30.76,17.69,58.82a5.65,5.65,0,0,1,.24,1.73c-.08,5-3.13,7.77-7.9,9.35-11.19,2.16-23,1.92-35.19,0-4.17-.42-6.39-2.52-7.56-5.53a12.55,12.55,0,0,1-.27-7.92l16-56.45-.19-31.09A1.3,1.3,0,0,1,918.85,257.15Z"/><circle class="cls-91" cx="927.8" cy="323.83" r="5.13"/><circle class="cls-92" cx="922.8" cy="303.83" r="5.13"/><circle class="cls-93" cx="925.8" cy="253.83" r="5.13"/><circle class="cls-94" cx="945.4" cy="352.05" r="5.13"/><circle class="cls-95" cx="935.61" cy="344.24" r="3.6"/><circle class="cls-96" cx="912.37" cy="342.91" r="3.6"/><circle class="cls-97" cx="939.64" cy="325.6" r="3.17"/><circle class="cls-98" cx="915.64" cy="325.6" r="3.17"/><circle class="cls-99" cx="921.64" cy="265.6" r="3.17"/><circle class="cls-100" cx="930.64" cy="291.6" r="3.17"/><circle class="cls-101" cx="935.14" cy="314.1" r="3.17"/><circle class="cls-102" cx="923.14" cy="238.1" r="3.17"/><circle class="cls-103" cx="931.14" cy="278.1" r="3.17"/><circle class="cls-104" cx="935.14" cy="244.1" r="3.17"/><circle class="cls-105" cx="934.19" cy="329.17" r="1.94"/><circle class="cls-106" cx="928.19" cy="269.17" r="1.94"/><circle class="cls-107" cx="921.19" cy="283.17" r="1.94"/><circle class="cls-108" cx="936.84" cy="351.08" r="1.94"/><circle class="cls-109" cx="914.85" cy="351.38" r="5.13"/><circle class="cls-110" cx="925.85" cy="339.38" r="5.13"/></g><g id="purplebeaker-2" data-name="purplebeaker"><path class="cls-111" d="M946.47,329.85a17.52,17.52,0,0,1,15.36.13c5.82,1.89,11.21,1.72,15.6-.34l10.87,34.73c.1,6.91-4.27,11.23-9,11.62-12.7,2.18-26.55,2-37.18-1.33-4.92-2.1-5.94-5.74-5-11.62Z"/><path class="cls-90" d="M953.44,272.35H970.7a1.78,1.78,0,0,1,0,2.66l-.4,30.76L988,364.58a5.67,5.67,0,0,1,.24,1.74c-.08,4.95-3.13,7.76-7.9,9.34-11.19,2.17-23,1.92-35.19,0-4.17-.42-6.39-2.52-7.56-5.53a12.45,12.45,0,0,1-.27-7.91l16-56.45-.19-31.1A1.3,1.3,0,0,1,953.44,272.35Z"/><circle class="cls-112" cx="962.39" cy="339.03" r="5.13"/><circle class="cls-113" cx="957.39" cy="319.03" r="5.13"/><circle class="cls-114" cx="960.39" cy="269.03" r="5.13"/><circle class="cls-115" cx="979.98" cy="367.25" r="5.13"/><circle class="cls-116" cx="970.19" cy="359.45" r="3.6"/><circle class="cls-117" cx="946.96" cy="358.12" r="3.6"/><circle class="cls-118" cx="974.22" cy="340.8" r="3.17"/><circle class="cls-119" cx="950.22" cy="340.8" r="3.17"/><circle class="cls-120" cx="956.22" cy="280.8" r="3.17"/><circle class="cls-121" cx="965.22" cy="306.8" r="3.17"/><circle class="cls-122" cx="969.72" cy="329.3" r="3.17"/><circle class="cls-123" cx="957.72" cy="253.3" r="3.17"/><circle class="cls-124" cx="965.72" cy="293.3" r="3.17"/><circle class="cls-125" cx="969.72" cy="259.3" r="3.17"/><circle class="cls-126" cx="968.78" cy="344.38" r="1.94"/><circle class="cls-127" cx="962.78" cy="284.38" r="1.94"/><circle class="cls-128" cx="955.78" cy="298.38" r="1.94"/><circle class="cls-129" cx="971.43" cy="366.29" r="1.94"/><circle class="cls-130" cx="949.44" cy="366.59" r="5.13"/><circle class="cls-131" cx="960.44" cy="354.59" r="5.13"/></g><g id="orangeBeaker"><g class="cls-18"><path class="cls-132" d="M998.23,303h9.56a1,1,0,0,1,0,1.47l-.23,17,9.79,32.55a3.48,3.48,0,0,1,.14,1c0,2.74-1.74,4.3-4.38,5.17a56.06,56.06,0,0,1-19.47,0,4.57,4.57,0,0,1-4.19-3.06,6.91,6.91,0,0,1-.14-4.38l8.84-31.24-.1-17.21A.71.71,0,0,1,998.23,303Z"/></g><path class="cls-133" d="M994.37,334.86a9.69,9.69,0,0,1,8.5.07,11.65,11.65,0,0,0,8.64-.19l6,19.22c.06,3.83-2.36,6.22-5,6.44-7,1.2-14.7,1.1-20.57-.74-2.73-1.17-3.3-3.18-2.76-6.43Z"/><path class="cls-134" d="M998.23,303h9.56a1,1,0,0,1,0,1.47l-.23,17,9.79,32.55a3.48,3.48,0,0,1,.14,1c0,2.74-1.74,4.3-4.38,5.17a56.06,56.06,0,0,1-19.47,0,4.57,4.57,0,0,1-4.19-3.06,6.91,6.91,0,0,1-.14-4.38l8.84-31.24-.1-17.21A.71.71,0,0,1,998.23,303Z"/></g><g id="orangeBeaker-2" data-name="orangeBeaker"><g class="cls-18"><path class="cls-132" d="M1013.79,318.6h9.56a1,1,0,0,1,0,1.47l-.23,17,9.79,32.55a3.14,3.14,0,0,1,.14,1c0,2.75-1.74,4.3-4.37,5.17a56.12,56.12,0,0,1-19.48,0,4.55,4.55,0,0,1-4.18-3.06,6.91,6.91,0,0,1-.15-4.38l8.84-31.24-.1-17.2A.72.72,0,0,1,1013.79,318.6Z"/></g><path class="cls-135" d="M1009.94,350.42a9.7,9.7,0,0,1,8.49.07,11.7,11.7,0,0,0,8.64-.18l6,19.22c.06,3.82-2.36,6.21-5,6.43-7,1.2-14.69,1.1-20.57-.74-2.73-1.16-3.29-3.18-2.76-6.43Z"/><path class="cls-134" d="M1013.79,318.6h9.56a1,1,0,0,1,0,1.47l-.23,17,9.79,32.55a3.14,3.14,0,0,1,.14,1c0,2.75-1.74,4.3-4.37,5.17a56.12,56.12,0,0,1-19.48,0,4.55,4.55,0,0,1-4.18-3.06,6.91,6.91,0,0,1-.15-4.38l8.84-31.24-.1-17.2A.72.72,0,0,1,1013.79,318.6Z"/></g><g id="blueBeaker-2" data-name="blueBeaker"><g class="cls-18"><path class="cls-19" d="M867.48,300.07h10a1,1,0,0,1,0,1.54l-.24,17.86,10.27,34.13a3.16,3.16,0,0,1,.14,1c0,2.88-1.82,4.51-4.58,5.43a59.37,59.37,0,0,1-20.43,0,4.82,4.82,0,0,1-4.39-3.21,7.31,7.31,0,0,1-.15-4.6l9.27-32.76-.1-18.05A.75.75,0,0,1,867.48,300.07Z"/></g><path class="cls-136" d="M863.43,333.44a10.18,10.18,0,0,1,8.91.08,12.25,12.25,0,0,0,9.06-.19l6.31,20.15c.06,4-2.48,6.52-5.2,6.75-7.37,1.26-15.42,1.15-21.58-.77-2.86-1.23-3.46-3.34-2.89-6.75Z"/><path class="cls-21" d="M867.48,300.07h10a1,1,0,0,1,0,1.54l-.24,17.86,10.27,34.13a3.16,3.16,0,0,1,.14,1c0,2.88-1.82,4.51-4.58,5.43a59.37,59.37,0,0,1-20.43,0,4.82,4.82,0,0,1-4.39-3.21,7.31,7.31,0,0,1-.15-4.6l9.27-32.76-.1-18.05A.75.75,0,0,1,867.48,300.07Z"/></g><g id="blueBeaker-3" data-name="blueBeaker"><g class="cls-18"><path class="cls-19" d="M892.48,327.07h10a1,1,0,0,1,0,1.54l-.24,17.86,10.27,34.13a3.16,3.16,0,0,1,.14,1c0,2.88-1.82,4.51-4.58,5.43a59.37,59.37,0,0,1-20.43,0,4.82,4.82,0,0,1-4.39-3.21,7.31,7.31,0,0,1-.15-4.6l9.27-32.76-.1-18.05A.75.75,0,0,1,892.48,327.07Z"/></g><path class="cls-137" d="M888.43,360.44a10.18,10.18,0,0,1,8.91.08,12.25,12.25,0,0,0,9.06-.19l6.31,20.15c.06,4-2.48,6.52-5.2,6.75-7.37,1.26-15.42,1.15-21.58-.77-2.86-1.23-3.46-3.34-2.89-6.75Z"/><path class="cls-21" d="M892.48,327.07h10a1,1,0,0,1,0,1.54l-.24,17.86,10.27,34.13a3.16,3.16,0,0,1,.14,1c0,2.88-1.82,4.51-4.58,5.43a59.37,59.37,0,0,1-20.43,0,4.82,4.82,0,0,1-4.39-3.21,7.31,7.31,0,0,1-.15-4.6l9.27-32.76-.1-18.05A.75.75,0,0,1,892.48,327.07Z"/></g><g id="needle"><polygon class="cls-138" points="688.36 377.32 710.4 380.32 710.52 379.42 688.36 377.32"/><path class="cls-139" d="M718.58,379.14l-.37,3.5a21.08,21.08,0,0,1-3.59-.77,9.12,9.12,0,0,0-2.4-.67c-.53-.06-1.12-.18-1.78-.3a3.26,3.26,0,0,1,0-1.83,6.33,6.33,0,0,1,2.74,0,3.89,3.89,0,0,0,1.52,0A13.7,13.7,0,0,1,718.58,379.14Z"/><path class="cls-140" d="M718.8,378.37l-.61,5.3c3.48.47,5.24.11,5,2.86l46.17,6.62c.25,1.4.49,2.79,1.35,2.71a5.45,5.45,0,0,0,1.23-3.16l6,.7c.36,2.5,1.43,2.94,2,.28a32.27,32.27,0,0,0,1.29-8.65c-.25-2.81-1.24-2.68-2.15-.17l-6-.7a7.13,7.13,0,0,0-.08-3.57c-1.2-.58-1.63.87-2,2.36l-46.68-6.24C724.15,379.44,722.06,378.81,718.8,378.37Z"/><line class="cls-141" x1="727.85" y1="384.18" x2="728.59" y2="379.59"/><line class="cls-141" x1="730.94" y1="384.6" x2="731.68" y2="380.01"/><line class="cls-141" x1="734.03" y1="385.02" x2="734.77" y2="380.43"/><line class="cls-141" x1="737.11" y1="385.44" x2="737.85" y2="380.85"/><line class="cls-141" x1="740.2" y1="385.86" x2="740.94" y2="381.27"/><line class="cls-141" x1="743.29" y1="386.28" x2="744.03" y2="381.69"/><line class="cls-141" x1="746.38" y1="386.7" x2="747.12" y2="382.11"/><line class="cls-141" x1="749.46" y1="387.12" x2="750.2" y2="382.53"/><line class="cls-141" x1="752.55" y1="387.54" x2="753.29" y2="382.95"/><line class="cls-141" x1="755.64" y1="387.97" x2="756.38" y2="383.37"/><line class="cls-141" x1="758.72" y1="388.39" x2="759.46" y2="383.79"/><line class="cls-141" x1="761.81" y1="388.81" x2="762.55" y2="384.21"/><line class="cls-142" x1="771.93" y1="392.7" x2="773.13" y2="383.93"/></g><path id="leftShoe" class="cls-143" d="M125.26,674.29l25,9v4.9a1.52,1.52,0,0,1-1,1.45c-9.24,3.18-19.4,8.87-30,15.65-9.3,4.5-15.68,2.79-20.2-2.91a2.71,2.71,0,0,1-.49-2.36c1-3.64,3-7.08,8.69-9.73C116,686.76,122.46,681.76,125.26,674.29Z"/><path id="rightShoe" class="cls-143" d="M198.76,682.79c1,1.81-1.14,4.65.5,6.5,1.84,2.08,5.34,2.1,9,4s7.48,5.66,11.42,7.9c.67.38,1.73,1,2.37,1.47,10.62,6.91,16.56,4.88,20.74-.51a1.72,1.72,0,0,0-.3-2.38c-10.72-8.72-19.14-17.89-22.73-28Z"/><path id="neck" class="cls-144" d="M137.13,263.92l-1.76,15.87a2.49,2.49,0,0,1-2.79,2.2c-1.71-.23-3.78-.67-4.5-.83a.93.93,0,0,0-1.13.8c-2.94,21,45.79,25.21,44.32-.55a.62.62,0,0,0-1-.5c-1.23.83-6.78,1.35-7.19,0l-3-17Z"/><path id="shirt" class="cls-145" d="M171.12,280.37c-1,24.81-42.1,23.8-43.34,1.06a.63.63,0,0,0-.65-.61c-23.59,1.34-40.62,14.72-53.37,36,0,0-4.35,24-1.26,37.23a6.11,6.11,0,0,0,10,3.11c4-3.38,7.55-1.62,10.79,3.16,9.43,10.46,13.83,22.65,12,37l-4,57c27.85,9.61,62.62,10.28,102,5l-5-83c2.39-17.54,6.4-28.82,13.21-29.29,2.27-.16,7.79-42.71,7.79-42.71a25.64,25.64,0,0,0-3.16-5.54c-7.43-9.93-22.37-15.95-44.52-18.78A.42.42,0,0,0,171.12,280.37Z"/><path id="rightHand" class="cls-144" d="M88.35,429.92l23.92,4c2.72.37,2.83,4.54-1,4l-8-2c-2.32.1-1.74,2.79-1,3l11,7c3,2,4.2,5.46,0,4l-13-8c-1.24-.09-2.45.3-2.09,1.58l14,11.27.08.09c1,1.75.48,2.5-.78,2.77a1.21,1.21,0,0,1-.89-.16L97,447.47a1.19,1.19,0,0,0-1.46,0h0a.94.94,0,0,0,0,1.41l10.35,9.32c.54,2.21-.73,2.56-3.12,1.74a.2.2,0,0,1-.08,0L89.86,450a1.4,1.4,0,0,0-.61-.27l-10.42-1.82A3.1,3.1,0,0,1,77,446.83l-2.21-2.65a2,2,0,0,1-.23-1.94c2.2-4.49,7.12-7.85,13.62-12.27A.33.33,0,0,1,88.35,429.92Z"/><path id="leftSleave" class="cls-145" d="M98.26,290.29C87.91,312,86.51,332.14,87.13,354.92c-28,16-18.56,33.41-9.87,59.37l12,15-11.36,17a.77.77,0,0,1-1.25.05c-2.43-3.23-9.24-9.09-18.65-16.5a5.44,5.44,0,0,1-1.23-1.39c-19.69-32.79-19.41-58.85-3.51-80.2C69.6,318.78,85,296.2,98.26,290.29Z"/><path id="pants" class="cls-146" d="M101.26,455.29c-3.48,20.52,1.25,51.26,10,87,4.18,14,4.3,29.55,1.8,46a57.54,57.54,0,0,0,.7,21c5.27,24,8.41,47.6,10.5,65l27,11-2-79-1-58,4.8-41.58a2.41,2.41,0,0,1,4.66-.51l25.93,74.36a13,13,0,0,0,1.29,2.72c5,7.68,4.79,18.45,3.32,30-1.81,21.39.16,44.31,9,70l25-9,2-46-5-73a378.7,378.7,0,0,0-15-96C166.06,464.7,130.54,465.43,101.26,455.29Z"/><path id="rightHand-2" data-name="rightHand" class="cls-144" d="M211.05,425.92l-23.92,4c-2.72.37-2.83,4.54,1,4l8-2c2.32.1,1.73,2.79,1,3l-11,7c-3,2-4.2,5.46,0,4l13-8c1.24-.09,2.45.3,2.08,1.58l-14,11.27-.08.09c-1,1.75-.49,2.5.78,2.77a1.22,1.22,0,0,0,.89-.16l13.57-10a1.19,1.19,0,0,1,1.46,0h0a.94.94,0,0,1,0,1.41l-10.35,9.32c-.54,2.21.72,2.56,3.11,1.74a.19.19,0,0,0,.09,0l12.83-10a1.4,1.4,0,0,1,.61-.27l10.42-1.82a3.1,3.1,0,0,0,1.82-1.05l2.21-2.65a2,2,0,0,0,.23-1.94c-2.2-4.49-7.12-7.85-13.63-12.27A.27.27,0,0,0,211.05,425.92Z"/><ellipse id="head" class="cls-144" cx="148.26" cy="238.79" rx="26" ry="34.5"/><path class="cls-147" d="M187.54,586.93c3.16-2.38,6.43-4.09,10.27-3.24"/><line class="cls-147" x1="188.26" y1="591.29" x2="195.26" y2="588.29"/><path id="rightsleave" class="cls-145" d="M202.26,288.29c10,3.32,16.73,8.95,20,17l30,43h0c13.64,15.4,7.84,41.68-3.2,70.9a10.44,10.44,0,0,1-2.39,3.69l-18.41,18.41-19-17,13-10,8.91-26.71c.06-.19.2-.34.27-.53,2-5.89,1.88-11.79.16-18.44-.07-.29-.39-.47-.5-.76-6.08-16.67-13.62-23.65-22.84-19.56C212.14,330.68,210.3,310.74,202.26,288.29Z"/><path class="cls-148" d="M104.63,706.42c6.22-.76,27.35-12.42,44.92-21.49a.68.68,0,0,1,1,.58c.07,1.37.29,3.57-.9,3.91-7,2-21.22,9.72-31,16C112.43,708.2,107.73,708.58,104.63,706.42Z"/><line class="cls-147" x1="120.63" y1="681.42" x2="125.63" y2="685.42"/><line class="cls-147" x1="122.63" y1="679.42" x2="127.63" y2="683.42"/><line class="cls-147" x1="118.13" y1="683.92" x2="123.13" y2="687.92"/><line class="cls-147" x1="115.63" y1="686.42" x2="120.13" y2="689.92"/><line class="cls-147" x1="226.25" y1="683.45" x2="221.25" y2="687.45"/><line class="cls-147" x1="224.25" y1="681.45" x2="219.25" y2="685.45"/><line class="cls-147" x1="228.75" y1="685.95" x2="223.75" y2="689.95"/><line class="cls-147" x1="230.25" y1="688.45" x2="225.75" y2="691.95"/><path class="cls-148" d="M199,684.57c15.92,9.17,32.45,18.82,39.66,21.07-6.47,2.44-14.36.53-24.5-8.3-2.22-2.21-5.93-4-10.21-5.67C199.18,690.77,197.7,688.32,199,684.57Z"/><path class="cls-149" d="M142.21,251.6s6.67,3.72,11.16-.62C153.37,251,149.5,260,142.21,251.6Z"/><path class="cls-150" d="M152.35,237.36c.15-.45,5.48-6.82,14.38-2.67l-.87,1.14a9.36,9.36,0,0,1-13.51,1.53Z"/><path class="cls-151" d="M151.42,233a13.46,13.46,0,0,1,16.13.11l.66-3.47S157,224,151.42,233Z"/><circle class="cls-151" cx="159.62" cy="236.75" r="3.02" transform="translate(-107.48 337.71) rotate(-76.72)"/><path class="cls-152" d="M163.18,236a1,1,0,1,1-1-1A1,1,0,0,1,163.18,236Z"/><path class="cls-150" d="M142.68,237.11c-.14-.45-5.48-6.82-14.38-2.67l.87,1.14a9.36,9.36,0,0,0,13.51,1.53Z"/><path class="cls-151" d="M143.61,232.79a13.46,13.46,0,0,0-16.13.11l-.66-3.47S138.05,223.72,143.61,232.79Z"/><circle class="cls-151" cx="135.42" cy="236.5" r="3.02" transform="translate(-50.71 37.44) rotate(-13.28)"/><path class="cls-152" d="M137.13,235.78a1,1,0,1,0,1-1A1,1,0,0,0,137.13,235.78Z"/><path class="cls-153" d="M145.77,263.39c2.54,1,4.34,1.44,7,.42a12.6,12.6,0,0,0,5.14-3.71.62.62,0,0,0-.75-1c-3.74,1.93-6.53,5-11.12,3.32-.59-.21-.82.7-.26.93Z"/><path class="cls-154" d="M148.34,210.3s-15.27-4.7-21.44,1.76c0,0-10.27,31.42-4.4,67.83,0,0-9.69,4.41-19.68-9.1l-1.59-46A36.6,36.6,0,0,1,118,192.59c7.53-4.77,17.11-6.92,27.94-.42C147.53,193.11,148.34,210.3,148.34,210.3Z"/><path class="cls-151" d="M144.73,208.36S113,209,127.11,273.84a34.82,34.82,0,0,1-7.63-14.68l-1.77,2.64s-8.81-14.68-10-28.78S124.5,177,144.73,208.36Z"/><path class="cls-151" d="M145.46,207.7s12.41-.46,18.57,6c0,0,13.15,27.18,7.27,63.59,0,0,9.69,4.41,19.68-9.1l1.59-46A36.6,36.6,0,0,0,175.78,190c-7.53-4.77-18.16-4.83-29,1.66C145.22,192.6,145.46,207.7,145.46,207.7Z"/></g></g></svg>