<svg xmlns="http://www.w3.org/2000/svg" viewBox="0 0 216.27 504.56">
  <defs>
    <style>
      .cls-1 {
        fill: #4d4d4d;
      }

      .cls-1, .cls-2, .cls-3, .cls-4, .cls-5 {
        stroke: #000;
        stroke-miterlimit: 10;
      }

      .cls-2 {
        fill: #e7fffd;
      }

      .cls-3 {
        fill: #ff846f;
      }

      .cls-4 {
        fill: none;
      }

      .cls-5 {
        fill: #1f7cff;
      }
    </style>
  </defs>
  <title>Asset-2</title>
  <g id="Layer_2" data-name="Layer 2">
    <g id="Layer_1-2" data-name="Layer 1">
      <g>
        <path id="leftShoe" class="cls-1" d="M83.65,470.5l25,9v4.9a1.54,1.54,0,0,1-1,1.45c-9.25,3.18-19.41,8.87-30,15.65-9.3,4.5-15.69,2.79-20.2-2.91a2.68,2.68,0,0,1-.49-2.36c1-3.65,3-7.08,8.69-9.73C74.34,483,80.85,478,83.65,470.5Z"/>
        <path id="rightShoe" class="cls-1" d="M157.15,479c1,1.8-1.14,4.65.5,6.5,1.84,2.08,5.33,2.1,9,4s7.48,5.66,11.42,7.9c.66.37,1.72,1.05,2.36,1.46,10.63,6.92,16.57,4.88,20.74-.5a1.72,1.72,0,0,0-.29-2.38c-10.72-8.72-19.14-17.89-22.73-28Z"/>
        <path id="neck" class="cls-2" d="M91.65,60.5l-4.5,21c-3,20,46,25,41-1l-5.5-21Z"/>
        <path id="shirt" class="cls-3" d="M129.15,76c-.5,25.5-42.5,24.5-43,1-23.92,1.13-41.14,14.56-54,36l-26,40c-6.7,13.23-7.53,27.86-2,44,7.51,21.93,18.82,36.32,33,45l13-17-13.5-15.5-8-29c-3.91-6.14.78-13.84,8-22,5.68-7.83,10.67-8.37,15-2,9.42,10.46,13.83,22.65,12,37l-4,57c27.84,9.61,62.62,10.27,102,5l-5-83c3.18-23.39,9.25-35.64,21-26l9,17c3.8,4.88,4.94,8.92,3,12l-11,34-12,11,17,17,19-21,10-26c4.69-16.76,4.41-31.4-3-43l-32-47C172.15,87.19,155.43,79.29,129.15,76Z"/>
        <path id="leftSleave" class="cls-4" d="M57.65,85.5c-10.35,21.72-12.62,44.22-12,67-28,16-17.69,31-9,57l12,15-12,18c-1.7-3-9.22-9.53-20-18-20.19-33.16-20-59.48-4-81C29,114,44.42,91.41,57.65,85.5Z"/>
        <path id="rightsleave" class="cls-4" d="M157.65,84.5c10,3.32,16.72,8.94,20,17l30,43c14,15.77,7.54,42.95-4,73l-20,20-19-17,13-10,9-27c4.8-6.48,6.76-12.87,0-19-6.11-17-13.7-24.13-23-20C167.52,126.88,165.68,107,157.65,84.5Z"/>
        <path id="pants" class="cls-5" d="M59.65,251.5c-3.48,20.52,1.25,51.25,10,87,4.18,14,4.29,29.55,1.8,46a57.71,57.71,0,0,0,.69,21c5.28,24,8.41,47.6,10.51,65l27,11-2-79-1-58,4.79-41.58a2.41,2.41,0,0,1,4.66-.52L142,376.76a12.76,12.76,0,0,0,1.28,2.72c5,7.69,4.8,18.46,3.33,30-1.82,21.39.16,44.3,9,70l25-9,2-46-5-73a379.08,379.08,0,0,0-15-96C124.45,260.9,88.92,261.64,59.65,251.5Z"/>
        <path id="leftHand" class="cls-2" d="M52.65,223.5l23-3c3.1,1.69,2.72,3.36,0,5l-8,1c-1.55.44-1.77,1.5-1,3l12,7c1.88,3,1.57,4-1,5l-14-8c-1.25,0-1.48.76-1,2l15,10c1.35,1.9.62,2.69-1,3l-17-9v1l12,9c.73,2.17-.52,2.62-3,2l-14-9-12-1-1.57-1.57a1,1,0,0,1-.26-1C42.41,233.9,46.23,228.77,52.65,223.5Z"/>
        <path id="rightHand" class="cls-2" d="M168.48,222.86l-23.17-.92c-2.94,2-2.41,3.59.45,5l8.05.28c1.58.3,1.89,1.33,1.27,2.89l-11.33,8c-1.61,3.13-1.21,4.11,1.45,4.89l13.22-9.22c1.25-.09,1.54.62,1.18,1.9l-14,11.31c-1.18,2-.38,2.73,1.26,2.9L163,239.43l.09,1-11.15,10c-.54,2.23.75,2.56,3.17,1.73L168.2,242l11.86-2.08,1.42-1.7a1,1,0,0,0,.17-1C179.62,232.3,175.34,227.53,168.48,222.86Z"/>
        <ellipse id="head" class="cls-2" cx="106.65" cy="35" rx="26" ry="34.5"/>
        <path class="cls-4" d="M145.93,383.14c3.16-2.38,6.43-4.09,10.27-3.24"/>
        <line class="cls-4" x1="146.65" y1="387.5" x2="153.65" y2="384.5"/>
      </g>
    </g>
  </g>
</svg>
