<svg xmlns="http://www.w3.org/2000/svg" viewBox="0 0 1121.45 667.07"><defs><style>.cls-1{font-size:200px;font-family:FrederickatheGreatest, Fredericka the Greatest;letter-spacing:0.07em;}.cls-2{font-size:82.64px;font-family:BentonSansCondensed-Thin, Benton Sans Condensed;font-weight:200;}.cls-3{letter-spacing:0em;}.cls-4{letter-spacing:-0.01em;}.cls-5{letter-spacing:-0.05em;}.cls-6{letter-spacing:-0.01em;}.cls-7{letter-spacing:-0.01em;}.cls-8{fill:#4d4d4d;}.cls-10,.cls-11,.cls-12,.cls-8,.cls-9{stroke:#000;stroke-miterlimit:10;}.cls-9{fill:#e7fffd;}.cls-10{fill:#ff846f;}.cls-11{fill:none;}.cls-12{fill:#1f7cff;}</style></defs><title>Asset 3</title><g id="Layer_2" data-name="Layer 2"><g id="Layer_1-2" data-name="Layer 1"><text class="cls-1" transform="translate(278.27 174.97)">Clinical<tspan x="196.6" y="240">Trials</tspan></text><text class="cls-2" transform="translate(727.41 520.08)">Wh<tspan class="cls-3" x="99.46" y="0">a</tspan><tspan x="135.33" y="0">t do</tspan><tspan class="cls-3" x="249.32" y="0"> </tspan><tspan class="cls-4" x="263.69" y="0">y</tspan><tspan x="297.18" y="0">ou </tspan><tspan class="cls-5" x="12.17" y="99.17">r</tspan><tspan class="cls-6" x="33.35" y="99.17">e</tspan><tspan x="68.9" y="99.17">all</tspan><tspan class="cls-3" x="134.06" y="99.17">y</tspan><tspan x="168.52" y="99.17" xml:space="preserve"> kn</tspan><tspan class="cls-4" x="255.52" y="99.17">o</tspan><tspan class="cls-7" x="292.48" y="99.17">w</tspan><tspan x="341.26" y="99.17">?</tspan></text><path id="leftShoe" class="cls-8" d="M83.65,633l25,9v4.9a1.54,1.54,0,0,1-1,1.45c-9.25,3.18-19.41,8.87-30,15.65-9.3,4.5-15.69,2.79-20.2-2.91a2.68,2.68,0,0,1-.49-2.36c1-3.65,3-7.08,8.69-9.73C74.34,645.48,80.85,640.48,83.65,633Z"/><path id="rightShoe" class="cls-8" d="M157.15,641.51c1,1.8-1.14,4.65.5,6.5,1.84,2.08,5.33,2.1,9,4s7.48,5.66,11.42,7.9c.66.37,1.72,1.05,2.36,1.46,10.63,6.92,16.57,4.88,20.74-.5a1.72,1.72,0,0,0-.29-2.38c-10.72-8.72-19.14-17.89-22.73-28Z"/><path id="neck" class="cls-9" d="M91.65,223l-4.5,21c-3,20,46,25,41-1l-5.5-21Z"/><path id="shirt" class="cls-10" d="M129.15,238.51c-.5,25.5-42.5,24.5-43,1-23.92,1.13-41.14,14.56-54,36l-26,40c-6.7,13.23-7.53,27.86-2,44,7.51,21.93,18.82,36.32,33,45l13-17L36.65,372l-8-29c-3.91-6.14.78-13.84,8-22,5.68-7.83,10.67-8.37,15-2,9.42,10.46,13.83,22.65,12,37l-4,57c27.84,9.61,62.62,10.27,102,5l-5-83c3.18-23.39,9.25-35.64,21-26l9,17c3.8,4.88,4.94,8.92,3,12l-11,34-12,11,17,17,19-21,10-26c4.69-16.76,4.41-31.4-3-43l-32-47C172.15,249.7,155.43,241.8,129.15,238.51Z"/><path id="leftSleave" class="cls-11" d="M57.65,248c-10.35,21.72-12.62,44.22-12,67-28,16-17.69,31-9,57l12,15-12,18c-1.7-3-9.22-9.53-20-18-20.19-33.16-20-59.48-4-81C29,276.5,44.42,253.92,57.65,248Z"/><path id="rightsleave" class="cls-11" d="M157.65,247c10,3.32,16.72,8.94,20,17l30,43c14,15.77,7.54,42.95-4,73l-20,20-19-17,13-10,9-27c4.8-6.48,6.76-12.87,0-19-6.11-17-13.7-24.13-23-20C167.52,289.39,165.68,269.46,157.65,247Z"/><path id="pants" class="cls-12" d="M59.65,414c-3.48,20.52,1.25,51.25,10,87,4.18,14,4.29,29.55,1.8,46a57.71,57.71,0,0,0,.69,21c5.28,24,8.41,47.6,10.51,65l27,11-2-79-1-58,4.79-41.58a2.4,2.4,0,0,1,4.66-.51L142,539.27a12.76,12.76,0,0,0,1.28,2.72c5,7.69,4.8,18.46,3.33,30-1.82,21.39.16,44.31,9,70l25-9,2-46-5-73a379.08,379.08,0,0,0-15-96C124.45,423.41,88.92,424.15,59.65,414Z"/><path id="leftHand" class="cls-9" d="M52.65,386l23-3c3.1,1.69,2.72,3.36,0,5l-8,1c-1.55.44-1.77,1.5-1,3l12,7c1.88,3,1.57,4-1,5l-14-8c-1.25,0-1.48.76-1,2l15,10c1.35,1.9.62,2.69-1,3l-17-9v1l12,9c.73,2.17-.52,2.62-3,2l-14-9-12-1-1.57-1.57a1,1,0,0,1-.26-1C42.41,396.41,46.23,391.28,52.65,386Z"/><path id="rightHand" class="cls-9" d="M168.48,385.37l-23.17-.92c-2.94,2-2.41,3.59.45,5l8.05.28c1.58.3,1.89,1.33,1.27,2.89l-11.33,8c-1.61,3.13-1.21,4.11,1.45,4.89l13.22-9.22c1.25-.09,1.54.62,1.18,1.9l-14,11.31c-1.18,2-.38,2.73,1.26,2.9L163,401.94l.09,1-11.15,10c-.54,2.23.75,2.56,3.17,1.73l13.14-10.22,11.86-2.08,1.42-1.7a1,1,0,0,0,.17-1C179.62,394.81,175.34,390,168.48,385.37Z"/><ellipse id="head" class="cls-9" cx="106.65" cy="197.51" rx="26" ry="34.5"/><path class="cls-11" d="M145.93,545.65c3.16-2.38,6.43-4.09,10.27-3.24"/><line class="cls-11" x1="146.65" y1="550.01" x2="153.65" y2="547.01"/></g></g></svg>