<svg xmlns="http://www.w3.org/2000/svg" viewBox="0 0 1164.99 579.6">
  <defs>
    <style>
      .cls-1, .cls-6 {
        fill: none;
      }

      .cls-1, .cls-2 {
        stroke: #ccc;
        stroke-width: 4px;
      }

      .cls-1, .cls-10, .cls-12, .cls-2, .cls-6, .cls-8, .cls-9 {
        stroke-miterlimit: 10;
      }

      .cls-2, .cls-3, .cls-8 {
        fill: #ccc;
      }

      .cls-10, .cls-4 {
        fill: #f2f2f2;
      }

      .cls-5 {
        fill: #fff;
      }

      .cls-6 {
        stroke: #e6e6e6;
        stroke-width: 3px;
      }

      .cls-7 {
        fill: #e6e6e6;
      }

      .cls-10, .cls-12, .cls-8, .cls-9 {
        stroke: #000;
      }

      .cls-12, .cls-9 {
        fill: #4d4d4d;
      }

      .cls-9 {
        stroke-width: 1.1px;
      }

      .cls-11 {
        fill: #f4ffed;
      }

      .cls-13 {
        fill: #daffd8;
      }
    </style>
  </defs>
  <title>myth_3_background_1</title>
  <g id="Layer_2" data-name="Layer 2">
    <g id="Layer_4" data-name="Layer 4">
      <g id="background">
        <g>
          <line class="cls-1" x1="1105.29" y1="2" x2="1105.29" y2="356.43"/>
          <rect class="cls-2" x="1098.23" y="152.72" width="25.91" height="69.47"/>
          <path class="cls-1" d="M1061,381.16V364.55c0-4.38,4.44-8,9.86-8h74.74c5.42,0,9.85,3.59,9.85,8v16.61"/>
          <path class="cls-1" d="M1084.82,381.16V364.55c0-4.38,2.2-8,4.89-8h37c2.69,0,4.89,3.59,4.89,8v16.61"/>
          <circle class="cls-1" cx="1060.55" cy="388.22" r="7.07"/>
          <circle class="cls-1" cx="1085.28" cy="388.22" r="7.07"/>
          <circle class="cls-1" cx="1131.2" cy="388.22" r="7.07"/>
          <circle class="cls-1" cx="1155.93" cy="388.22" r="7.07"/>
          <path class="cls-1" d="M1061.14,25.55V16.13A14.17,14.17,0,0,1,1075.27,2h60a14.17,14.17,0,0,1,14.13,14.13v9.42"/>
          <rect class="cls-1" x="1137.09" y="25.55" width="23.55" height="60.05" rx="11.78"/>
          <rect class="cls-3" x="1137.09" y="57.34" width="23.55" height="28.26" rx="6.59"/>
          <rect class="cls-1" x="1049.95" y="25.55" width="23.55" height="60.05" rx="11.78"/>
          <rect class="cls-3" x="1049.95" y="57.34" width="23.55" height="28.26" rx="6.59"/>
        </g>
        <g>
          <rect class="cls-4" x="284.35" y="22.64" width="375" height="225"/>
          <rect class="cls-5" x="309.12" y="34.91" width="149.75" height="88.38"/>
          <rect class="cls-5" x="483.12" y="34.91" width="149.75" height="88.38"/>
          <rect class="cls-5" x="309.12" y="141.27" width="149.75" height="88.38"/>
          <rect class="cls-5" x="483.12" y="141.27" width="149.75" height="88.38"/>
        </g>
        <g>
          <path class="cls-6" d="M57,140.3c24,24.06,32.94,65.18,35,114"/>
          <path class="cls-6" d="M124.5,178.8c-24,24-31.46,39.09-28.5,70.5"/>
          <path class="cls-6" d="M105,125.3c-12.76,34.84-14,75.45-14,119"/>
          <g>
            <circle class="cls-3" cx="42" cy="134.3" r="5.5"/>
            <ellipse class="cls-7" cx="42" cy="118.3" rx="4" ry="9"/>
            <ellipse class="cls-7" cx="42" cy="150.3" rx="4" ry="9"/>
            <ellipse class="cls-7" cx="58" cy="134.3" rx="9" ry="4"/>
            <ellipse class="cls-7" cx="26" cy="134.3" rx="9" ry="4"/>
            <ellipse class="cls-7" cx="53.31" cy="122.99" rx="9" ry="4" transform="translate(-71.35 73.72) rotate(-45)"/>
            <ellipse class="cls-7" cx="30.69" cy="145.62" rx="9" ry="4" transform="translate(-93.98 64.35) rotate(-45)"/>
            <ellipse class="cls-7" cx="53.31" cy="145.62" rx="4" ry="9" transform="translate(-87.35 80.35) rotate(-45)"/>
            <ellipse class="cls-7" cx="30.69" cy="122.99" rx="4" ry="9" transform="translate(-77.98 57.72) rotate(-45)"/>
          </g>
          <g>
            <circle class="cls-3" cx="141" cy="172.3" r="5.5"/>
            <ellipse class="cls-7" cx="141" cy="156.3" rx="4" ry="9"/>
            <ellipse class="cls-7" cx="141" cy="188.3" rx="4" ry="9"/>
            <ellipse class="cls-7" cx="157" cy="172.3" rx="9" ry="4"/>
            <ellipse class="cls-7" cx="125" cy="172.3" rx="9" ry="4"/>
            <ellipse class="cls-7" cx="152.31" cy="160.99" rx="9" ry="4" transform="translate(-69.22 154.85) rotate(-45)"/>
            <ellipse class="cls-7" cx="129.69" cy="183.62" rx="9" ry="4" transform="translate(-91.85 145.48) rotate(-45)"/>
            <ellipse class="cls-7" cx="152.31" cy="183.62" rx="4" ry="9" transform="translate(-85.22 161.48) rotate(-45)"/>
            <ellipse class="cls-7" cx="129.69" cy="160.99" rx="4" ry="9" transform="translate(-75.85 138.85) rotate(-45)"/>
          </g>
          <g>
            <circle class="cls-3" cx="112" cy="109.3" r="5.5"/>
            <ellipse class="cls-7" cx="112" cy="93.3" rx="4" ry="9"/>
            <ellipse class="cls-7" cx="112" cy="125.3" rx="4" ry="9"/>
            <ellipse class="cls-7" cx="128" cy="109.3" rx="9" ry="4"/>
            <ellipse class="cls-7" cx="96" cy="109.3" rx="9" ry="4"/>
            <ellipse class="cls-7" cx="123.31" cy="97.99" rx="9" ry="4" transform="translate(-33.17 115.9) rotate(-45)"/>
            <ellipse class="cls-7" cx="100.69" cy="120.62" rx="9" ry="4" transform="translate(-55.8 106.52) rotate(-45)"/>
            <ellipse class="cls-7" cx="123.31" cy="120.62" rx="4" ry="9" transform="translate(-49.17 122.52) rotate(-45)"/>
            <ellipse class="cls-7" cx="100.69" cy="97.99" rx="4" ry="9" transform="translate(-39.8 99.9) rotate(-45)"/>
          </g>
          <g>
            <path class="cls-7" d="M145,291.47c0,29.55-13.77,27.83-53,27.83S39,321,39,291.47,49,212.3,92,212.3C133.31,212.3,145,261.93,145,291.47Z"/>
            <rect class="cls-7" x="57" y="210.3" width="70" height="9" rx="3.88"/>
          </g>
          <g>
            <rect class="cls-7" y="314.3" width="184" height="29"/>
            <rect class="cls-7" x="10" y="343.3" width="163" height="119"/>
            <rect class="cls-7" x="10" y="462.3" width="10" height="30"/>
            <rect class="cls-7" x="163" y="462.3" width="10" height="30"/>
            <rect class="cls-7" x="137" y="462.3" width="10" height="24"/>
            <rect class="cls-7" x="36" y="462.3" width="10" height="24"/>
            <rect class="cls-3" x="26" y="356.3" width="131" height="37.12"/>
            <rect class="cls-3" x="26" y="406.18" width="131" height="37.12"/>
            <circle class="cls-7" cx="91.5" cy="374.86" r="5"/>
            <circle class="cls-7" cx="92" cy="425.3" r="5"/>
          </g>
        </g>
      </g>
      <g id="bed">
        <polygon class="cls-8" points="1028.01 112.1 1078.01 110.1 1079.01 261.1 636.01 474.1 626.01 399.1 1028.01 112.1"/>
        <g>
          <ellipse class="cls-9" cx="473.51" cy="495.6" rx="8.5" ry="21.5"/>
          <polygon class="cls-10" points="466.01 363.1 466.01 477.1 480.01 478.1 479.01 431.1 491.01 427.1 490.61 407.85 552.01 398.1 466.01 363.1"/>
        </g>
        <polygon id="base" class="cls-10" points="1028.01 303.1 1028.49 388.1 1017.49 391.1 1016.01 315.1 749.01 446.1 749.49 533.1 735.49 541.1 734.49 522.1 713.49 509.1 713.49 491.1 680.49 474.1 1028.01 303.1"/>
        <g id="matress">
          <path class="cls-11" d="M634,321.25,437.62,247.13l323.65-86.64,69.42-79a80.37,80.37,0,0,1,74.07-23.69l106.43,21a31.19,31.19,0,0,1,24.7,25.74l4.67,30.08a15.68,15.68,0,0,1-2.29,10.87l-74,115.85a82.93,82.93,0,0,1-39.85,32.76L635,406.87Z"/>
          <path d="M889.16,56.73a79.93,79.93,0,0,1,15.5,1.52l106.43,21a30.69,30.69,0,0,1,24.31,25.33l4.67,30.08a15.22,15.22,0,0,1-2.22,10.52l-74,115.85a82.45,82.45,0,0,1-39.61,32.56L635.5,406.14l-1-84.55v-.69l-.63-.24L439.25,247.21l322-86.19.29-.08.2-.23L831,81.81a80.2,80.2,0,0,1,58.12-25.08m0-1a80.91,80.91,0,0,0-58.85,25.39L761,160.05l-325,87L633.51,321.6l1,86,290.09-113a84,84,0,0,0,40.08-32.95l74-115.85a16.17,16.17,0,0,0,2.36-11.22l-4.66-30.08a31.6,31.6,0,0,0-25.1-26.15l-106.44-21a81,81,0,0,0-15.69-1.54Z"/>
        </g>
        <polygon id="upperFrame" class="cls-10" points="435.49 214.1 434.49 223.1 618.49 293.1 621.49 286.1 630.49 283.1 636.49 287.1 635.49 465.1 1076.01 256.1 1075.49 116.1 1038.01 114.1 1034.01 98.1 1070.01 102.1 1085.49 101.1 1085.49 276.1 631.49 498.1 622.49 495.1 622.49 456.1 431.49 361.1 434.49 390.1 428.49 394.1 422.49 392.1 421.49 213.1 435.49 214.1"/>
        <g id="wheels">
          <ellipse class="cls-12" cx="1025.49" cy="406.1" rx="7" ry="18"/>
          <ellipse class="cls-12" cx="744.49" cy="557.6" rx="7" ry="21.5"/>
        </g>
        <g>
          <path class="cls-13" d="M636,344l277-97.28a12.09,12.09,0,0,0,5.44-3.85L1034.24,99.73c.91,4.29,1.76,8.13,2.53,11.6,5,22.45,6.44,29.22-1.42,38.34l-57.26,89.66c-21.2,39-37.6,52.33-79.79,65l-262.16,102Z"/>
          <path d="M1034,100.86c.83,3.89,1.61,7.42,2.31,10.59,5,22.83,6.39,29-1.31,37.89l0,0,0,.07-57.22,89.6,0,0,0,0c-21.1,38.8-37.44,52.11-79.48,64.73h0l0,0L636.63,405.63l-.12-61.32,276.7-97.17a12.65,12.65,0,0,0,5.66-4L1034,100.86m.54-2.26L918.09,242.51a11.54,11.54,0,0,1-5.21,3.68L635.51,343.6l.13,63.5,262.8-102.29C940,292.32,957,279.24,978.51,239.6L1035.73,150c9.35-10.84,5.79-18.17-1.22-51.39Z"/>
        </g>
        <g>
          <polygon class="cls-5" points="452.01 344.27 451.02 261.33 586 313.94 584.03 401.84 452.01 344.27"/>
          <path d="M451.53,262.07l134,52.21-2,86.81-131-57.15-1-81.87m-1-1.47,1,84,133,58,2-89-136-53Z"/>
        </g>
      </g>
    </g>
  </g>
</svg>
