<svg xmlns="http://www.w3.org/2000/svg" viewBox="0 0 901.01 603.24">
  <defs>
    <style>
      .cls-1 {
        fill: #e6e6e6;
      }

      .cls-2, .cls-6 {
        fill: #ccc;
      }

      .cls-10, .cls-14, .cls-3, .cls-4 {
        fill: none;
      }

      .cls-3, .cls-4 {
        stroke: #ccc;
      }

      .cls-10, .cls-11, .cls-12, .cls-13, .cls-14, .cls-3, .cls-4, .cls-6, .cls-7, .cls-8, .cls-9 {
        stroke-miterlimit: 10;
      }

      .cls-3 {
        stroke-width: 4px;
      }

      .cls-4 {
        stroke-width: 5px;
      }

      .cls-5, .cls-7 {
        fill: #fff;
      }

      .cls-10, .cls-11, .cls-12, .cls-13, .cls-14, .cls-6, .cls-7, .cls-8, .cls-9 {
        stroke: #000;
      }

      .cls-8 {
        fill: #deffeb;
      }

      .cls-9 {
        fill: #4983ff;
      }

      .cls-11 {
        fill: #aeb4ff;
        stroke-width: 0.5px;
      }

      .cls-12 {
        fill: #999;
      }

      .cls-13 {
        fill: #666;
      }

      .cls-13, .cls-14 {
        stroke-width: 0.75px;
      }
    </style>
  </defs>
  <title>myth_1_background</title>
  <g id="Layer_2" data-name="Layer 2">
    <g id="Layer_3" data-name="Layer 3">
      <g id="background">
        <g>
          <rect class="cls-1" x="337.01" y="322.93" width="564" height="36"/>
          <rect class="cls-1" x="374.01" y="361.68" width="490" height="225.5"/>
        </g>
        <g>
          <rect class="cls-2" x="374.01" y="312.93" width="49" height="9"/>
          <line class="cls-3" x1="399.01" y1="296.93" x2="399.01" y2="314.93"/>
          <line class="cls-3" x1="426.01" y1="216.93" x2="373.01" y2="298.93"/>
          <circle class="cls-1" cx="398.51" cy="259.43" r="33.5"/>
          <path class="cls-3" d="M420,226.26a39.51,39.51,0,0,1-42.89,66.36"/>
        </g>
        <ellipse class="cls-1" cx="432.01" cy="140.93" rx="93" ry="40"/>
        <g>
          <g id="chair">
            <polygon class="cls-2" points="90.02 459.93 0.01 463.93 0.01 358.93 89.02 355.93 90.02 459.93"/>
            <polygon class="cls-2" points="145.01 483.93 51.31 488.93 0 468.93 93.7 463.93 145.01 483.93"/>
            <line class="cls-4" x1="3.51" y1="471.93" x2="3.51" y2="543.93"/>
            <line class="cls-4" x1="47.51" y1="491.93" x2="47.51" y2="563.93"/>
            <line class="cls-4" x1="138.51" y1="488.93" x2="138.51" y2="560.93"/>
            <line class="cls-4" x1="92.51" y1="467.93" x2="92.51" y2="539.93"/>
          </g>
          <ellipse class="cls-1" cx="84.01" cy="313.18" rx="22.5" ry="30.75" transform="matrix(0.99, -0.15, 0.15, 0.99, -44.66, 15.55)"/>
          <path class="cls-1" d="M99.94,453.93c-13.14,3.56-29.72,3.48-50.48-1-6.46-39.62-13.14-79.47-1.8-99.1a13,13,0,0,1,9.84-6.53,235.55,235.55,0,0,1,41.61-.49c7.08.51,12.71,6.68,12.87,14.28C112.77,398.47,99.94,423.38,99.94,453.93Z"/>
          <path class="cls-1" d="M130,485.93a443.45,443.45,0,0,0-52-30l-28-4c-5.2,7.78-5.45,15.13,0,22l51.4,23.36c5.56,19.47,4.6,37.41,4.6,70.64l12-4C121.39,550.37,130.55,524.61,130,485.93Z"/>
          <path class="cls-1" d="M159,480.93c-7-7-30-22-43-27-5.11-1.05-10.38-2.33-14-2-7.53,2.33-14.58,4.19-23,4,16.57,11.36,29.59,20.9,58,33,6.1,28.11,6,45,5,68l12-4C162.19,520.35,160.12,498.9,159,480.93Z"/>
          <ellipse class="cls-1" cx="121.68" cy="568.21" rx="5.5" ry="16" transform="matrix(0.07, -1, 1, 0.07, -453.55, 650.62)"/>
          <ellipse class="cls-1" cx="157.35" cy="556.64" rx="5.5" ry="16" transform="translate(-408.78 675.43) rotate(-86.07)"/>
          <path class="cls-1" d="M188.51,205.93c-42.25,0-76.5,17.46-76.5,39,0,7.54,4.22,14.58,11.49,20.55L116,284.93l26.51-8.84c12.81,4.92,28.73,7.84,46,7.84,42.25,0,76.5-17.46,76.5-39S230.76,205.93,188.51,205.93Z"/>
          <rect class="cls-1" x="25.62" y="283.66" width="16.1" height="97.05" rx="6.19" transform="translate(-139.88 46.95) rotate(-25.53)"/>
          <rect class="cls-1" x="123.46" y="277.67" width="16.99" height="90" rx="6.03" transform="translate(214.31 -16.07) rotate(35.91)"/>
          <path class="cls-5" d="M89,334.93c-5,.22-9.17-3.11-10-10,6.27,2.54,13,2,20,0C97.42,331.58,95.14,335,89,334.93Z"/>
        </g>
      </g>
      <g id="doctor">
        <path id="leftShoe" class="cls-6" d="M650.34,566c-4.37,5.1-12.86,9.54-23.85,13.58a4.31,4.31,0,0,0,.23,8.17c13.61,4.24,31.23-.94,50.62-4.75,9.35-1.83,16.58-.1,26.68-3l-1.68-18Z"/>
        <path class="cls-7" d="M661,95l11-8v3c10.43,2.6,20.2,2.19,29.79-1.57L702,82l11-1-36,84-36-20Z"/>
        <path class="cls-8" d="M672,84v6c6.2,3,15.25,3.31,29.79-1.57l-.26-10.19Z"/>
        <path id="rightShoe" class="cls-6" d="M754.34,572v18l-17.89,8.48a12.57,12.57,0,0,1-2.3.81c-22.46,5.47-31.2,4-32.78-1.18a5.89,5.89,0,0,1,1.43-5.67c7.52-8.15,13.09-15.43,14.32-20.78a3.17,3.17,0,0,1,3.38-2.4Z"/>
        <path id="legs" class="cls-9" d="M636.34,246l106,1,3,139.06a20.85,20.85,0,0,0,.45,3.85c9.56,45.42,10.23,83.57,6.68,118.24-.06.57-.14,1.13-.25,1.69-3.63,19.05-1.38,42.71,3.16,68.16-11-4.2-24.7-6.14-42-5l.94-39.46a5.74,5.74,0,0,1,1.64-3.94c7.3-7.24,6.12-18.05-1.58-31.6L699,431.74a.28.28,0,0,0-.56.07L703,571c-16.34-6.52-34.86-5.2-54-5,11.77-8.9,12.71-24.88,1-38.17a20.78,20.78,0,0,1-5.21-12.32L636.34,392Z"/>
        <ellipse id="head" class="cls-8" cx="684.34" cy="44.5" rx="27.5" ry="44"/>
        <path id="rightSideCoat" class="cls-7" d="M708,80l-29.68,52c-6,11.56-7.94,21.42-7,30l-4,222c41.13,2.53,77.67,3.75,83-4l-1-154-6-72C773.65,119.33,755.74,86.92,708,80Z"/>
        <path id="leftSideJacket" class="cls-7" d="M660.34,95c9.5,10.74-9,46-12,79l2,50c1.39,67.7,4.62,124.84,11,164-9.13,4.13-18.48,4-28,0V242l-4-109C634.21,118.52,644.32,105.57,660.34,95Z"/>
        <g id="stethosp">
          <path class="cls-10" d="M718,82c7.2,4,3.6,12.79-5.68,23"/>
          <path class="cls-10" d="M715.34,149c-5.57,3.5-7.59-1.6-7.18-12.62a11.69,11.69,0,0,1,1.86-5.86c16.32-25.84-7.3-43.27-11.68,1.48-1.72,13.72-4,19.91-7,17"/>
          <circle cx="716.84" cy="149.5" r="2.5"/>
          <circle cx="689.34" cy="149" r="2.5"/>
        </g>
        <path class="cls-10" d="M656,98c.63-1.17-18.82,36.46-21.18,55.5"/>
        <path id="tie" class="cls-11" d="M674.38,96H685.2a1.35,1.35,0,0,1,1.06,2.2l-6,7.53a1.36,1.36,0,0,0-.28.61c-5.91,32.44-8.79,76.42-10.84,123.57a5.57,5.57,0,0,1-1.82,3.82c-4.75,4.28-9.18,4.52-13.33,1.14a5.39,5.39,0,0,1-1.92-4.24c.58-49.86,1.44-99.34,20.69-124.27a1.29,1.29,0,0,0,.28-.82V97.36A1.36,1.36,0,0,1,674.38,96Z"/>
        <polygon id="clipboard" class="cls-12" points="593.34 151 664.34 147 692.34 225 624.34 230 593.34 151"/>
        <path id="rightHand" class="cls-8" d="M712.34,200c5,6.24,5.23,12.71,3.5,19.27a2.38,2.38,0,0,1-2.24,1.78l-30.26.95c-8.39-.52-14.2-1.51-12-4l17-1c.6-1.13.67-2.19-1-3l-18.43,1a2.59,2.59,0,0,1-1.1-.17c-2.08-.82-3.1-1.78-2.9-2.87a1.24,1.24,0,0,1,1.17-1l20.26-1c.9-1.24.46-1.86-1-2H661a3.21,3.21,0,0,1-1.45-.36c-1.72-.89-2.62-1.92-2.65-3.1a1.51,1.51,0,0,1,1.58-1.5l24.83,1c.95-.88,1.46-1.82,0-3l-24.85-1a2.29,2.29,0,0,1-1.91-1.13,2.64,2.64,0,0,1-.08-3,2.22,2.22,0,0,1,1.8-1l28-1c-.92-.11.5-.95-.32-1-16-1-11-8,.48-5.78C696.23,189.1,705.27,192.46,712.34,200Z"/>
        <path id="leftHand" class="cls-8" d="M605,227c.37-5.58,3.61-8.37,11-11l11.63-4.84a1.3,1.3,0,0,1,.78-.09c4.19.76,3.27,1.72,2.11,3.61a1.15,1.15,0,0,1-.54.46L615,221c-.25,1.49,0,1,1.32,1l18-7a5.27,5.27,0,0,1,3.23-.11.81.81,0,0,1-.09,1.47L619.34,224c-.64.9-.17,1.53,1,2l20-7c2.13-.43,2.38.55,2,2l-20,8c-.59,1.08,0,1.63,1,2l18-7c2-.75,1.95.19,1,1.55a8.43,8.43,0,0,1-2.37,2.12L628,235c-4.35,2.6-8.31,4.67-14.15,3.14a2.8,2.8,0,0,1-1-.48C608.15,234.19,605.33,233.44,605,227Z"/>
        <path id="rightArm" class="cls-7" d="M709.34,194c6.1,17.77,8,33.31,4.35,45.89a.6.6,0,0,0,.76.75L769.34,223c13.51-3,20.39-13.37,19-33l-12.51-60.8a29.81,29.81,0,0,0-6.49-13.31c-12.87-15.1-23.27-22.58-32-24.89l1,52,16,36c2.28,6.38-1,7.9-7,7Z"/>
        <path class="cls-10" d="M647,569c1.19,1.71,4.17,2.56,8,3"/>
        <path class="cls-10" d="M643,572c2,1.63,5,2.59,9,3"/>
        <path class="cls-10" d="M639.52,574.5c.43,1.72,3.83,2.61,9,3"/>
        <path class="cls-13" d="M703,576c0-.55.53,0,0,.1L684,578c-22.64,6.75-42.91,10.3-59,8.22a.24.24,0,0,0-.06.45c9.83,4,23.75,3.2,41-1.42,8.69-2,16.68-3.46,22.39-3.07,5.82.08,11.24-.41,15.75-2.18Z"/>
        <path class="cls-13" d="M702.41,599.63c7.28,1.62,18.67-.48,31.07-3.5a4.6,4.6,0,0,0,1-.39l19.53-10,0,4.26-18.6,8.81a3.91,3.91,0,0,1-.83.3C717.66,603.37,705.37,604.58,702.41,599.63Z"/>
        <path class="cls-14" d="M714,578a34.27,34.27,0,0,0,17,3"/>
        <path class="cls-14" d="M712,582c4.71,2.54,10.46,3.39,17,3"/>
        <path class="cls-14" d="M709.52,585.5a30.1,30.1,0,0,0,17,3"/>
      </g>
    </g>
  </g>
</svg>
