<svg xmlns="http://www.w3.org/2000/svg" viewBox="0 0 1361 623.64">
  <defs>
    <style>
      .cls-1, .cls-3 {
        fill: #e6e6e6;
      }

      .cls-12, .cls-13, .cls-14, .cls-15, .cls-2, .cls-21, .cls-27, .cls-28 {
        fill: none;
      }

      .cls-2, .cls-3 {
        stroke: #e6e6e6;
        stroke-width: 3px;
      }

      .cls-10, .cls-11, .cls-12, .cls-13, .cls-14, .cls-15, .cls-16, .cls-17, .cls-18, .cls-19, .cls-2, .cls-20, .cls-21, .cls-22, .cls-23, .cls-24, .cls-27, .cls-28, .cls-3, .cls-6, .cls-7, .cls-8, .cls-9 {
        stroke-miterlimit: 10;
      }

      .cls-4 {
        fill: #f2f2f2;
      }

      .cls-5 {
        fill: #ccc;
      }

      .cls-6, .cls-7 {
        fill: #666;
      }

      .cls-10, .cls-11, .cls-12, .cls-13, .cls-14, .cls-15, .cls-16, .cls-17, .cls-18, .cls-19, .cls-20, .cls-22, .cls-23, .cls-24, .cls-6, .cls-7, .cls-8, .cls-9 {
        stroke: #000;
      }

      .cls-10, .cls-6, .cls-9 {
        stroke-width: 0.99px;
      }

      .cls-7 {
        stroke-width: 0.89px;
      }

      .cls-8, .cls-9 {
        fill: #999;
      }

      .cls-8 {
        stroke-width: 1px;
      }

      .cls-10 {
        fill: #b3b3b3;
      }

      .cls-11, .cls-25 {
        fill: #fff;
      }

      .cls-11 {
        stroke-width: 1.27px;
      }

      .cls-12 {
        stroke-width: 1.28px;
      }

      .cls-13, .cls-14 {
        stroke-width: 1.19px;
      }

      .cls-13, .cls-28 {
        fill-rule: evenodd;
      }

      .cls-15 {
        stroke-width: 1.34px;
      }

      .cls-16 {
        fill: #cc813d;
      }

      .cls-16, .cls-17, .cls-19, .cls-20, .cls-22, .cls-23, .cls-24 {
        stroke-width: 0.09px;
      }

      .cls-17 {
        fill: #e3ded7;
      }

      .cls-18 {
        fill: #ac5500;
        stroke-width: 0.19px;
      }

      .cls-19 {
        fill: #6e2800;
      }

      .cls-20 {
        fill: #a35c43;
      }

      .cls-21 {
        stroke: #763b25;
        stroke-width: 0.37px;
      }

      .cls-22 {
        fill: #7c361f;
      }

      .cls-23 {
        fill: #70220b;
      }

      .cls-24 {
        fill: #74251b;
      }

      .cls-26 {
        fill: #333;
      }

      .cls-27, .cls-28 {
        stroke: #333;
        stroke-width: 0.75px;
      }
    </style>
  </defs>
  <title>myth_1_background_1</title>
  <g id="Layer_2" data-name="Layer 2">
    <g id="Layer_2-2" data-name="Layer 2">
      <g id="background">
        <rect class="cls-1" x="525" y="249" width="836" height="24"/>
        <path class="cls-1" d="M1207,247h-40.49c-1.43,0-2.39-1.92-1.8-3.6,8.16-23.2,16.51-45.13,12.68-65.26-.3-1.6.64-3.14,1.92-3.14h14.49c1.23,0,2.14,1.43,1.94,3-2.72,21,4.79,42.93,13,65.36C1209.43,245.05,1208.47,247,1207,247Z"/>
        <path class="cls-1" d="M689,247H648.53a1.8,1.8,0,0,1-1.8-2.5c8.16-16.11,16.51-31.34,12.68-45.32a1.82,1.82,0,0,1,1.92-2.18h14.49a1.84,1.84,0,0,1,1.94,2.08c-2.72,14.61,4.79,29.81,13,45.39A1.79,1.79,0,0,1,689,247Z"/>
        <circle class="cls-1" cx="668.5" cy="150.5" r="22.5"/>
        <path class="cls-2" d="M640,150c0-38.7,58-38.7,58,0"/>
        <path class="cls-1" d="M662,160h12c-1.43,9.31-4.88,18-3,25h-6C667,179,664.16,169.68,662,160Z"/>
        <line class="cls-2" x1="740" y1="150" x2="669" y2="150"/>
        <line class="cls-2" x1="738.5" y1="149" x2="738.5" y2="232"/>
        <rect class="cls-3" x="725.5" y="231.5" width="26" height="15"/>
        <g>
          <path class="cls-1" d="M1034,185H1042a1,1,0,0,1,1,1v50a5,5,0,0,1-5,5h0a5,5,0,0,1-5-5V186A1,1,0,0,1,1034,185Z"/>
          <path class="cls-1" d="M1048,185H1056a1,1,0,0,1,1,1v50a5,5,0,0,1-5,5h0a5,5,0,0,1-5-5V186a1,1,0,0,1,1-1Z"/>
          <path class="cls-1" d="M1062,185H1070a1,1,0,0,1,1,1v50a5,5,0,0,1-5,5h0a5,5,0,0,1-5-5V186a1,1,0,0,1,1-1Z"/>
          <path class="cls-1" d="M1076,185H1084a1,1,0,0,1,1,1v50a5,5,0,0,1-5,5h0a5,5,0,0,1-5-5V186A1,1,0,0,1,1076,185Z"/>
          <path class="cls-1" d="M1090,185H1098a1,1,0,0,1,1,1v50a5,5,0,0,1-5,5h0a5,5,0,0,1-5-5V186A1,1,0,0,1,1090,185Z"/>
          <line class="cls-2" x1="1014" y1="195" x2="1119" y2="195"/>
          <line class="cls-2" x1="1020.5" y1="194.5" x2="1020.5" y2="244.5"/>
          <line class="cls-2" x1="1111.5" y1="195" x2="1111.5" y2="245"/>
          <rect class="cls-1" x="1014.5" y="242.5" width="103" height="5"/>
        </g>
        <g>
          <rect class="cls-1" width="397" height="607"/>
          <rect class="cls-4" x="14" y="14.57" width="84" height="576.65"/>
          <rect class="cls-4" x="110" y="14.57" width="84" height="576.65"/>
          <rect class="cls-4" x="206" y="14.57" width="84" height="576.65"/>
          <rect class="cls-4" x="301" y="14.57" width="84" height="576.65"/>
          <g>
            <rect class="cls-1" x="65.18" y="296.38" width="25" height="35"/>
            <g>
              <rect class="cls-5" x="68.68" y="310.38" width="5.14" height="5.14"/>
              <rect class="cls-5" x="75.11" y="310.38" width="5.14" height="5.14"/>
              <rect class="cls-5" x="81.53" y="310.38" width="5.14" height="5.14"/>
              <rect class="cls-5" x="81.53" y="316.8" width="5.14" height="5.14"/>
              <rect class="cls-5" x="75.11" y="316.8" width="5.14" height="5.14"/>
              <rect class="cls-5" x="68.68" y="316.8" width="5.14" height="5.14"/>
              <rect class="cls-5" x="68.68" y="323.23" width="5.14" height="5.14"/>
              <rect class="cls-5" x="75.11" y="323.23" width="5.14" height="5.14"/>
              <rect class="cls-5" x="81.53" y="323.23" width="5.14" height="5.14"/>
            </g>
            <rect class="cls-5" x="68.18" y="299.38" width="19" height="9"/>
          </g>
        </g>
      </g>
      <g id="table">
        <path id="frontRight" class="cls-6" d="M1215.21,528.07c-3.53,1.67-7.17,2.89-11.89-.15l2.5-197.28,11.91-.84Z"/>
        <path id="backRight" class="cls-6" d="M1131.22,436.46c-2.49,3.53-6.86,2.43-11.89-.28l2.14-95.25,12.06-1.58Z"/>
        <path id="backLeft" class="cls-7" d="M685.7,561.05c-2.44,3.34-5.58,5.28-11.91.83l-.2-211.2,11.79,8.09Z"/>
        <g id="topTable">
          <polygon class="cls-1" points="646.24 319.87 1121.03 274.65 1248.46 314.2 726.75 370.86 646.24 319.87"/>
          <path d="M1121,275.16,1246,314,726.87,370.35l-79.14-50.12L1121,275.16m.1-1L644.75,319.52l81.88,51.85,524.26-56.94-129.81-40.28Z"/>
        </g>
        <g>
          <g id="bottomTable">
            <path class="cls-5" d="M749,554.66a17.34,17.34,0,0,0-10.38-3.81,16.64,16.64,0,0,0-7.58,1.94l-52-49.25c1-.44,1.89-.78,2.73-1.08,2.42-.88,4.53-1.64,4.23-4.26l433-62a15,15,0,0,0,6.78,1.85,10.49,10.49,0,0,0,6.39-2.2L1206,471.64a7.94,7.94,0,0,0,3,7.5Z"/>
            <path d="M1132.24,436.45l73.18,35.48a8.14,8.14,0,0,0,2.48,6.88L749.1,554.13a17.69,17.69,0,0,0-10.5-3.78,17,17,0,0,0-7.49,1.84l-51.2-48.5c.71-.29,1.39-.54,2-.77,2.28-.82,4.63-1.67,4.59-4.3l432.42-61.89a15.32,15.32,0,0,0,6.86,1.84,10.89,10.89,0,0,0,6.44-2.12m-.11-1.16a10,10,0,0,1-6.33,2.28,14.57,14.57,0,0,1-6.69-1.87l-433.7,62.08c.8,3.68-3,3.46-7.25,5.63l52.77,50a16.35,16.35,0,0,1,7.67-2,16.89,16.89,0,0,1,10.25,3.84l461.3-75.73c-3.18-2.34-4.23-5.07-3.64-8.1l-74.38-36.06Z"/>
          </g>
          <polygon id="frontBottomEdge" class="cls-8" points="1210.23 488.88 745.8 567.45 745.55 554.62 1210.63 479.97 1210.23 488.88"/>
          <polygon id="sideBottom" class="cls-9" points="679.63 503.97 678.11 515.81 732.78 564.13 732.78 554.13 679.63 503.97"/>
        </g>
        <path id="frontLeft" class="cls-6" d="M747,620.14c-3.94,3.41-8.29,3.7-12.89,2l-3.59-237,13.89-2Z"/>
        <polygon id="topEdge" class="cls-10" points="644.24 320 643.89 332.88 729.68 386.83 1249.09 325.79 1250.38 314.91 726.12 371.85 644.24 320"/>
      </g>
      <g id="cageLeft">
        <path class="cls-11" d="M724.62,327l134-12.64.12,0,57.87,23.91a.24.24,0,0,1-.06.47L776,355.72a.37.37,0,0,1-.15,0l-51.44-27.81A.46.46,0,0,1,724.62,327Z"/>
        <g>
          <path d="M722.7,239.76l53.08,27.81.34.18.38,0,139.25-13.93L917,338.17,776.2,354.41,724,327l-1.25-87.26m-1-1.77a.29.29,0,0,0-.33.32l1.28,89.49L776,355.72l142.33-16.41L917,252.37,776.37,266.44l-53.69-28.13a2.49,2.49,0,0,0-.95-.32Z"/>
          <line class="cls-12" x1="777.01" y1="355.29" x2="775.74" y2="266.44"/>
          <path class="cls-13" d="M916,253.16,775.74,267.07,722,239c-.33-.17-.37-1.25,0-1.28l129.13-12.79,64.92,27.47A.42.42,0,0,1,916,253.16Z"/>
        </g>
        <g>
          <path class="cls-12" d="M907.1,340"/>
          <path class="cls-12" d="M907.14,327.71"/>
          <path class="cls-12" d="M907.19,315.47"/>
          <path class="cls-12" d="M907.24,303.24"/>
          <path class="cls-12" d="M907.28,291"/>
          <path class="cls-12" d="M907.33,278.76"/>
          <path class="cls-12" d="M907.37,266.53"/>
          <path class="cls-12" d="M907.42,254.29"/>
          <path class="cls-12" d="M890.07,268.54"/>
          <path class="cls-12" d="M872.72,282.78"/>
          <path class="cls-12" d="M855.37,297"/>
          <path class="cls-12" d="M838,311.27"/>
          <path class="cls-12" d="M820.66,325.52"/>
          <path class="cls-12" d="M803.31,339.77"/>
          <path class="cls-12" d="M786,354"/>
          <path class="cls-12" d="M786,341.32"/>
          <path class="cls-12" d="M786,328.62"/>
          <path class="cls-12" d="M786,315.93"/>
          <path class="cls-12" d="M786,303.24"/>
          <path class="cls-12" d="M786,290.54"/>
          <path class="cls-12" d="M786,277.85"/>
          <path class="cls-12" d="M786,265.16"/>
        </g>
        <g>
          <line class="cls-14" x1="761.67" y1="260.04" x2="762.96" y2="347.62"/>
          <line class="cls-14" x1="747.61" y1="252.37" x2="748.89" y2="340.27"/>
          <line class="cls-14" x1="733.55" y1="244.7" x2="734.82" y2="332.92"/>
        </g>
        <g>
          <line class="cls-14" x1="761.67" y1="259.4" x2="899.75" y2="245.34"/>
          <line class="cls-14" x1="747.93" y1="252.05" x2="883.13" y2="238.31"/>
          <line class="cls-14" x1="734.18" y1="244.7" x2="866.51" y2="231.28"/>
        </g>
        <g>
          <line class="cls-14" x1="834.55" y1="226.16" x2="896.3" y2="254.76"/>
          <line class="cls-14" x1="816.21" y1="227.99" x2="876.86" y2="256.75"/>
          <line class="cls-14" x1="797.88" y1="229.82" x2="857.43" y2="258.74"/>
          <line class="cls-14" x1="779.55" y1="231.65" x2="838" y2="260.73"/>
          <line class="cls-14" x1="761.22" y1="233.48" x2="818.57" y2="262.72"/>
          <line class="cls-14" x1="742.89" y1="235.31" x2="799.14" y2="264.71"/>
        </g>
        <g>
          <line class="cls-15" x1="722.04" y1="260.68" x2="775.74" y2="287.53"/>
          <line class="cls-15" x1="722.68" y1="285.61" x2="776.37" y2="312.46"/>
          <line class="cls-15" x1="723.32" y1="310.54" x2="777.01" y2="337.39"/>
        </g>
        <g id="guineaPig">
          <ellipse class="cls-16" cx="830.18" cy="333.45" rx="2.42" ry="4.84" transform="translate(325.35 1072.06) rotate(-77.53)"/>
          <ellipse class="cls-16" cx="812.31" cy="327.5" rx="2.42" ry="4.84" transform="translate(317.16 1049.94) rotate(-77.53)"/>
          <ellipse class="cls-16" cx="849.91" cy="333.45" rx="2.42" ry="4.84" transform="translate(340.82 1091.32) rotate(-77.53)"/>
          <path id="body" class="cls-16" d="M830.92,293.07l-21.31,2a4.71,4.71,0,0,1-.92,0c-9.42-.7-10.48,7.06-8.92,17.46a3.55,3.55,0,0,0,.25.86,37.4,37.4,0,0,0,7.57,11.06,1.54,1.54,0,0,0,1,.47c4.3.4,14.55,4.56,24.6,9.09C811.81,325,814.08,305.05,830.92,293.07Z"/>
          <path id="head" class="cls-17" d="M847.3,296.92c-11-8.09-19.36-5.42-25.87,5.27-6.51,12.15-7,22.3,4.1,28.66,9.74,5.4,19.53,6.53,29.4-2.24,5.56-5.21-.67-18.32-6.76-30.64A2.94,2.94,0,0,0,847.3,296.92Z"/>
          <path id="leftPatch" class="cls-18" d="M841.05,300.42l.8.64a4.11,4.11,0,0,0,.51.34,2.59,2.59,0,0,1,1.25,3.42,3.52,3.52,0,0,1-.86,1.3c-1,1.05-1.21,2.58-.75,4.46a2.91,2.91,0,0,1,.1.72c0,2.29-.68,4-2.05,5.07a2.2,2.2,0,0,0-.35.33,4.44,4.44,0,0,0-1.11,4.67.56.56,0,0,1-.16.62c-1.44,1.26-2.54,2.73-2,5.19a2.12,2.12,0,0,1-.3,1.63c-.76,1.07-2.38,1.18-4.44.8a1.66,1.66,0,0,0-.7,0c-3.06.73-4.78-1.74-6.35-4.56-2.86-5.31-3.52-9.4.15-11.07a1.42,1.42,0,0,1,.46-.12c1-.11,1.54-.52,1.08-1.48a1.27,1.27,0,0,1-.06-.88l.27-1a.59.59,0,0,1,.68-.43c5.07.88,5.4-2.27,5.58-5.74a1.73,1.73,0,0,0-.21-.92c-2.8-5,.19-5.77,6.64-4A5.32,5.32,0,0,1,841.05,300.42Z"/>
          <path id="leftEye" d="M837,311c-1,2.83.21,3.67,2.53,3.47a.22.22,0,0,0,.2-.19c.79-4.55,0-5.91-2.42-3.75A1.14,1.14,0,0,0,837,311Z"/>
          <path id="rightEar" class="cls-19" d="M848.44,298.44c-1,1.73-.4,3.62,1.28,5.61a13.56,13.56,0,0,1,1.87,6.62,1.53,1.53,0,0,0,.23.83l2.53,4.11a1.45,1.45,0,0,0,.57.53l.56.28a.26.26,0,0,0,.36-.32l-2.39-6.84a3.68,3.68,0,0,1,.37-3.35,5.79,5.79,0,0,0,1.11-4.47c2.16-3.61,2.28-5.71-2.6-4.09l-2.58.28A1.75,1.75,0,0,0,848.44,298.44Z"/>
          <path id="rightEye" d="M852,309.63a3.05,3.05,0,0,1,1.49,3.72C852,312.14,851.58,310.9,852,309.63Z"/>
          <path id="leftEar" class="cls-20" d="M831.67,301.25c-2.18-4-4.67-3.33-6.52-.93-4.41,2.44-3.84,6,.94,9.5C831.67,313.17,835.39,306.09,831.67,301.25Z"/>
          <path class="cls-21" d="M849,327.5l-.7,2.65a.73.73,0,0,1-.35.53c-.94.56-2.14.61-3.79-.2"/>
          <path class="cls-22" d="M846.34,322.83a21.23,21.23,0,0,0,5.46,0,.93.93,0,0,1,1,1.16,5.18,5.18,0,0,1-3.55,3.76.71.71,0,0,1-.57,0,5.93,5.93,0,0,1-3.2-3.92A.77.77,0,0,1,846.34,322.83Z"/>
          <path class="cls-23" d="M851.73,324.19a1.15,1.15,0,0,0-.87,1.16.22.22,0,0,0,.27.24,1.11,1.11,0,0,0,.83-1.23A.18.18,0,0,0,851.73,324.19Z"/>
          <path class="cls-24" d="M846.35,324.13a1.39,1.39,0,0,0,1.34,1.47.4.4,0,0,0,.45-.48c-.2-.85-.66-1.33-1.4-1.36A.38.38,0,0,0,846.35,324.13Z"/>
          <path class="cls-25" d="M837.07,311.86l.37.38a1.28,1.28,0,0,1,.59-.68.17.17,0,0,0,.08-.22h0a.48.48,0,0,0-.83,0,1.56,1.56,0,0,0-.21.57"/>
        </g>
        <g>
          <line class="cls-15" x1="775.32" y1="287.25" x2="915.96" y2="273.19"/>
          <line class="cls-15" x1="775.86" y1="312.38" x2="916.49" y2="298.32"/>
          <line class="cls-15" x1="776.39" y1="337.52" x2="917.02" y2="323.45"/>
        </g>
        <g>
          <line class="cls-12" x1="799.4" y1="264.5" x2="800.65" y2="351.47"/>
          <line class="cls-12" x1="818.84" y1="262.46" x2="820.08" y2="349.42"/>
          <line class="cls-12" x1="838.27" y1="260.41" x2="839.51" y2="347.38"/>
          <line class="cls-12" x1="857.7" y1="258.37" x2="858.95" y2="345.33"/>
          <line class="cls-12" x1="877.14" y1="256.32" x2="878.38" y2="343.29"/>
          <line class="cls-12" x1="896.57" y1="254.28" x2="897.81" y2="341.24"/>
        </g>
      </g>
      <g id="cageRight">
        <path class="cls-11" d="M941.78,302.13l134.79-12.75.12,0,57.87,23.91a.24.24,0,0,1-.06.47L994,330.72a.37.37,0,0,1-.15,0l-51.44-27.81C942.05,302.67,941.33,302.17,941.78,302.13Z"/>
        <g>
          <path class="cls-26" d="M940.16,213.89l.17.08L994,242.1l.2.1.22,0,139.82-14,1.26,85.44L994.1,330l-52.68-27.6-1.26-88.46m-.43-.9a.29.29,0,0,0-.33.32l1.28,89.49L994,330.72l142.33-16.41L1135,227.37,994.37,241.44l-53.69-28.13a2.49,2.49,0,0,0-.95-.32Z"/>
          <line class="cls-27" x1="995.01" y1="330.29" x2="993.74" y2="241.44"/>
          <path class="cls-28" d="M1134,228.16,993.74,242.07,940,214c-.33-.17-.37-1.25,0-1.28l129.13-12.79,64.92,27.47A.42.42,0,0,1,1134,228.16Z"/>
        </g>
        <g id="guineaPig-2" data-name="guineaPig">
          <ellipse class="cls-16" cx="1048.18" cy="308.45" rx="2.42" ry="4.84" transform="translate(520.69 1265.31) rotate(-77.53)"/>
          <ellipse class="cls-16" cx="1030.31" cy="302.5" rx="2.42" ry="4.84" transform="translate(512.5 1243.2) rotate(-77.53)"/>
          <ellipse class="cls-16" cx="1067.91" cy="308.45" rx="2.42" ry="4.84" transform="translate(536.16 1284.58) rotate(-77.53)"/>
          <path id="body-2" data-name="body" class="cls-16" d="M1048.92,268.07l-21.31,2a4.71,4.71,0,0,1-.92,0c-9.42-.7-10.48,7.06-8.92,17.46a3.55,3.55,0,0,0,.25.86,37.4,37.4,0,0,0,7.57,11.06,1.54,1.54,0,0,0,1,.47c4.3.4,14.55,4.56,24.6,9.09C1029.81,300,1032.08,280.05,1048.92,268.07Z"/>
          <path id="head-2" data-name="head" class="cls-17" d="M1065.3,271.92c-11-8.09-19.36-5.42-25.87,5.27-6.51,12.15-7,22.3,4.1,28.66,9.74,5.4,19.53,6.53,29.4-2.24,5.56-5.21-.67-18.32-6.76-30.64A2.94,2.94,0,0,0,1065.3,271.92Z"/>
          <path id="leftPatch-2" data-name="leftPatch" class="cls-18" d="M1059.05,275.42l.8.64a4.11,4.11,0,0,0,.51.34,2.59,2.59,0,0,1,1.25,3.42,3.52,3.52,0,0,1-.86,1.3c-1,1.05-1.21,2.58-.75,4.46a2.91,2.91,0,0,1,.1.72c0,2.29-.68,4-2,5.07a2.2,2.2,0,0,0-.35.33,4.44,4.44,0,0,0-1.11,4.67.56.56,0,0,1-.16.62c-1.44,1.26-2.54,2.73-2,5.19a2.12,2.12,0,0,1-.3,1.63c-.76,1.07-2.38,1.18-4.44.8a1.66,1.66,0,0,0-.7,0c-3.06.73-4.78-1.74-6.35-4.56-2.86-5.31-3.52-9.4.15-11.07a1.42,1.42,0,0,1,.46-.12c1-.11,1.54-.52,1.08-1.48a1.27,1.27,0,0,1-.06-.88l.27-1a.59.59,0,0,1,.68-.43c5.07.88,5.4-2.27,5.58-5.74a1.73,1.73,0,0,0-.21-.92c-2.8-5,.19-5.77,6.64-4A5.32,5.32,0,0,1,1059.05,275.42Z"/>
          <path id="leftEye-2" data-name="leftEye" d="M1055,286c-1,2.83.21,3.67,2.53,3.47a.22.22,0,0,0,.2-.19c.79-4.55,0-5.91-2.42-3.75A1.14,1.14,0,0,0,1055,286Z"/>
          <path id="rightEar-2" data-name="rightEar" class="cls-19" d="M1066.44,273.44c-1,1.73-.4,3.62,1.28,5.61a13.56,13.56,0,0,1,1.87,6.62,1.53,1.53,0,0,0,.23.83l2.53,4.11a1.45,1.45,0,0,0,.57.53l.56.28a.26.26,0,0,0,.36-.32l-2.39-6.84a3.68,3.68,0,0,1,.37-3.35,5.79,5.79,0,0,0,1.11-4.47c2.16-3.61,2.28-5.71-2.6-4.09l-2.58.28A1.75,1.75,0,0,0,1066.44,273.44Z"/>
          <path id="rightEye-2" data-name="rightEye" d="M1070,284.63a3.05,3.05,0,0,1,1.49,3.72C1070,287.14,1069.58,285.9,1070,284.63Z"/>
          <path id="leftEar-2" data-name="leftEar" class="cls-20" d="M1049.67,276.25c-2.18-4-4.67-3.33-6.52-.93-4.41,2.44-3.84,6,.94,9.5C1049.67,288.17,1053.39,281.09,1049.67,276.25Z"/>
          <path class="cls-21" d="M1067,302.5l-.7,2.65a.73.73,0,0,1-.35.53c-.94.56-2.14.61-3.79-.2"/>
          <path class="cls-22" d="M1064.34,297.83a21.23,21.23,0,0,0,5.46,0,.93.93,0,0,1,1,1.16,5.18,5.18,0,0,1-3.55,3.76.71.71,0,0,1-.57,0,5.93,5.93,0,0,1-3.2-3.92A.77.77,0,0,1,1064.34,297.83Z"/>
          <path class="cls-23" d="M1069.73,299.19a1.15,1.15,0,0,0-.87,1.16.22.22,0,0,0,.27.24,1.11,1.11,0,0,0,.83-1.23A.18.18,0,0,0,1069.73,299.19Z"/>
          <path class="cls-24" d="M1064.35,299.13a1.39,1.39,0,0,0,1.34,1.47.4.4,0,0,0,.45-.48c-.2-.85-.66-1.33-1.4-1.36A.38.38,0,0,0,1064.35,299.13Z"/>
          <path class="cls-25" d="M1055.07,286.86l.37.38a1.28,1.28,0,0,1,.59-.68.17.17,0,0,0,.08-.22h0a.48.48,0,0,0-.83,0,1.56,1.56,0,0,0-.21.57"/>
        </g>
        <g>
          <g>
            <path class="cls-27" d="M1125.1,315"/>
            <path class="cls-27" d="M1125.14,302.71"/>
            <path class="cls-27" d="M1125.19,290.47"/>
            <path class="cls-27" d="M1125.24,278.24"/>
            <path class="cls-27" d="M1125.28,266"/>
            <path class="cls-27" d="M1125.33,253.76"/>
            <path class="cls-27" d="M1125.37,241.53"/>
            <path class="cls-27" d="M1125.42,229.29"/>
            <path class="cls-27" d="M1108.07,243.54"/>
            <path class="cls-27" d="M1090.72,257.78"/>
            <path class="cls-27" d="M1073.37,272"/>
            <path class="cls-27" d="M1056,286.27"/>
            <path class="cls-27" d="M1038.66,300.52"/>
            <path class="cls-27" d="M1021.31,314.77"/>
            <path class="cls-27" d="M1004,329"/>
            <path class="cls-27" d="M1004,316.32"/>
            <path class="cls-27" d="M1004,303.62"/>
            <path class="cls-27" d="M1004,290.93"/>
            <path class="cls-27" d="M1004,278.24"/>
            <path class="cls-27" d="M1004,265.54"/>
            <path class="cls-27" d="M1004,252.85"/>
            <path class="cls-27" d="M1004,240.16"/>
          </g>
          <g>
            <line class="cls-27" x1="979.67" y1="235.04" x2="980.78" y2="323.63"/>
            <line class="cls-27" x1="965.61" y1="227.37" x2="966.8" y2="315.77"/>
            <line class="cls-27" x1="951.55" y1="219.7" x2="952.82" y2="307.92"/>
          </g>
          <g>
            <line class="cls-27" x1="979.67" y1="234.4" x2="1117.75" y2="220.34"/>
            <line class="cls-27" x1="965.93" y1="227.05" x2="1101.13" y2="213.31"/>
            <line class="cls-27" x1="952.18" y1="219.7" x2="1084.51" y2="206.28"/>
          </g>
          <g>
            <line class="cls-27" x1="1052.55" y1="201.16" x2="1114.3" y2="229.76"/>
            <line class="cls-27" x1="1034.21" y1="202.99" x2="1094.86" y2="231.75"/>
            <line class="cls-27" x1="1015.88" y1="204.82" x2="1075.43" y2="233.74"/>
            <line class="cls-27" x1="997.55" y1="206.65" x2="1056" y2="235.73"/>
            <line class="cls-27" x1="979.22" y1="208.48" x2="1036.57" y2="237.72"/>
            <line class="cls-27" x1="960.89" y1="210.31" x2="1017.14" y2="239.71"/>
          </g>
          <g>
            <line class="cls-27" x1="940.04" y1="235.68" x2="993.74" y2="262.53"/>
            <line class="cls-27" x1="940.41" y1="260.41" x2="994.37" y2="287.46"/>
            <line class="cls-27" x1="940.78" y1="285.13" x2="995.01" y2="312.39"/>
          </g>
          <g>
            <line class="cls-27" x1="993.32" y1="262.25" x2="1134.78" y2="248.13"/>
            <line class="cls-27" x1="993.86" y1="287.38" x2="1135.28" y2="273.13"/>
            <line class="cls-27" x1="994.39" y1="312.52" x2="1135.78" y2="298.13"/>
          </g>
          <g>
            <line class="cls-27" x1="1017.4" y1="239.5" x2="1018.78" y2="327.63"/>
            <line class="cls-27" x1="1036.84" y1="237.46" x2="1038.19" y2="325.35"/>
            <line class="cls-27" x1="1056.27" y1="235.41" x2="1057.59" y2="323.07"/>
            <line class="cls-27" x1="1075.7" y1="233.37" x2="1077" y2="320.8"/>
            <line class="cls-27" x1="1095.14" y1="231.32" x2="1096.41" y2="318.52"/>
            <line class="cls-27" x1="1114.57" y1="229.28" x2="1115.81" y2="316.24"/>
          </g>
        </g>
      </g>
    </g>
  </g>
</svg>
