<svg xmlns="http://www.w3.org/2000/svg" viewBox="0 0 1164.99 492.3">
  <defs>
    <style>
      .cls-1, .cls-6 {
        fill: none;
      }

      .cls-1, .cls-2 {
        stroke: #ccc;
        stroke-width: 4px;
      }

      .cls-1, .cls-2, .cls-6 {
        stroke-miterlimit: 10;
      }

      .cls-2, .cls-3 {
        fill: #ccc;
      }

      .cls-4 {
        fill: #f2f2f2;
      }

      .cls-5 {
        fill: #fff;
      }

      .cls-6 {
        stroke: #e6e6e6;
        stroke-width: 3px;
      }

      .cls-7 {
        fill: #e6e6e6;
      }
    </style>
  </defs>
  <title>myth_3_background</title>
  <g id="Layer_2" data-name="Layer 2">
    <g id="Layer_4" data-name="Layer 4">
      <g id="background">
        <g>
          <line class="cls-1" x1="1105.29" y1="2" x2="1105.29" y2="356.43"/>
          <rect class="cls-2" x="1098.23" y="152.72" width="25.91" height="69.47"/>
          <path class="cls-1" d="M1061,381.16V364.55c0-4.38,4.44-8,9.86-8h74.74c5.42,0,9.85,3.59,9.85,8v16.61"/>
          <path class="cls-1" d="M1084.82,381.16V364.55c0-4.38,2.2-8,4.89-8h37c2.69,0,4.89,3.59,4.89,8v16.61"/>
          <circle class="cls-1" cx="1060.55" cy="388.22" r="7.07"/>
          <circle class="cls-1" cx="1085.28" cy="388.22" r="7.07"/>
          <circle class="cls-1" cx="1131.2" cy="388.22" r="7.07"/>
          <circle class="cls-1" cx="1155.93" cy="388.22" r="7.07"/>
          <path class="cls-1" d="M1061.14,25.55V16.13A14.17,14.17,0,0,1,1075.27,2h60a14.17,14.17,0,0,1,14.13,14.13v9.42"/>
          <rect class="cls-1" x="1137.09" y="25.55" width="23.55" height="60.05" rx="11.78"/>
          <rect class="cls-3" x="1137.09" y="57.34" width="23.55" height="28.26" rx="6.59"/>
          <rect class="cls-1" x="1049.95" y="25.55" width="23.55" height="60.05" rx="11.78"/>
          <rect class="cls-3" x="1049.95" y="57.34" width="23.55" height="28.26" rx="6.59"/>
        </g>
        <g>
          <rect class="cls-4" x="284.35" y="22.64" width="375" height="225"/>
          <rect class="cls-5" x="309.12" y="34.91" width="149.75" height="88.38"/>
          <rect class="cls-5" x="483.12" y="34.91" width="149.75" height="88.38"/>
          <rect class="cls-5" x="309.12" y="141.27" width="149.75" height="88.38"/>
          <rect class="cls-5" x="483.12" y="141.27" width="149.75" height="88.38"/>
        </g>
        <g>
          <path class="cls-6" d="M57,140.3c24,24.06,32.94,65.18,35,114"/>
          <path class="cls-6" d="M124.5,178.8c-24,24-31.46,39.09-28.5,70.5"/>
          <path class="cls-6" d="M105,125.3c-12.76,34.84-14,75.45-14,119"/>
          <g>
            <circle class="cls-3" cx="42" cy="134.3" r="5.5"/>
            <ellipse class="cls-7" cx="42" cy="118.3" rx="4" ry="9"/>
            <ellipse class="cls-7" cx="42" cy="150.3" rx="4" ry="9"/>
            <ellipse class="cls-7" cx="58" cy="134.3" rx="9" ry="4"/>
            <ellipse class="cls-7" cx="26" cy="134.3" rx="9" ry="4"/>
            <ellipse class="cls-7" cx="53.31" cy="122.99" rx="9" ry="4" transform="translate(-71.35 73.72) rotate(-45)"/>
            <ellipse class="cls-7" cx="30.69" cy="145.62" rx="9" ry="4" transform="translate(-93.98 64.35) rotate(-45)"/>
            <ellipse class="cls-7" cx="53.31" cy="145.62" rx="4" ry="9" transform="translate(-87.35 80.35) rotate(-45)"/>
            <ellipse class="cls-7" cx="30.69" cy="122.99" rx="4" ry="9" transform="translate(-77.98 57.72) rotate(-45)"/>
          </g>
          <g>
            <circle class="cls-3" cx="141" cy="172.3" r="5.5"/>
            <ellipse class="cls-7" cx="141" cy="156.3" rx="4" ry="9"/>
            <ellipse class="cls-7" cx="141" cy="188.3" rx="4" ry="9"/>
            <ellipse class="cls-7" cx="157" cy="172.3" rx="9" ry="4"/>
            <ellipse class="cls-7" cx="125" cy="172.3" rx="9" ry="4"/>
            <ellipse class="cls-7" cx="152.31" cy="160.99" rx="9" ry="4" transform="translate(-69.22 154.85) rotate(-45)"/>
            <ellipse class="cls-7" cx="129.69" cy="183.62" rx="9" ry="4" transform="translate(-91.85 145.48) rotate(-45)"/>
            <ellipse class="cls-7" cx="152.31" cy="183.62" rx="4" ry="9" transform="translate(-85.22 161.48) rotate(-45)"/>
            <ellipse class="cls-7" cx="129.69" cy="160.99" rx="4" ry="9" transform="translate(-75.85 138.85) rotate(-45)"/>
          </g>
          <g>
            <circle class="cls-3" cx="112" cy="109.3" r="5.5"/>
            <ellipse class="cls-7" cx="112" cy="93.3" rx="4" ry="9"/>
            <ellipse class="cls-7" cx="112" cy="125.3" rx="4" ry="9"/>
            <ellipse class="cls-7" cx="128" cy="109.3" rx="9" ry="4"/>
            <ellipse class="cls-7" cx="96" cy="109.3" rx="9" ry="4"/>
            <ellipse class="cls-7" cx="123.31" cy="97.99" rx="9" ry="4" transform="translate(-33.17 115.9) rotate(-45)"/>
            <ellipse class="cls-7" cx="100.69" cy="120.62" rx="9" ry="4" transform="translate(-55.8 106.52) rotate(-45)"/>
            <ellipse class="cls-7" cx="123.31" cy="120.62" rx="4" ry="9" transform="translate(-49.17 122.52) rotate(-45)"/>
            <ellipse class="cls-7" cx="100.69" cy="97.99" rx="4" ry="9" transform="translate(-39.8 99.9) rotate(-45)"/>
          </g>
          <g>
            <path class="cls-7" d="M145,291.47c0,29.55-13.77,27.83-53,27.83S39,321,39,291.47,49,212.3,92,212.3C133.31,212.3,145,261.93,145,291.47Z"/>
            <rect class="cls-7" x="57" y="210.3" width="70" height="9" rx="3.88"/>
          </g>
          <g>
            <rect class="cls-7" y="314.3" width="184" height="29"/>
            <rect class="cls-7" x="10" y="343.3" width="163" height="119"/>
            <rect class="cls-7" x="10" y="462.3" width="10" height="30"/>
            <rect class="cls-7" x="163" y="462.3" width="10" height="30"/>
            <rect class="cls-7" x="137" y="462.3" width="10" height="24"/>
            <rect class="cls-7" x="36" y="462.3" width="10" height="24"/>
            <rect class="cls-3" x="26" y="356.3" width="131" height="37.12"/>
            <rect class="cls-3" x="26" y="406.18" width="131" height="37.12"/>
            <circle class="cls-7" cx="91.5" cy="374.86" r="5"/>
            <circle class="cls-7" cx="92" cy="425.3" r="5"/>
          </g>
        </g>
      </g>
    </g>
  </g>
</svg>
