<svg xmlns="http://www.w3.org/2000/svg" viewBox="0 0 1221.16 673.21"><defs><style>.cls-1{font-size:48px;font-family:FrederickatheGreatest, Fredericka the Greatest;}.cls-2{letter-spacing:-0.02em;}.cls-3{letter-spacing:0em;}.cls-4{letter-spacing:-0.01em;}.cls-5{letter-spacing:-0.02em;}.cls-6,.cls-7{fill:#666;}.cls-10,.cls-11,.cls-12,.cls-13,.cls-17,.cls-18,.cls-19,.cls-20,.cls-21,.cls-23,.cls-24,.cls-25,.cls-27,.cls-28,.cls-29,.cls-30,.cls-31,.cls-32,.cls-6,.cls-7{stroke:#000;}.cls-10,.cls-11,.cls-12,.cls-13,.cls-15,.cls-16,.cls-17,.cls-18,.cls-19,.cls-20,.cls-21,.cls-22,.cls-23,.cls-24,.cls-25,.cls-27,.cls-28,.cls-29,.cls-30,.cls-31,.cls-32,.cls-6,.cls-7{stroke-miterlimit:10;}.cls-11,.cls-12,.cls-6{stroke-width:0.99px;}.cls-7{stroke-width:0.89px;}.cls-8{fill:#e6e6e6;}.cls-9{fill:#ccc;}.cls-10,.cls-11{fill:#999;}.cls-10{stroke-width:1px;}.cls-12{fill:#b3b3b3;}.cls-13,.cls-26{fill:#fff;}.cls-13{stroke-width:1.27px;}.cls-14,.cls-30,.cls-32{fill:#333;}.cls-15,.cls-16,.cls-22,.cls-31{fill:none;}.cls-15,.cls-16{stroke:#333;stroke-width:0.75px;}.cls-16{fill-rule:evenodd;}.cls-17{fill:#cc813d;}.cls-17,.cls-18,.cls-20,.cls-21,.cls-23,.cls-24,.cls-25{stroke-width:0.09px;}.cls-18{fill:#e3ded7;}.cls-19{fill:#ac5500;stroke-width:0.19px;}.cls-20{fill:#6e2800;}.cls-21{fill:#a35c43;}.cls-22{stroke:#763b25;stroke-width:0.37px;}.cls-23{fill:#7c361f;}.cls-24{fill:#70220b;}.cls-25{fill:#74251b;}.cls-27{fill:#4d4d4d;}.cls-28{fill:#ecc19c;}.cls-29{fill:#7ac943;}.cls-32{stroke-width:0.25px;}.cls-33{fill:#3d342e;}.cls-34{fill:#d39271;}.cls-35{fill:#72594b;}.cls-36{fill:#8c715d;}</style></defs><title>page_3</title><g id="Layer_2" data-name="Layer 2"><g id="Layer_2-2" data-name="Layer 2"><text class="cls-1" transform="translate(5.2 41.99)"><tspan xml:space="preserve">Myth #1 -  Clinical Trial particip</tspan><tspan class="cls-2" x="734.33" y="0">a</tspan><tspan class="cls-3" x="760.3" y="0">nts</tspan><tspan x="0" y="57.6">are </tspan><tspan class="cls-4" x="88.89" y="57.6">h</tspan><tspan class="cls-3" x="116.16" y="57.6">um</tspan><tspan class="cls-5" x="182.92" y="57.6">a</tspan><tspan x="208.89" y="57.6">n guinea pigs</tspan></text><g id="table"><path id="frontRight" class="cls-6" d="M1185.42,530.72c-3.53,1.66-7.17,2.89-11.89-.15l2.5-197.28,11.91-.84Z"/><path id="backRight" class="cls-6" d="M1101.43,439.1c-2.49,3.53-6.86,2.43-11.89-.28l2.14-95.25,12.06-1.57Z"/><path id="backLeft" class="cls-7" d="M655.91,563.69c-2.44,3.34-5.58,5.29-11.91.84l-.2-211.2,11.79,8.09Z"/><g id="topTable"><polygon class="cls-8" points="616.45 322.52 1091.24 277.3 1218.67 316.84 696.96 373.5 616.45 322.52"/><path d="M1091.19,277.8l125,38.81L697.08,373l-79.14-50.11,473.25-45.08m.1-1L615,322.16,696.84,374l524.26-56.94L1091.29,276.8Z"/></g><g id="bottomTable"><path class="cls-9" d="M719.19,557.3a17.34,17.34,0,0,0-10.38-3.81,16.64,16.64,0,0,0-7.58,1.94l-52-49.24c1-.45,1.89-.78,2.73-1.09,2.42-.87,4.53-1.63,4.23-4.26l433-62a15,15,0,0,0,6.78,1.86,10.49,10.49,0,0,0,6.39-2.2l73.77,35.76a8,8,0,0,0,3,7.51Z"/><path d="M1102.45,439.1l73.17,35.47a8.19,8.19,0,0,0,2.49,6.89l-458.8,75.32a17.71,17.71,0,0,0-10.5-3.79,17.12,17.12,0,0,0-7.5,1.84l-51.19-48.49c.71-.3,1.39-.54,2-.77,2.28-.82,4.63-1.67,4.59-4.3l432.42-61.89a15.3,15.3,0,0,0,6.86,1.83,11,11,0,0,0,6.44-2.11m-.11-1.16a10,10,0,0,1-6.33,2.28,14.57,14.57,0,0,1-6.69-1.87l-433.7,62.07c.8,3.68-3,3.47-7.25,5.63l52.77,50a16.32,16.32,0,0,1,7.67-2,16.89,16.89,0,0,1,10.25,3.84l461.3-75.73c-3.18-2.35-4.23-5.07-3.64-8.1l-74.38-36.06Z"/></g><polygon id="frontBottomEdge" class="cls-10" points="1180.44 491.53 716.01 570.1 715.76 557.27 1180.84 482.62 1180.44 491.53"/><polygon id="sideBottom" class="cls-11" points="649.84 506.61 648.32 518.46 702.99 566.77 702.99 556.77 649.84 506.61"/><path id="frontLeft" class="cls-6" d="M717.25,622.78c-3.94,3.41-8.29,3.7-12.89,2l-3.59-237,13.89-2Z"/><polygon id="topEdge" class="cls-12" points="614.45 322.65 614.1 335.53 699.89 389.47 1219.3 328.43 1220.59 317.56 696.33 374.5 614.45 322.65"/></g><g id="cageRight"><path class="cls-13" d="M912,304.77,1046.78,292a.25.25,0,0,1,.12,0l57.87,23.9a.25.25,0,0,1-.06.48L964.25,333.36a.2.2,0,0,1-.15,0l-51.44-27.8C912.26,305.31,911.54,304.82,912,304.77Z"/><path class="cls-14" d="M910.37,216.53l.17.09,53.7,28.13.19.1.23,0,139.82-14,1.26,85.45L964.31,332.6,911.63,305l-1.26-88.46m-.43-.89c-.19,0-.33.08-.33.31l1.28,89.5,53.28,27.92L1106.5,317,1105.22,230,964.58,244.08,910.89,216a2.46,2.46,0,0,0-.95-.31Z"/><line class="cls-15" x1="965.22" y1="332.94" x2="963.94" y2="244.08"/><path class="cls-16" d="M1104.17,230.81,963.94,244.72l-53.69-28.13c-.33-.17-.37-1.24,0-1.28l129.13-12.78L1104.3,230A.42.42,0,0,1,1104.17,230.81Z"/><g id="guineaPig"><ellipse class="cls-17" cx="1018.39" cy="311.1" rx="2.42" ry="4.84" transform="translate(494.75 1238.3) rotate(-77.53)"/><ellipse class="cls-17" cx="1000.52" cy="305.14" rx="2.42" ry="4.84" transform="translate(486.56 1216.18) rotate(-77.53)"/><ellipse class="cls-17" cx="1038.12" cy="311.1" rx="2.42" ry="4.84" transform="translate(510.22 1257.56) rotate(-77.53)"/><path id="body" class="cls-17" d="M1019.13,270.71l-21.32,2a5.53,5.53,0,0,1-.91,0c-9.42-.7-10.48,7-8.92,17.46a3.69,3.69,0,0,0,.25.86,37.53,37.53,0,0,0,7.57,11.06,1.65,1.65,0,0,0,1,.47c4.3.4,14.55,4.56,24.6,9.09C1000,302.59,1002.29,282.69,1019.13,270.71Z"/><path id="head" class="cls-18" d="M1035.51,274.57c-11-8.1-19.37-5.42-25.87,5.26-6.51,12.15-7,22.31,4.1,28.66,9.74,5.41,19.53,6.53,29.4-2.23,5.56-5.22-.67-18.32-6.76-30.64A2.86,2.86,0,0,0,1035.51,274.57Z"/><path id="leftPatch" class="cls-19" d="M1029.26,278.06l.8.65a5.65,5.65,0,0,0,.51.34,2.59,2.59,0,0,1,1.25,3.42,3.48,3.48,0,0,1-.86,1.29c-1,1.06-1.21,2.59-.75,4.47a2.83,2.83,0,0,1,.1.71c0,2.29-.68,4-2,5.08a2.15,2.15,0,0,0-.35.32,4.45,4.45,0,0,0-1.11,4.67.58.58,0,0,1-.16.63c-1.44,1.26-2.54,2.73-2,5.18a2.12,2.12,0,0,1-.3,1.63c-.76,1.08-2.38,1.19-4.44.81a1.66,1.66,0,0,0-.7,0c-3.06.73-4.78-1.74-6.35-4.57-2.86-5.3-3.52-9.39.15-11.07a1.41,1.41,0,0,1,.46-.11c1-.11,1.53-.53,1.08-1.48a1.27,1.27,0,0,1-.06-.88l.27-1a.6.6,0,0,1,.68-.44c5.06.89,5.4-2.27,5.58-5.74a1.73,1.73,0,0,0-.21-.92c-2.8-5,.19-5.77,6.64-4A5.3,5.3,0,0,1,1029.26,278.06Z"/><path id="leftEye" d="M1025.18,288.67c-1,2.82.21,3.67,2.53,3.46a.23.23,0,0,0,.2-.19c.79-4.54,0-5.9-2.42-3.74A1.08,1.08,0,0,0,1025.18,288.67Z"/><path id="rightEar" class="cls-20" d="M1036.65,276.09c-1,1.73-.4,3.61,1.28,5.6a13.63,13.63,0,0,1,1.87,6.63,1.47,1.47,0,0,0,.23.82l2.53,4.12a1.42,1.42,0,0,0,.57.52l.56.28a.25.25,0,0,0,.36-.31l-2.4-6.85a3.71,3.71,0,0,1,.38-3.35,5.76,5.76,0,0,0,1.11-4.46c2.16-3.62,2.28-5.71-2.6-4.1l-2.58.29A1.73,1.73,0,0,0,1036.65,276.09Z"/><path id="rightEye" d="M1040.17,287.28a3,3,0,0,1,1.48,3.72C1040.2,289.79,1039.79,288.54,1040.17,287.28Z"/><path id="leftEar" class="cls-21" d="M1019.88,278.9c-2.18-4-4.67-3.34-6.52-.93-4.41,2.43-3.84,6,.93,9.49C1019.88,290.81,1023.6,283.74,1019.88,278.9Z"/><path class="cls-22" d="M1037.19,305.14l-.7,2.66a.73.73,0,0,1-.35.53c-.94.56-2.14.61-3.79-.21"/><path class="cls-23" d="M1034.55,300.47a20.8,20.8,0,0,0,5.46,0,.93.93,0,0,1,1,1.16,5.2,5.2,0,0,1-3.55,3.76.71.71,0,0,1-.57-.05,5.91,5.91,0,0,1-3.2-3.92A.78.78,0,0,1,1034.55,300.47Z"/><path class="cls-24" d="M1039.94,301.84a1.14,1.14,0,0,0-.87,1.16.21.21,0,0,0,.27.23,1.1,1.1,0,0,0,.83-1.22A.18.18,0,0,0,1039.94,301.84Z"/><path class="cls-25" d="M1034.56,301.78a1.38,1.38,0,0,0,1.34,1.46.39.39,0,0,0,.45-.47c-.2-.86-.66-1.33-1.4-1.36A.37.37,0,0,0,1034.56,301.78Z"/><path class="cls-26" d="M1025.28,289.51l.37.37a1.26,1.26,0,0,1,.59-.67.18.18,0,0,0,.08-.23h0a.48.48,0,0,0-.83-.05,1.68,1.68,0,0,0-.21.58"/></g><path class="cls-15" d="M1095.31,317.59"/><path class="cls-15" d="M1095.35,305.36"/><path class="cls-15" d="M1095.4,293.12"/><path class="cls-15" d="M1095.45,280.88"/><path class="cls-15" d="M1095.49,268.65"/><path class="cls-15" d="M1095.54,256.41"/><path class="cls-15" d="M1095.58,244.17"/><path class="cls-15" d="M1095.63,231.94"/><path class="cls-15" d="M1078.28,246.18"/><path class="cls-15" d="M1060.93,260.43"/><path class="cls-15" d="M1043.58,274.67"/><path class="cls-15" d="M1026.22,288.92"/><path class="cls-15" d="M1008.87,303.16"/><path class="cls-15" d="M991.52,317.41"/><path class="cls-15" d="M974.17,331.66"/><path class="cls-15" d="M974.17,319"/><path class="cls-15" d="M974.17,306.27"/><path class="cls-15" d="M974.17,293.58"/><path class="cls-15" d="M974.17,280.88"/><path class="cls-15" d="M974.17,268.19"/><path class="cls-15" d="M974.17,255.5"/><path class="cls-15" d="M974.17,242.8"/><line class="cls-15" x1="949.88" y1="237.69" x2="950.99" y2="326.27"/><line class="cls-15" x1="935.82" y1="230.02" x2="937.01" y2="318.42"/><line class="cls-15" x1="921.75" y1="222.35" x2="923.03" y2="310.56"/><line class="cls-15" x1="949.88" y1="237.05" x2="1087.96" y2="222.99"/><line class="cls-15" x1="936.14" y1="229.7" x2="1071.34" y2="215.95"/><line class="cls-15" x1="922.39" y1="222.35" x2="1054.72" y2="208.92"/><line class="cls-15" x1="1022.75" y1="203.81" x2="1084.51" y2="232.4"/><line class="cls-15" x1="1004.42" y1="205.64" x2="1065.07" y2="234.39"/><line class="cls-15" x1="986.09" y1="207.47" x2="1045.64" y2="236.38"/><line class="cls-15" x1="967.76" y1="209.3" x2="1026.21" y2="238.38"/><line class="cls-15" x1="949.43" y1="211.12" x2="1006.78" y2="240.37"/><line class="cls-15" x1="931.1" y1="212.95" x2="987.35" y2="242.36"/><line class="cls-15" x1="910.25" y1="238.33" x2="963.94" y2="265.18"/><line class="cls-15" x1="910.62" y1="263.05" x2="964.58" y2="290.11"/><line class="cls-15" x1="910.99" y1="287.77" x2="965.22" y2="315.04"/><line class="cls-15" x1="963.53" y1="264.9" x2="1104.99" y2="250.77"/><line class="cls-15" x1="964.06" y1="290.03" x2="1105.49" y2="275.77"/><line class="cls-15" x1="964.6" y1="315.16" x2="1105.99" y2="300.77"/><line class="cls-15" x1="987.61" y1="242.15" x2="988.99" y2="330.27"/><line class="cls-15" x1="1007.05" y1="240.1" x2="1008.4" y2="328"/><line class="cls-15" x1="1026.48" y1="238.06" x2="1027.8" y2="325.72"/><line class="cls-15" x1="1045.91" y1="236.01" x2="1047.21" y2="323.44"/><line class="cls-15" x1="1065.34" y1="233.97" x2="1066.62" y2="321.16"/><line class="cls-15" x1="1084.78" y1="231.92" x2="1086.02" y2="318.89"/></g><g id="cageRight-2" data-name="cageRight"><path class="cls-13" d="M700,328.77,834.78,316a.25.25,0,0,1,.12,0L892.77,340a.25.25,0,0,1-.06.48L752.25,357.36a.2.2,0,0,1-.15,0l-51.44-27.8C700.26,329.31,699.54,328.82,700,328.77Z"/><path class="cls-14" d="M698.37,240.53l.17.09,53.7,28.13.19.1.23,0,139.82-14,1.26,85.45L752.31,356.6,699.63,329l-1.26-88.46m-.43-.89c-.19,0-.33.08-.33.31l1.28,89.5,53.28,27.92L894.5,341,893.22,254,752.58,268.08,698.89,240a2.46,2.46,0,0,0-.95-.31Z"/><line class="cls-15" x1="753.22" y1="356.94" x2="751.94" y2="268.08"/><path class="cls-16" d="M892.17,254.81,751.94,268.72l-53.69-28.13c-.33-.17-.37-1.24,0-1.28l129.13-12.78L892.3,254A.42.42,0,0,1,892.17,254.81Z"/><g id="guineaPig-2" data-name="guineaPig"><ellipse class="cls-17" cx="806.39" cy="335.1" rx="2.42" ry="4.84" transform="translate(305.09 1050.12) rotate(-77.53)"/><ellipse class="cls-17" cx="788.52" cy="329.14" rx="2.42" ry="4.84" transform="translate(296.9 1028) rotate(-77.53)"/><ellipse class="cls-17" cx="826.12" cy="335.1" rx="2.42" ry="4.84" transform="translate(320.56 1069.38) rotate(-77.53)"/><path id="body-2" data-name="body" class="cls-17" d="M807.13,294.71l-21.32,2a5.53,5.53,0,0,1-.91,0c-9.42-.7-10.48,7-8.92,17.46a3.69,3.69,0,0,0,.25.86,37.53,37.53,0,0,0,7.57,11.06,1.65,1.65,0,0,0,1,.47c4.3.4,14.55,4.56,24.6,9.09C788,326.59,790.29,306.69,807.13,294.71Z"/><path id="head-2" data-name="head" class="cls-18" d="M823.51,298.57c-11-8.1-19.37-5.42-25.87,5.26-6.51,12.15-7,22.31,4.1,28.66,9.74,5.41,19.53,6.53,29.4-2.23,5.56-5.22-.67-18.32-6.76-30.64A2.86,2.86,0,0,0,823.51,298.57Z"/><path id="leftPatch-2" data-name="leftPatch" class="cls-19" d="M817.26,302.06l.8.65a5.65,5.65,0,0,0,.51.34,2.59,2.59,0,0,1,1.25,3.42,3.48,3.48,0,0,1-.86,1.29c-1,1.06-1.21,2.59-.75,4.47a2.83,2.83,0,0,1,.1.71c0,2.29-.68,4-2,5.08a2.15,2.15,0,0,0-.35.32A4.45,4.45,0,0,0,814.8,323a.58.58,0,0,1-.16.63c-1.44,1.26-2.54,2.73-2,5.18a2.12,2.12,0,0,1-.3,1.63c-.76,1.08-2.38,1.19-4.44.81a1.66,1.66,0,0,0-.7,0c-3.06.73-4.78-1.74-6.35-4.57-2.86-5.3-3.52-9.39.15-11.07a1.41,1.41,0,0,1,.46-.11c1-.11,1.53-.53,1.08-1.48a1.27,1.27,0,0,1-.06-.88l.27-1a.6.6,0,0,1,.68-.44c5.06.89,5.4-2.27,5.58-5.74a1.73,1.73,0,0,0-.21-.92c-2.8-5,.19-5.77,6.64-4A5.3,5.3,0,0,1,817.26,302.06Z"/><path id="leftEye-2" data-name="leftEye" d="M813.18,312.67c-1,2.82.21,3.67,2.53,3.46a.23.23,0,0,0,.2-.19c.79-4.54,0-5.9-2.42-3.74A1.08,1.08,0,0,0,813.18,312.67Z"/><path id="rightEar-2" data-name="rightEar" class="cls-20" d="M824.65,300.09c-1,1.73-.4,3.61,1.28,5.6a13.63,13.63,0,0,1,1.87,6.63,1.47,1.47,0,0,0,.23.82l2.53,4.12a1.42,1.42,0,0,0,.57.52l.56.28a.25.25,0,0,0,.36-.31l-2.4-6.85a3.71,3.71,0,0,1,.38-3.35,5.76,5.76,0,0,0,1.11-4.46c2.16-3.62,2.28-5.71-2.6-4.1l-2.58.29A1.73,1.73,0,0,0,824.65,300.09Z"/><path id="rightEye-2" data-name="rightEye" d="M828.17,311.28a3,3,0,0,1,1.48,3.72C828.2,313.79,827.79,312.54,828.17,311.28Z"/><path id="leftEar-2" data-name="leftEar" class="cls-21" d="M807.88,302.9c-2.18-4-4.67-3.34-6.52-.93-4.41,2.43-3.84,6,.93,9.49C807.88,314.81,811.6,307.74,807.88,302.9Z"/><path class="cls-22" d="M825.19,329.14l-.7,2.66a.73.73,0,0,1-.35.53c-.94.56-2.14.61-3.79-.21"/><path class="cls-23" d="M822.55,324.47a20.8,20.8,0,0,0,5.46,0,.93.93,0,0,1,1,1.16,5.2,5.2,0,0,1-3.55,3.76.71.71,0,0,1-.57-.05,5.91,5.91,0,0,1-3.2-3.92A.78.78,0,0,1,822.55,324.47Z"/><path class="cls-24" d="M827.94,325.84a1.14,1.14,0,0,0-.87,1.16.21.21,0,0,0,.27.23,1.1,1.1,0,0,0,.83-1.22A.18.18,0,0,0,827.94,325.84Z"/><path class="cls-25" d="M822.56,325.78a1.38,1.38,0,0,0,1.34,1.46.39.39,0,0,0,.45-.47c-.2-.86-.66-1.33-1.4-1.36A.37.37,0,0,0,822.56,325.78Z"/><path class="cls-26" d="M813.28,313.51l.37.37a1.26,1.26,0,0,1,.59-.67.18.18,0,0,0,.08-.23h0a.48.48,0,0,0-.83-.05,1.68,1.68,0,0,0-.21.58"/></g><path class="cls-15" d="M883.31,341.59"/><path class="cls-15" d="M883.35,329.36"/><path class="cls-15" d="M883.4,317.12"/><path class="cls-15" d="M883.45,304.88"/><path class="cls-15" d="M883.49,292.65"/><path class="cls-15" d="M883.54,280.41"/><path class="cls-15" d="M883.58,268.17"/><path class="cls-15" d="M883.63,255.94"/><path class="cls-15" d="M866.28,270.18"/><path class="cls-15" d="M848.93,284.43"/><path class="cls-15" d="M831.58,298.67"/><path class="cls-15" d="M814.22,312.92"/><path class="cls-15" d="M796.87,327.16"/><path class="cls-15" d="M779.52,341.41"/><path class="cls-15" d="M762.17,355.66"/><path class="cls-15" d="M762.17,343"/><path class="cls-15" d="M762.17,330.27"/><path class="cls-15" d="M762.17,317.58"/><path class="cls-15" d="M762.17,304.88"/><path class="cls-15" d="M762.17,292.19"/><path class="cls-15" d="M762.17,279.5"/><path class="cls-15" d="M762.17,266.8"/><line class="cls-15" x1="737.88" y1="261.69" x2="738.99" y2="350.27"/><line class="cls-15" x1="723.82" y1="254.02" x2="725.01" y2="342.42"/><line class="cls-15" x1="709.75" y1="246.35" x2="711.03" y2="334.56"/><line class="cls-15" x1="737.88" y1="261.05" x2="875.96" y2="246.99"/><line class="cls-15" x1="724.14" y1="253.7" x2="859.34" y2="239.95"/><line class="cls-15" x1="710.39" y1="246.35" x2="842.72" y2="232.92"/><line class="cls-15" x1="810.75" y1="227.81" x2="872.51" y2="256.4"/><line class="cls-15" x1="792.42" y1="229.64" x2="853.07" y2="258.39"/><line class="cls-15" x1="774.09" y1="231.47" x2="833.64" y2="260.38"/><line class="cls-15" x1="755.76" y1="233.3" x2="814.21" y2="262.38"/><line class="cls-15" x1="737.43" y1="235.12" x2="794.78" y2="264.37"/><line class="cls-15" x1="719.1" y1="236.95" x2="775.35" y2="266.36"/><line class="cls-15" x1="698.25" y1="262.33" x2="751.94" y2="289.18"/><line class="cls-15" x1="698.62" y1="287.05" x2="752.58" y2="314.11"/><line class="cls-15" x1="698.99" y1="311.77" x2="753.22" y2="339.04"/><line class="cls-15" x1="751.53" y1="288.9" x2="892.99" y2="274.77"/><line class="cls-15" x1="752.06" y1="314.03" x2="893.49" y2="299.77"/><line class="cls-15" x1="752.6" y1="339.16" x2="893.99" y2="324.77"/><line class="cls-15" x1="775.61" y1="266.15" x2="776.99" y2="354.27"/><line class="cls-15" x1="795.05" y1="264.1" x2="796.4" y2="352"/><line class="cls-15" x1="814.48" y1="262.06" x2="815.8" y2="349.72"/><line class="cls-15" x1="833.91" y1="260.01" x2="835.21" y2="347.44"/><line class="cls-15" x1="853.34" y1="257.97" x2="854.62" y2="345.16"/><line class="cls-15" x1="872.78" y1="255.92" x2="874.02" y2="342.89"/></g><path id="leftShoe" class="cls-27" d="M84.12,639.15l25,9v4.9a1.54,1.54,0,0,1-1,1.45c-9.25,3.18-19.41,8.87-30,15.65-9.3,4.5-15.69,2.79-20.2-2.91a2.71,2.71,0,0,1-.49-2.36c1-3.65,3-7.08,8.69-9.73C74.81,651.62,81.32,646.62,84.12,639.15Z"/><path id="rightShoe" class="cls-27" d="M157.62,647.65c1,1.8-1.14,4.65.5,6.5,1.84,2.08,5.33,2.1,9,4s7.48,5.66,11.42,7.9c.66.37,1.72,1.05,2.36,1.46,10.63,6.92,16.57,4.88,20.75-.5a1.73,1.73,0,0,0-.3-2.38c-10.72-8.73-19.14-17.89-22.73-28Z"/><path id="neck" class="cls-28" d="M96,228.77l-1.76,15.88a2.49,2.49,0,0,1-2.79,2.2c-1.71-.23-3.78-.67-4.5-.84a1,1,0,0,0-1.14.81c-2.93,21,45.79,25.21,44.33-.55a.62.62,0,0,0-.95-.5c-1.23.82-6.78,1.35-7.19,0l-3-17Z"/><path id="shirt" class="cls-29" d="M130,245.22C129,270,87.88,269,86.64,246.28a.63.63,0,0,0-.65-.6c-23.59,1.33-40.62,14.71-53.37,36,0,0-4.35,24-1.26,37.23a6.11,6.11,0,0,0,10,3.11c4-3.38,7.54-1.62,10.79,3.16,9.42,10.46,13.83,22.65,12,37l-4,57c27.85,9.61,62.62,10.27,102,5l-5-83c2.38-17.55,6.4-28.82,13.21-29.29,2.27-.16,7.79-42.71,7.79-42.71a25.4,25.4,0,0,0-3.16-5.54c-7.43-9.94-22.37-16-44.52-18.78A.41.41,0,0,0,130,245.22Z"/><path id="rightHand" class="cls-28" d="M47.21,394.77l23.91,4c2.73.38,2.83,4.54-1,4l-8-2c-2.31.1-1.73,2.79-1,3l11,7c3,2,4.21,5.46,0,4l-13-8c-1.24-.09-2.44.31-2.08,1.59l14,11.27a.34.34,0,0,1,.08.09c1,1.75.48,2.5-.78,2.77a1.21,1.21,0,0,1-.89-.17l-13.58-10a1.16,1.16,0,0,0-1.45.05h0a.93.93,0,0,0,0,1.4l10.35,9.33c.54,2.21-.73,2.56-3.12,1.74l-.09-.05-12.82-10a1.38,1.38,0,0,0-.61-.26l-10.42-1.83a3,3,0,0,1-1.82-1.05L33.66,409a2,2,0,0,1-.23-1.94c2.2-4.5,7.12-7.85,13.62-12.28A.3.3,0,0,1,47.21,394.77Z"/><path id="leftSleave" class="cls-29" d="M57.12,255.15C46.77,276.87,45.37,297,46,319.77c-28,16-18.56,33.41-9.87,59.38l12,15-11.36,17a.76.76,0,0,1-1.25,0c-2.43-3.22-9.24-9.08-18.65-16.5a5.11,5.11,0,0,1-1.23-1.39c-19.7-32.78-19.41-58.85-3.51-80.19C28.46,283.64,43.89,261.05,57.12,255.15Z"/><path id="pants" class="cls-30" d="M60.12,420.15c-3.48,20.51,1.25,51.25,10,87,4.18,14,4.29,29.54,1.8,46a57.71,57.71,0,0,0,.69,21c5.28,24,8.41,47.6,10.51,65l27,11-2-79-1-58,4.8-41.58a2.4,2.4,0,0,1,4.65-.52l25.94,74.36a12.33,12.33,0,0,0,1.29,2.72c5,7.69,4.79,18.46,3.32,30-1.82,21.39.16,44.3,9,70l25-9,2-46-5-73a379.08,379.08,0,0,0-15-96C124.92,429.55,89.4,430.29,60.12,420.15Z"/><path id="rightHand-2" data-name="rightHand" class="cls-28" d="M169.9,390.77l-23.91,4c-2.72.38-2.83,4.54,1,4l8-2c2.32.1,1.73,2.79,1,3l-11,7c-3,2-4.2,5.46,0,4l13-8c1.24-.09,2.44.31,2.08,1.59l-14,11.27a.31.31,0,0,0-.07.09c-1,1.75-.49,2.5.78,2.77a1.19,1.19,0,0,0,.88-.17l13.58-10a1.17,1.17,0,0,1,1.46.05h0a.93.93,0,0,1,0,1.4l-10.36,9.33c-.53,2.21.73,2.56,3.12,1.74l.09-.05,12.83-10a1.3,1.3,0,0,1,.6-.26l10.43-1.83a3,3,0,0,0,1.82-1.05l2.21-2.64a1.94,1.94,0,0,0,.22-1.94c-2.19-4.5-7.11-7.85-13.62-12.28A.28.28,0,0,0,169.9,390.77Z"/><ellipse id="head-3" data-name="head" class="cls-28" cx="107.12" cy="203.65" rx="26" ry="34.5"/><path class="cls-31" d="M146.4,551.78c3.16-2.37,6.43-4.08,10.27-3.24"/><line class="cls-31" x1="147.12" y1="556.15" x2="154.12" y2="553.15"/><path id="rightsleave" class="cls-29" d="M161.12,253.15c10,3.32,16.72,8.94,20,17l30,43h0c13.64,15.4,7.83,41.68-3.2,70.89a10.39,10.39,0,0,1-2.39,3.7l-18.41,18.41-19-17,13-10,8.9-26.72c.07-.19.21-.34.28-.52,2-5.89,1.88-11.79.16-18.44-.07-.3-.4-.48-.5-.76-6.08-16.67-13.62-23.66-22.84-19.56C171,295.53,169.15,275.6,161.12,253.15Z"/><path class="cls-32" d="M63.49,671.27c6.22-.76,27.35-12.42,44.92-21.48a.68.68,0,0,1,1,.58c.07,1.37.29,3.57-.9,3.9-7,2-21.22,9.73-31,16C71.29,673.05,66.59,673.44,63.49,671.27Z"/><line class="cls-31" x1="79.49" y1="646.27" x2="84.49" y2="650.27"/><line class="cls-31" x1="81.49" y1="644.27" x2="86.49" y2="648.27"/><line class="cls-31" x1="76.99" y1="648.77" x2="81.99" y2="652.77"/><line class="cls-31" x1="74.49" y1="651.27" x2="78.99" y2="654.77"/><line class="cls-31" x1="185.11" y1="648.31" x2="180.11" y2="652.31"/><line class="cls-31" x1="183.11" y1="646.31" x2="178.11" y2="650.31"/><line class="cls-31" x1="187.61" y1="650.81" x2="182.61" y2="654.81"/><line class="cls-31" x1="189.11" y1="653.31" x2="184.61" y2="656.81"/><path class="cls-32" d="M157.83,649.43c15.92,9.17,32.45,18.82,39.66,21.07-6.47,2.44-14.36.53-24.5-8.3-2.22-2.22-5.93-4-10.21-5.67C158,655.63,156.56,653.18,157.83,649.43Z"/><path class="cls-26" d="M111,207.92c.13-.41,5-6.22,13.11-2.44l-.79,1.05A8.54,8.54,0,0,1,111,207.92Z"/><path class="cls-33" d="M110.18,204a12.28,12.28,0,0,1,14.71.09l.6-3.16S115.25,195.71,110.18,204Z"/><circle class="cls-33" cx="117.66" cy="207.37" r="2.76" transform="translate(-111.2 274.23) rotate(-76.72)"/><path class="cls-26" d="M120.9,206.7a.9.9,0,1,1-.9-.9A.9.9,0,0,1,120.9,206.7Z"/><path class="cls-26" d="M102.21,207.69c-.13-.4-5-6.22-13.11-2.43l.79,1a8.53,8.53,0,0,0,12.32,1.39Z"/><path class="cls-33" d="M103.06,203.76a12.28,12.28,0,0,0-14.71.09l-.6-3.16S98,195.48,103.06,203.76Z"/><circle class="cls-33" cx="95.59" cy="207.14" r="2.76" transform="translate(-45.03 27.5) rotate(-13.28)"/><path class="cls-26" d="M97.15,206.48a.9.9,0,1,0,.9-.9A.9.9,0,0,0,97.15,206.48Z"/><path class="cls-34" d="M101.15,215.62s5.82,3.25,9.74-.54C110.89,215.08,107.51,222.92,101.15,215.62Z"/><path class="cls-34" d="M104,223.35c2.32.93,4,1.31,6.38.38a11.59,11.59,0,0,0,4.68-3.38.56.56,0,0,0-.68-.88c-3.41,1.76-6,4.53-10.15,3-.53-.19-.74.64-.23.85Z"/><path class="cls-35" d="M80.75,160.09A8.11,8.11,0,0,0,82,164.67c-4.23-.53-5-8.49-9.21-7.92-2.06.3-3.15,2.68-3.28,4.77-.42,7,5.22,12.83,7.34,19.53s.71,13.81,1.9,20.64a6.43,6.43,0,0,0,1.57,3.68,2.67,2.67,0,0,0,3.64.24,4,4,0,0,0,.79-2.51c.51-6.34,1-12.68,1.51-19a56.55,56.55,0,0,0,23.55,1.3c3.15-.49,6.3-1.25,9.49-1.17s6.54,1.17,8.49,3.7c4.39,5.66,1.34,19.79,4.9,20.37,5.17.38,11.21-15.47,9.3-24.52a24.86,24.86,0,0,0-18.43-18.63c-6-1.35-12.21-.39-18.34-.26s-12.77-.87-17.13-5.19c-1.26-1.24-2.55-2.85-4.32-2.79A3.47,3.47,0,0,0,80.75,160.09Z"/><path class="cls-36" d="M91.32,166.88c5.45,3.6,12.26,4.7,18.69,4.68,3.53,0,7.19-.36,10.7.19a19.87,19.87,0,0,1,7.91,3.26c.45.28,1.07-.3.75-.75-1.68-2.36-4.66-3.61-7.41-4.25a46,46,0,0,0-10.15-.79,51.75,51.75,0,0,1-19.74-4.1C91,164.67,90.47,166.31,91.32,166.88Z"/><path class="cls-36" d="M78.62,171.24c5.47,5.68,14.24,8.56,22,8.51,7.94,0,16.58-4.66,23.73.75.55.42,1.13-.45.7-.89-2.45-2.69-6.45-3.6-10-3.62-4.32,0-8.55,1-12.87,1a31.72,31.72,0,0,1-11.58-2.24,72.55,72.55,0,0,1-10.42-5.59A1.34,1.34,0,0,0,78.62,171.24Z"/><path class="cls-36" d="M128.26,183.61c1.22.7,2.39,1.25,3.09,2.57s1.1,2.92,1.89,4.26a.88.88,0,0,0,1.62-.45c.19-3.19-2.51-8.58-6.43-7.72A.74.74,0,0,0,128.26,183.61Z"/><path class="cls-36" d="M132.09,180.37c1.6,0,2.83,1.56,3.79,2.68a10.57,10.57,0,0,1,2,3.51c.19.56,1.15.68,1.26,0,.32-2-.85-3.7-2.26-5.08s-2.93-3-5-2.47A.7.7,0,0,0,132.09,180.37Z"/></g></g></svg>