<svg xmlns="http://www.w3.org/2000/svg" viewBox="0 0 1282.18 667.11"><defs><style>.cls-1{font-size:200px;font-family:FrederickatheGreatest, Fredericka the Greatest;letter-spacing:0.08em;}.cls-2{font-size:82.64px;font-family:BentonSansCondensed-Thin, Benton Sans Condensed;font-weight:200;}.cls-3{letter-spacing:0em;}.cls-4{letter-spacing:0em;}.cls-5{letter-spacing:-0.01em;}.cls-6{letter-spacing:-0.05em;}.cls-7{letter-spacing:-0.01em;}.cls-8{letter-spacing:-0.01em;}.cls-9{fill:#4d4d4d;}.cls-10,.cls-11,.cls-12,.cls-13,.cls-9{stroke:#000;stroke-miterlimit:10;stroke-width:1.07px;}.cls-10{fill:#e7fffd;}.cls-11{fill:#ff846f;}.cls-12{fill:none;}.cls-13{fill:#1f7cff;}</style></defs><title>Slide_1</title><g id="Layer_2" data-name="Layer 2"><g id="Layer_1-2" data-name="Layer 1"><text class="cls-1" transform="translate(318.12 174.97) scale(1.14 1)">Clinical<tspan x="196.6" y="240">Trials</tspan></text><text class="cls-2" transform="translate(406.44 532.08) scale(1.14 1)">Wh<tspan class="cls-3" x="99.46" y="0">a</tspan><tspan class="cls-4" x="135.33" y="0">t do</tspan><tspan class="cls-3" x="249.32" y="0"> </tspan><tspan class="cls-5" x="263.69" y="0">y</tspan><tspan x="297.18" y="0">ou </tspan><tspan class="cls-6" x="388.53" y="0">r</tspan><tspan class="cls-7" x="409.72" y="0">e</tspan><tspan class="cls-4" x="445.26" y="0">all</tspan><tspan class="cls-3" x="510.43" y="0">y</tspan><tspan class="cls-4" x="544.89" y="0" xml:space="preserve"> kn</tspan><tspan class="cls-5" x="631.89" y="0">o</tspan><tspan class="cls-8" x="668.85" y="0">w</tspan><tspan x="717.63" y="0">?</tspan></text><path id="leftShoe" class="cls-9" d="M95.6,633l28.59,9v4.9a1.57,1.57,0,0,1-1.19,1.45c-10.57,3.18-22.19,8.87-34.26,15.65-10.63,4.5-17.93,2.79-23.09-2.91a2.41,2.41,0,0,1-.56-2.36c1.14-3.65,3.41-7.08,9.93-9.73C85,645.48,92.4,640.48,95.6,633Z"/><path id="rightShoe" class="cls-9" d="M179.64,641.51c1.12,1.8-1.3,4.65.57,6.5,2.1,2.08,6.1,2.1,10.29,4s8.55,5.66,13.06,7.9c.76.37,2,1.05,2.7,1.46,12.15,6.92,18.94,4.88,23.72-.5a1.58,1.58,0,0,0-.34-2.38c-12.26-8.72-21.89-17.89-26-28Z"/><path id="neck" class="cls-10" d="M104.75,223,99.6,244c-3.43,20,52.6,25,46.88-1l-6.29-21Z"/><path id="shirt" class="cls-11" d="M147.62,238.51c-.57,25.5-48.59,24.5-49.16,1-27.35,1.13-47,14.56-61.74,36L7,315.51c-7.66,13.23-8.61,27.86-2.29,44,8.6,21.93,21.52,36.32,37.74,45l14.86-17L41.86,372l-9.14-29c-4.47-6.14.9-13.84,9.14-22,6.5-7.83,12.21-8.37,17.15-2,10.78,10.46,15.82,22.65,13.72,37l-4.57,57c31.84,9.61,71.6,10.27,116.62,5l-5.71-83c3.63-23.39,10.58-35.64,24-26l10.29,17c4.34,4.88,5.64,8.92,3.43,12l-12.58,34L190.5,383l19.44,17,21.72-21,11.43-26c5.37-16.76,5-31.4-3.43-43l-36.58-47C196.79,249.7,177.67,241.8,147.62,238.51Z"/><path id="leftSleave" class="cls-12" d="M65.87,248C54,269.73,51.44,292.23,52.15,315c-32,16-20.22,31-10.29,57l13.72,15L41.86,405c-1.94-3-10.54-9.53-22.86-18-23.09-33.16-22.9-59.48-4.58-81C33.11,276.5,50.75,253.92,65.87,248Z"/><path id="rightsleave" class="cls-12" d="M180.21,247c11.44,3.32,19.12,8.94,22.87,17l34.3,43c16,15.77,8.63,42.95-4.58,73l-22.86,20-21.73-17,14.87-10,10.29-27c5.49-6.48,7.73-12.87,0-19-7-17-15.67-24.13-26.3-20C191.5,289.39,189.4,269.46,180.21,247Z"/><path id="pants" class="cls-13" d="M68.16,414c-4,20.52,1.43,51.25,11.43,87,4.78,14,4.92,29.55,2.06,46a50.6,50.6,0,0,0,.8,21c6,24,9.61,47.6,12,65l30.87,11L123,565l-1.14-58,5.48-41.58c.34-2.54,4.37-2.93,5.33-.51l29.66,74.35a12.11,12.11,0,0,0,1.46,2.72c5.68,7.69,5.49,18.46,3.8,30-2.07,21.39.18,44.31,10.29,70l28.59-9,2.28-46-5.71-73a335.56,335.56,0,0,0-17.15-96C142.25,423.41,101.63,424.15,68.16,414Z"/><path id="leftHand" class="cls-10" d="M60.16,386l26.29-3c3.55,1.69,3.12,3.36,0,5l-9.14,1c-1.77.44-2,1.5-1.15,3l13.72,7c2.16,3,1.8,4-1.14,5l-16-8c-1.42,0-1.68.76-1.14,2l17.15,10c1.54,1.9.71,2.69-1.14,3l-19.44-9v1l13.72,9c.84,2.17-.58,2.62-3.43,2l-16-9-13.72-1-1.79-1.57a.92.92,0,0,1-.29-1C48.45,396.41,52.82,391.28,60.16,386Z"/><path id="rightHand" class="cls-10" d="M192.6,385.37l-26.5-.92c-3.35,2-2.75,3.59.51,5l9.22.28c1.8.3,2.16,1.33,1.44,2.89l-12.94,8c-1.85,3.13-1.39,4.11,1.65,4.89l15.12-9.22c1.42-.09,1.76.62,1.34,1.9l-16.05,11.31c-1.34,2-.43,2.73,1.44,2.9l18.44-10.49.1,1-12.74,10c-.62,2.23.85,2.56,3.62,1.73l15-10.22,13.56-2.08,1.63-1.7a.92.92,0,0,0,.19-1C205.33,394.81,200.44,390,192.6,385.37Z"/><ellipse id="head" class="cls-10" cx="121.9" cy="197.51" rx="29.73" ry="34.5"/><path class="cls-12" d="M166.81,545.65c3.62-2.38,7.35-4.09,11.75-3.24"/><line class="cls-12" x1="167.63" y1="550.01" x2="175.64" y2="547.01"/></g></g></svg>